<svg xmlns="http://www.w3.org/2000/svg" viewBox="0 0 500 500"><g id="freepik--background-simple--inject-125"><path d="M411.44,108.87c-17-17.62-36.48-32.26-57.18-42.52-31.53-15.63-66.26-23.16-101-23.61C151.76,41.44,144,167.8,112.83,185.37S25.05,205,23.1,275.28c-1.23,44.21,8.51,89.66,35.89,124.1,25.08,31.54,61.93,47.53,98.22,59.34C198,472,241.21,485,284.08,476.05c44-9.19,74.92-46.11,111.05-71.06,22.75-15.71,43.17-32.25,57.22-57.46,1.68-3,3.25-6.08,4.75-9.2,18.81-39.17,22.49-84.35,12.12-126.74C459.92,173.56,438.91,137.33,411.44,108.87Z" style="fill:#5905CA"></path><path d="M411.44,108.87c-17-17.62-36.48-32.26-57.18-42.52-31.53-15.63-66.26-23.16-101-23.61C151.76,41.44,144,167.8,112.83,185.37S25.05,205,23.1,275.28c-1.23,44.21,8.51,89.66,35.89,124.1,25.08,31.54,61.93,47.53,98.22,59.34C198,472,241.21,485,284.08,476.05c44-9.19,74.92-46.11,111.05-71.06,22.75-15.71,43.17-32.25,57.22-57.46,1.68-3,3.25-6.08,4.75-9.2,18.81-39.17,22.49-84.35,12.12-126.74C459.92,173.56,438.91,137.33,411.44,108.87Z" style="fill:#fff;opacity:0.7000000000000001"></path></g><g id="freepik--Shine--inject-125"><line x1="229.99" y1="136.76" x2="221.04" y2="144.63" style="fill:none;stroke:#263238;stroke-linecap:round;stroke-linejoin:round"></line><line x1="309.64" y1="66.74" x2="257.57" y2="112.51" style="fill:none;stroke:#263238;stroke-linecap:round;stroke-linejoin:round"></line><line x1="301.85" y1="64.79" x2="251.22" y2="83.29" style="fill:none;stroke:#263238;stroke-linecap:round;stroke-linejoin:round"></line><line x1="255.48" y1="57.22" x2="222.98" y2="59.92" style="fill:none;stroke:#263238;stroke-linecap:round;stroke-linejoin:round"></line><line x1="293.08" y1="54.08" x2="259.11" y2="56.91" style="fill:none;stroke:#263238;stroke-linecap:round;stroke-linejoin:round"></line><line x1="278.68" y1="33.9" x2="244.82" y2="22.56" style="fill:none;stroke:#263238;stroke-linecap:round;stroke-linejoin:round"></line><line x1="290.16" y1="37.53" x2="283.39" y2="35.39" style="fill:none;stroke:#263238;stroke-linecap:round;stroke-linejoin:round"></line><line x1="426.28" y1="136.76" x2="435.23" y2="144.63" style="fill:none;stroke:#263238;stroke-linecap:round;stroke-linejoin:round"></line><line x1="346.63" y1="66.74" x2="420.77" y2="131.92" style="fill:none;stroke:#263238;stroke-linecap:round;stroke-linejoin:round"></line><line x1="354.42" y1="64.79" x2="405.05" y2="83.29" style="fill:none;stroke:#263238;stroke-linecap:round;stroke-linejoin:round"></line><line x1="400.78" y1="57.22" x2="433.28" y2="59.92" style="fill:none;stroke:#263238;stroke-linecap:round;stroke-linejoin:round"></line><line x1="363.18" y1="54.08" x2="397.16" y2="56.91" style="fill:none;stroke:#263238;stroke-linecap:round;stroke-linejoin:round"></line><line x1="377.59" y1="33.9" x2="403.46" y2="25.7" style="fill:none;stroke:#263238;stroke-linecap:round;stroke-linejoin:round"></line><line x1="366.1" y1="37.53" x2="372.88" y2="35.39" style="fill:none;stroke:#263238;stroke-linecap:round;stroke-linejoin:round"></line></g><g id="freepik--Trophy--inject-125"><rect x="323.75" y="58.31" width="5.36" height="22.82" style="fill:#5905CA;stroke:#263238;stroke-linecap:round;stroke-linejoin:round"></rect><polygon points="334.35 86.02 318.51 86.02 320.38 77.17 332.48 77.17 334.35 86.02" style="fill:#5905CA;stroke:#263238;stroke-linecap:round;stroke-linejoin:round"></polygon><polygon points="343.89 89.74 308.97 89.74 312.69 81.59 340.17 81.59 343.89 89.74" style="fill:#5905CA;stroke:#263238;stroke-linecap:round;stroke-linejoin:round"></polygon><path d="M308.73,34.15a12.58,12.58,0,1,0,12.34,12.58A12.46,12.46,0,0,0,308.73,34.15Zm0,22a9.38,9.38,0,1,1,9.21-9.37A9.29,9.29,0,0,1,308.73,56.1Z" style="fill:#5905CA;stroke:#263238;stroke-linecap:round;stroke-linejoin:round"></path><path d="M346,34.15a12.58,12.58,0,1,0,12.34,12.58A12.46,12.46,0,0,0,346,34.15Zm0,22a9.38,9.38,0,1,1,9.2-9.37A9.29,9.29,0,0,1,346,56.1Z" style="fill:#5905CA;stroke:#263238;stroke-linecap:round;stroke-linejoin:round"></path><path d="M326.43,64.59h0A15.59,15.59,0,0,1,310.83,49V32.93H342V49A15.59,15.59,0,0,1,326.43,64.59Z" style="fill:#5905CA;stroke:#263238;stroke-linecap:round;stroke-linejoin:round"></path><polygon points="326 38.06 328.01 44.24 334.51 44.24 329.25 48.06 331.26 54.24 326 50.42 320.74 54.24 322.75 48.06 317.49 44.24 323.99 44.24 326 38.06" style="fill:#263238"></polygon></g><g id="freepik--Factors--inject-125"><rect x="275.56" y="89.82" width="102.4" height="93.36" style="fill:#263238;stroke:#263238;stroke-linejoin:round"></rect><rect x="275.56" y="89.82" width="68.06" height="93.36" style="fill:#fff;stroke:#263238;stroke-linejoin:round"></rect><rect x="196.73" y="136.2" width="102.4" height="93.36" style="fill:#263238;stroke:#263238;stroke-linejoin:round"></rect><rect x="196.73" y="136.2" width="68.06" height="93.36" style="fill:#fff;stroke:#263238;stroke-linejoin:round"></rect><path d="M243,162.65v-7.46h-4.67a14.92,14.92,0,0,0-1.58-3.71l2.89-2.9-5.28-5.28-2.88,2.88a15,15,0,0,0-4.16-1.73V141h-7.47v3.45a15.22,15.22,0,0,0-4.54,2l-2.06-2.06L208,149.64l2.23,2.23a15,15,0,0,0-1.69,4.81h-2.84v7.47h3.4a15.34,15.34,0,0,0,2.25,4.3l-2.3,2.3L214.3,176l2.85-2.85a15.25,15.25,0,0,0,4.2,1.26v3.89h7.46v-4.65a15.27,15.27,0,0,0,3.5-1.81l3.11,3.11,5.28-5.28-3.47-3.47a15.13,15.13,0,0,0,1.29-3.58Zm-19.41,6a9.34,9.34,0,1,1,9.33-9.34A9.34,9.34,0,0,1,223.59,168.63Z" style="fill:#5905CA"></path><path d="M249.83,192.25v-5.49H246.4a11.42,11.42,0,0,0-1.17-2.73l2.13-2.13L243.48,178l-2.12,2.12a11,11,0,0,0-3.06-1.27v-2.54h-5.49v2.54a11.07,11.07,0,0,0-3.34,1.45L228,178.8l-3.88,3.88,1.64,1.64a11.31,11.31,0,0,0-1.25,3.54h-2.08v5.49h2.5a11.21,11.21,0,0,0,1.65,3.16l-1.69,1.69,3.88,3.88,2.1-2.09a11.44,11.44,0,0,0,3.08.92v2.86h5.49v-3.41A11.41,11.41,0,0,0,242,199l2.29,2.29,3.88-3.88-2.55-2.55a11,11,0,0,0,.94-2.63Zm-14.27,4.39a6.86,6.86,0,1,1,6.86-6.86A6.86,6.86,0,0,1,235.56,196.64Z" style="fill:#5905CA"></path><rect x="253.35" y="196.44" width="102.4" height="93.36" style="fill:#263238;stroke:#263238;stroke-linejoin:round"></rect><rect x="253.35" y="196.44" width="68.06" height="93.36" style="fill:#fff;stroke:#263238;stroke-linejoin:round"></rect><path d="M304.73,212.7l-5.91-4.36a6.84,6.84,0,0,0-7.77-.25l-11.72,7a2.9,2.9,0,0,0,2.58,5.17l10.95-3.76L306,230.1l8.17-2.85V210.62Z" style="fill:#5905CA"></path><path d="M291.41,218.34,280.5,222.1c-2,.86-4.17-2.46-4.17-4.62h0c0-2.79,2.66-3.56,4.75-5.41l2-1.76a7.28,7.28,0,0,0-8.09-1.16h0a13.63,13.63,0,0,1-10.09.76L262,209v18.48l3.7.46.35-.3a6.16,6.16,0,0,1,8.53.49l13.12,14.11a1.72,1.72,0,0,0,2.34.16h0a1.71,1.71,0,0,0,.19-2.46l-3.28-3.68,4.55,3A2.14,2.14,0,0,0,294.2,236l-2.64-2.74,4,2.53a2.36,2.36,0,0,0,3-3.57l-2.37-2.65,4.34,2.63a1.85,1.85,0,0,0,2.13-.15h0a1.85,1.85,0,0,0,.11-2.77Z" style="fill:#5905CA"></path><path d="M271,234.63l1.68-2.12a2.19,2.19,0,0,0-3.43-2.72l-1.68,2.12a2.19,2.19,0,0,0,3.43,2.72Z" style="fill:#5905CA"></path><path d="M274.24,237.72l1.68-2.12a2.19,2.19,0,0,0-3.43-2.71L270.81,235a2.19,2.19,0,0,0,3.43,2.71Z" style="fill:#5905CA"></path><path d="M277.45,240.81l1.67-2.11a2.19,2.19,0,0,0-3.43-2.72L274,238.1a2.19,2.19,0,0,0,.35,3.07h0A2.19,2.19,0,0,0,277.45,240.81Z" style="fill:#5905CA"></path><path d="M282,238.72a2.18,2.18,0,0,0-3.07.36l-1.68,2.11a2.19,2.19,0,1,0,3.43,2.72l1.68-2.12A2.18,2.18,0,0,0,282,238.72Z" style="fill:#5905CA"></path><rect x="164.2" y="256.07" width="102.4" height="93.36" style="fill:#263238;stroke:#263238;stroke-linejoin:round"></rect><rect x="164.2" y="256.07" width="68.06" height="93.36" style="fill:#fff;stroke:#263238;stroke-linejoin:round"></rect><rect x="174.49" y="302.84" width="7.53" height="12.49" style="fill:#5905CA"></rect><rect x="183.63" y="297.5" width="7.53" height="17.84" style="fill:#5905CA"></rect><rect x="192.78" y="293.85" width="7.53" height="21.48" style="fill:#5905CA"></rect><rect x="201.92" y="288.99" width="7.53" height="26.35" style="fill:#5905CA"></rect><path d="M205,281.15l-6.07,1.9,1.61,1.48-4.31,4.7-10.12,1.92-10.64,8.17a1,1,0,0,0-.19,1.4,1,1,0,0,0,1.4.18L187,293l10.3-2,4.76-5.18,1.61,1.48Z" style="fill:#5905CA"></path><rect x="226.25" y="326.94" width="102.4" height="93.36" style="fill:#263238;stroke:#263238;stroke-linejoin:round"></rect><rect x="226.25" y="326.94" width="68.06" height="93.36" style="fill:#fff;stroke:#263238;stroke-linejoin:round"></rect><path d="M271.26,359.89,265,355.76v-1.18a10.51,10.51,0,0,0,2.11-6.1c0-5.41-2.21-6-4.95-6s-4.95,1.18-4.95,6a10.56,10.56,0,0,0,2.2,6.21v.69l-6.86,4.51a4.15,4.15,0,0,0-1.87,3.47v1.48l10.9,4.78,11.58-4.78v-1.48A4.15,4.15,0,0,0,271.26,359.89Z" style="fill:#5905CA"></path><path d="M278.13,353.8a16.21,16.21,0,1,0-18.58,16v12.79a3.49,3.49,0,0,0-1.5,2.86v21.7a3.5,3.5,0,0,0,7,0v-21.7a3.46,3.46,0,0,0-1.5-2.86V369.93A16.23,16.23,0,0,0,278.13,353.8Zm-29.42,0A13.21,13.21,0,1,1,261.92,367,13.23,13.23,0,0,1,248.71,353.8Z" style="fill:#5905CA"></path><rect x="103.67" y="394.3" width="102.4" height="93.36" style="fill:#263238;stroke:#263238;stroke-linejoin:round"></rect><rect x="103.67" y="394.3" width="68.06" height="93.36" style="fill:#fff;stroke:#263238;stroke-linejoin:round"></rect><path d="M161.51,451.63a4.17,4.17,0,0,0-1.88-3.48L153.34,444v-1.18a10.52,10.52,0,0,0,2.12-6.1c0-5.4-2.22-6-5-6s-4.95,1.18-4.95,6a10.45,10.45,0,0,0,2.2,6.21v.7l-6.86,4.5a4.17,4.17,0,0,0-1.88,3.48v3.78a8.44,8.44,0,0,0-1.78-.15,6.85,6.85,0,0,0-1.53.15v-3.78a4.17,4.17,0,0,0-1.88-3.48L127.54,444v-1.18a10.52,10.52,0,0,0,2.12-6.1c0-4.15-1.31-5.47-3.17-5.86l3.21-3.66h5.45l1.46,20.91h.65l2.1-20.92h7.4l2.81,3.24-.19-3.24H153V399.87H122.39v27.35h4.46l-.41,3.65a9.55,9.55,0,0,0-1.73-.14c-2.74,0-4.95,1.18-4.95,6A10.45,10.45,0,0,0,122,443v.7l-6.86,4.5a4.17,4.17,0,0,0-1.88,3.48V458h19.57a9.25,9.25,0,0,0-.5,3.29,10.5,10.5,0,0,0,2.2,6.21v.69l-6.86,4.51a4.14,4.14,0,0,0-1.88,3.47v6.35h22.49v-6.35a4.14,4.14,0,0,0-1.88-3.47l-6.29-4.13v-1.18a10.52,10.52,0,0,0,2.12-6.1,11,11,0,0,0-.41-3.29h19.73Zm-38.46-25.07v-26h29.31v26h-3.67l.11,2-1.74-2h-8.3L137,444.23l-1.23-17.67H129.4L127.32,429l.26-2.39Z" style="fill:#5905CA"></path><polygon points="134.24 421.63 140.96 421.63 140.96 420.61 134.25 420.61 134.24 421.63" style="fill:#5905CA"></polygon><path d="M134.7,423.42h5.8a1.65,1.65,0,0,0,.46-1.14h-6.72A1.65,1.65,0,0,0,134.7,423.42Z" style="fill:#5905CA"></path><path d="M136.74,425.6h1.7a1.66,1.66,0,0,0,1.67-1.66h-5A1.65,1.65,0,0,0,136.74,425.6Z" style="fill:#5905CA"></path><path d="M133.26,415.51a6.65,6.65,0,0,1,1.53,4.25v.31h5.64v-.31a6.62,6.62,0,0,1,1.54-4.25,5.65,5.65,0,0,0,1.33-3.64,5.67,5.67,0,0,0-6.06-5.66,5.68,5.68,0,0,0-4,9.3Z" style="fill:#5905CA"></path><path d="M144.18,411.91a.54.54,0,0,0,.54.54h2.85a.54.54,0,0,0,0-1.08h-2.85A.54.54,0,0,0,144.18,411.91Z" style="fill:#5905CA"></path><path d="M130.84,411.91a.54.54,0,0,0-.54-.54h-2.88a.54.54,0,1,0,0,1.08h2.88A.54.54,0,0,0,130.84,411.91Z" style="fill:#5905CA"></path><path d="M137.51,405.23h0a.54.54,0,0,0,.54-.54v-2.86a.53.53,0,0,0-.53-.54h0a.54.54,0,0,0-.53.54v2.85A.55.55,0,0,0,137.51,405.23Z" style="fill:#5905CA"></path><path d="M142.66,407.29a.55.55,0,0,0,.38-.16l2-2a.53.53,0,0,0,0-.76.55.55,0,0,0-.77,0l-2,2a.54.54,0,0,0,0,.76A.59.59,0,0,0,142.66,407.29Z" style="fill:#5905CA"></path><path d="M132,416.66l-2,2a.54.54,0,0,0,0,.76.53.53,0,0,0,.76,0l2-2a.54.54,0,0,0-.76-.76Z" style="fill:#5905CA"></path><path d="M131.9,407.07a.54.54,0,0,0,.39.16.54.54,0,0,0,.38-.92l-1.91-1.91a.54.54,0,1,0-.76.76Z" style="fill:#5905CA"></path><path d="M143.09,416.75a.55.55,0,0,0-.77,0,.54.54,0,0,0,0,.76l1.9,1.9a.53.53,0,0,0,.76,0,.54.54,0,0,0,0-.76Z" style="fill:#5905CA"></path></g><g id="freepik--Character--inject-125"><path d="M178.24,183.94s3.27,3.75,2.78,5.06a15.07,15.07,0,0,0-.49,3.92s4.24,2.29,4.24,3.43a9.68,9.68,0,0,1-1,3.1s1,6.53.33,8.16-7.68,2.78-7.68,2.78l-2.61,8-15-4.57,2.45-8s-3.75-9.47-4.41-12.57,4.08-9.15,10-10.62A18.4,18.4,0,0,1,178.24,183.94Z" style="fill:#fff;stroke:#263238;stroke-linejoin:round"></path><path d="M173.18,198.8s2.61.16,2.29-1.15-1.31-2-.82-2.61,3.59-2.61,2.61-3.92-3.92-2.28-2.61-3.75,8.82-4.74,8.82-4.74-7.68-3.59-8.82-3.59,4.57-1.79,2.61-3.26-14.53-1.47-19.59,5.22-4.41,10.61-2.45,16.16,5.71,12.09,7.67,12.58,8.49.81,8.82-1.47S173.18,198.8,173.18,198.8Z" style="fill:#263238;stroke:#263238;stroke-linejoin:round"></path><path d="M175.3,200.27s-4.62-5.71-4.9-3.53,1.36,10,4.35,8.15" style="fill:#fff;stroke:#263238;stroke-linejoin:round"></path><path d="M149.67,216.92s3.59,1.14,12.24,2.94,16,3.59,16,3.59-2.28-6.86-4.73-8.16-15.51-3.92-17.14-3.76S149.67,216.92,149.67,216.92Z" style="fill:#fff;stroke:#263238;stroke-linejoin:round"></path><path d="M205,262.47s14.86-13.38,15.67-14.2-1-7.18-1-8.16,3.43-2.62,3.43-2.62.49-2.61,2.12-2.61,4.41,2.12,4.41,2.12l.33,1.8s2.28,5.06,2.28,5.88a7.82,7.82,0,0,1-2.28,4.57c-1.63,1.63-5.39,5.06-5.39,5.06s-13.06,17.63-16,20.08-6.86,5.06-8.33,2.13S205,262.47,205,262.47Z" style="fill:#fff;stroke:#263238;stroke-linejoin:round"></path><polyline points="223.14 237.49 223.63 238.8 222.32 239.78" style="fill:none;stroke:#263238;stroke-linejoin:round"></polyline><path d="M111.14,243.37s-5.72,5.88-5.39,8.33,13.55,29.71,13.55,29.71,1,4.09,1.63,4.41,2.12,2.78,2.12,2.78,0,2.12,2.45-.17,5.88-4.89,5.72-7a6.77,6.77,0,0,0-1.8-3.75s-.81-2-1.63-2.12-4.57-.17-4.57-.17L119,253.17Z" style="fill:#fff;stroke:#263238;stroke-linejoin:round"></path><path d="M124.52,279.29l2.13,1.14s-2.62,3.92-1.64,4.74,3.92-5.06,4.25-5.88-.49-1.63-.49-1.63" style="fill:#fff;stroke:#263238;stroke-linejoin:round"></path><line x1="125.83" y1="280.76" x2="121.58" y2="284.52" style="fill:#fff;stroke:#263238;stroke-linejoin:round"></line><path d="M132.8,363.11l-10.59,9.18a5.25,5.25,0,0,0,2.12,2.59c1.41.71,7.53,6.6,9.41,7.77a22.75,22.75,0,0,0,11.3,3.53c5,0,5.89-1.88,5.89-2.59s-9.65-7.06-9.65-7.06l-2.12-8.47Z" style="fill:#fff;stroke:#263238;stroke-linejoin:round"></path><path d="M124.34,370.45l-2.13,1.84a5.25,5.25,0,0,0,2.12,2.59c1.41.71,7.53,6.6,9.41,7.77a22.75,22.75,0,0,0,11.3,3.53c2.9,0,4.41-.64,5.18-1.32a45.22,45.22,0,0,0-6.49-1.06c-3.24,0-6.81-2.91-6.81-2.91Z" style="fill:#fff;stroke:#263238;stroke-linejoin:round"></path><path d="M129.42,271.45s-2.3,12-.23,15.79a77.83,77.83,0,0,0,5.52,8.28l29.34,37.62L132.3,363.86l7.33,7.49s40-33,42.37-34.41,0-13.12-.69-14.15-14.48-31.2-14.48-31.2l1.29-13.44Z" style="fill:#263238;stroke:#263238;stroke-linejoin:round"></path><path d="M150.7,379.43s7.13,7.94,8.27,8.75,9.23,5.51,9.23,5.51-.16,1.13-.81,1.3-16.69.32-17.82.16S139,390,137.9,389.47a51.63,51.63,0,0,1-4.7-2.91l7.13-11.51Z" style="fill:#fff;stroke:#263238;stroke-linejoin:round"></path><path d="M138.63,293l6.8,4.87,9.73,31.84-16.53,46.68,14.38,4,.93-5.22,2.86-5.48s17.56-38.52,17.8-41.68-7.77-36.46-7.77-36.46l-1.46-14.1-25.29-2.44" style="fill:#263238;stroke:#263238;stroke-linejoin:round"></path><path d="M167.39,395c.65-.17.81-1.3.81-1.3l-1.43-.84c-6.17-.47-16.52-1.27-17.2-1.27s-10.77-5.9-14.46-8.11l-1.91,3.09a51.63,51.63,0,0,0,4.7,2.91c1.13.49,10.53,5.52,11.67,5.68S166.74,395.15,167.39,395Z" style="fill:#fff;stroke:#263238;stroke-linejoin:round"></path><path d="M151.79,216.43s-16.16,1.63-16.33,2.29-21.55,23.83-21.55,23.83l5.72,10.94,13.71-5.87-3.92,23.83s-2.61,1,2.12,3.43,15.68,5.55,23.19,5.55,11.75,0,13.39-2.28a8.07,8.07,0,0,0,1.63-4.9c.16-1.31,7.84-21.23,7.84-21.23s17.14,22,17.79,22.54,3.76,1,6.37-2.13,2.12-10.28,2.12-10.28-9.63-17.47-10.12-19.92-2-10-2.94-11.92-2.28-2.12-4.9-3.43-9.79-3.75-9.79-3.75Z" style="fill:#fff;stroke:#263238;stroke-linejoin:round"></path><polyline points="137.1 223.62 133.34 247.62 134.97 224.92" style="fill:none;stroke:#263238;stroke-linejoin:round"></polyline><line x1="132.85" y1="246.96" x2="128.61" y2="236.51" style="fill:none;stroke:#263238;stroke-linejoin:round"></line><line x1="122.31" y1="240.97" x2="119.79" y2="239.45" style="fill:none;stroke:#263238;stroke-linejoin:round"></line><line x1="133.34" y1="247.62" x2="124.44" y2="242.26" style="fill:none;stroke:#263238;stroke-linejoin:round"></line><line x1="185.23" y1="240.14" x2="189.34" y2="233.74" style="fill:none;stroke:#263238;stroke-linejoin:round"></line><line x1="177.59" y1="252.02" x2="183.93" y2="242.16" style="fill:none;stroke:#263238;stroke-linejoin:round"></line><line x1="189.95" y1="244.16" x2="191.79" y2="243.04" style="fill:none;stroke:#263238;stroke-linejoin:round"></line><line x1="178.57" y1="251.05" x2="187.72" y2="245.51" style="fill:none;stroke:#263238;stroke-linejoin:round"></line><line x1="177.75" y1="250.88" x2="193.75" y2="248.11" style="fill:none;stroke:#263238;stroke-linejoin:round"></line><line x1="131.54" y1="272.11" x2="147.55" y2="268.19" style="fill:none;stroke:#263238;stroke-linejoin:round"></line><path d="M158.46,262.74a24.25,24.25,0,0,0,3-1.41" style="fill:none;stroke:#263238;stroke-linejoin:round"></path><path d="M138.24,268.19A149,149,0,0,0,156,263.67" style="fill:none;stroke:#263238;stroke-linejoin:round"></path><path d="M203.71,261a11.94,11.94,0,0,1-3.43,7,13,13,0,0,1-7,3.91s1.47,5.56,3.27,5.56,4.9,1,7.67-2.78,3.43-10.12,2.61-11.76S205.51,260.51,203.71,261Z" style="fill:#fff;stroke:#263238;stroke-linejoin:round"></path><path d="M116.36,238.8s7.84,14.69,7.18,15-3.42,2.78-4.4,2.94-5.39-4.25-7-8-2.12-5.23-1.63-5.88S115.38,238.8,116.36,238.8Z" style="fill:#fff;stroke:#263238;stroke-linejoin:round"></path></g></svg>