<svg width="77" height="77" viewBox="0 0 77 77" fill="none" xmlns="http://www.w3.org/2000/svg">
<rect width="50" height="50" rx="20" transform="matrix(-0.638487 0.769633 -0.796303 -0.604898 76.7395 30.2449)" fill="#FF87E7"/>
<path d="M35.9874 59.4935C38.1957 59.4935 39.986 61.4504 39.986 63.8645V68.8648L39.9679 69.1357C39.2579 74.4464 34.8941 77 27.5716 77C20.2754 77 15.842 74.4756 14.885 69.226L14.8519 68.8599V63.8645C14.8519 61.4504 16.6422 59.4935 18.8505 59.4935H35.9874ZM37.1159 44.507L50.8393 44.5072C53.0477 44.5072 54.8379 46.4642 54.8379 48.8782V53.8786L54.8199 54.1495C54.1098 59.4601 49.746 62.0137 42.4235 62.0137L42.0391 62.0098C41.3341 59.255 39.0972 57.1996 36.3959 57.01L35.9874 56.9958L33.8802 56.9976C36.2108 54.937 37.7011 51.7856 37.7011 48.2538C37.7011 46.94 37.4949 45.6789 37.1159 44.507ZM3.9986 44.5072L17.722 44.507C17.343 45.6789 17.1368 46.94 17.1368 48.2538C17.1368 51.5779 18.4569 54.565 20.5553 56.6228L20.9577 56.9976L18.8505 56.9958C15.9665 56.9958 13.5363 59.1197 12.7975 62.0147L12.7196 62.0137C5.4235 62.0137 0.990056 59.4893 0.033046 54.2397L0 53.8736V48.8782C0 46.4642 1.79023 44.5072 3.9986 44.5072ZM27.4189 39.5118C31.8357 39.5118 35.4161 43.4257 35.4161 48.2538C35.4161 53.0818 31.8357 56.9958 27.4189 56.9958C23.0022 56.9958 19.4218 53.0818 19.4218 48.2538C19.4218 43.4257 23.0022 39.5118 27.4189 39.5118ZM42.2709 24.5255C46.6876 24.5255 50.2681 28.4394 50.2681 33.2675C50.2681 38.0956 46.6876 42.0095 42.2709 42.0095C37.8542 42.0095 34.2737 38.0956 34.2737 33.2675C34.2737 28.4394 37.8542 24.5255 42.2709 24.5255ZM12.567 24.5255C16.9837 24.5255 20.5642 28.4394 20.5642 33.2675C20.5642 38.0956 16.9837 42.0095 12.567 42.0095C8.15029 42.0095 4.56982 38.0956 4.56982 33.2675C4.56982 28.4394 8.15029 24.5255 12.567 24.5255Z" fill="#3D3D63"/>
</svg>
