<svg width="92" height="93" viewBox="0 0 92 93" fill="none" xmlns="http://www.w3.org/2000/svg">
<g clip-path="url(#clip0_32_17)">
<path d="M7.17364 50.1542C3.76404 45.8095 4.52208 39.5233 8.86678 36.1137L42.955 9.36223C44.9418 7.80301 47.4559 7.02385 49.961 7.34519C66.3646 9.4493 70.7196 15.6236 80.5892 32.9348C85.6918 41.8846 86.4068 46.9564 86.4238 53.5456C86.4317 56.5653 84.9905 59.4036 82.615 61.2679L49.1915 87.4977C44.8468 90.9073 38.5607 90.1493 35.1511 85.8045L7.17364 50.1542Z" fill="#CF83FC"/>
<path d="M31.6145 30.9289C31.9132 30.8436 32.1905 30.7796 32.4465 30.7369C32.7025 30.6516 32.9585 30.5876 33.2145 30.5449C33.5132 30.4596 33.8758 30.4169 34.3025 30.4169C34.7718 30.3742 35.1985 30.3956 35.5825 30.4809C36.0092 30.5236 36.3932 30.6516 36.7345 30.8649C37.1185 31.0356 37.3958 31.3129 37.5665 31.6969C37.7372 32.1236 37.8438 32.6356 37.8865 33.2329C37.9718 33.7876 38.0145 34.3636 38.0145 34.9609C38.0145 35.5582 37.9932 36.1556 37.9505 36.7529C37.9505 37.3076 37.9505 37.8196 37.9505 38.2889V70.9929C37.9505 71.4623 37.9505 71.9529 37.9505 72.4649C37.9932 72.9343 37.9932 73.4249 37.9505 73.9369C37.9078 74.4489 37.7798 74.9396 37.5665 75.4089C37.3532 75.8356 37.0332 76.1983 36.6065 76.4969C36.0092 76.9663 35.1985 77.2009 34.1745 77.2009C33.1932 77.2436 32.3398 77.1369 31.6145 76.8809C30.8465 76.6249 30.3772 76.1343 30.2065 75.4089C30.0785 74.6836 30.0145 73.9583 30.0145 73.2329C29.7158 67.6009 29.5665 62.0969 29.5665 56.7209C29.6092 51.3022 29.6305 45.7342 29.6305 40.0169C29.5452 40.2302 29.2465 40.4222 28.7345 40.5929C28.2652 40.7636 27.7105 40.9129 27.0705 41.0409C26.4732 41.1689 25.8972 41.2756 25.3425 41.3609C24.7878 41.4462 24.4252 41.4889 24.2545 41.4889C23.1452 41.6169 22.1212 41.5102 21.1825 41.1689C20.2865 40.7849 19.7745 39.9316 19.6465 38.6089C19.4758 37.2436 19.7745 36.1769 20.5425 35.4089C21.3532 34.6409 22.3772 34.0649 23.6145 33.6809C24.9798 33.2116 26.3025 32.7422 27.5825 32.2729C28.9052 31.7609 30.2492 31.3129 31.6145 30.9289ZM55.047 77.1369C55.047 78.2463 54.6417 79.1849 53.831 79.9529C53.063 80.7636 52.1243 81.1689 51.015 81.1689C49.9057 81.1689 48.9457 80.7636 48.135 79.9529C47.367 79.1849 46.983 78.2463 46.983 77.1369C46.983 76.0276 47.367 75.0676 48.135 74.2569C48.9457 73.4463 49.9057 73.0409 51.015 73.0409C52.1243 73.0409 53.063 73.4463 53.831 74.2569C54.6417 75.0676 55.047 76.0276 55.047 77.1369Z" fill="black"/>
</g>
<defs>
<clipPath id="clip0_32_17">
<rect width="92" height="93" fill="white"/>
</clipPath>
</defs>
</svg>
