<svg width="116" height="116" viewBox="0 0 116 116" fill="none" xmlns="http://www.w3.org/2000/svg">
<g clip-path="url(#clip0_32_25)">
<path d="M14.1737 55.6975C11.521 50.6007 13.6988 44.3221 18.9377 41.9626L45.5 30L69.7926 15.5092C74.7313 12.5632 81.131 14.3794 83.786 19.4804L109.968 69.7851C111.9 73.4969 111.317 78.0191 108.506 81.1191L100.643 89.7912C100.215 90.2627 99.7437 90.6922 99.2346 91.0741L92 96.5L84.3161 101.472C83.7733 101.823 83.1977 102.121 82.5975 102.361L73.5 106L63 109L50.7236 111.016C46.4594 111.716 42.2278 109.598 40.2327 105.765L14.1737 55.6975Z" fill="#75FFC9"/>
<ellipse cx="45.1949" cy="31.7448" rx="37.2952" ry="7" transform="rotate(-28.1066 45.1949 31.7448)" fill="#6CF1BD"/>
<path d="M25.112 65.832C24.472 66.8133 23.704 67.4107 22.808 67.624C21.9547 67.8373 21.1227 67.7733 20.312 67.432C19.5013 67.0907 18.8187 66.536 18.264 65.768C17.752 64.9573 17.5387 64.04 17.624 63.016C17.6667 62.3333 17.8373 61.5867 18.136 60.776C18.4347 59.9653 18.7973 59.1973 19.224 58.472C19.6933 57.704 20.184 57 20.696 56.36C21.2507 55.6773 21.8053 55.1013 22.36 54.632C23.384 53.8213 24.536 53.1173 25.816 52.52C27.1387 51.9227 28.504 51.4747 29.912 51.176C31.3627 50.8773 32.792 50.7493 34.2 50.792C35.6507 50.8347 36.9947 51.048 38.232 51.432C41.6453 52.4987 44.2907 54.184 46.168 56.488C48.0453 58.792 48.984 61.7787 48.984 65.448C48.984 67.1973 48.8133 68.776 48.472 70.184C48.1733 71.5493 47.6187 72.872 46.808 74.152C46.04 75.432 44.9947 76.7333 43.672 78.056C42.392 79.3787 40.792 80.8293 38.872 82.408C38.232 82.9627 37.5707 83.5173 36.888 84.072C36.2053 84.6267 35.5227 85.1813 34.84 85.736C34.6267 85.9067 34.2213 86.1627 33.624 86.504C33.0267 86.8453 32.4933 87.1867 32.024 87.528C31.5547 87.8693 31.2773 88.1893 31.192 88.488C31.1067 88.7867 31.448 88.9573 32.216 89C33.1547 89.0853 33.9013 89.1067 34.456 89.064C35.0107 89.0213 35.7573 89 36.696 89C37.8053 89 38.8933 88.9787 39.96 88.936C41.0267 88.8933 42.0933 88.9147 43.16 89C43.5867 89.0427 44.056 89.064 44.568 89.064C45.08 89.0213 45.592 89.0213 46.104 89.064C46.616 89.064 47.1067 89.128 47.576 89.256C48.0453 89.3413 48.4507 89.5333 48.792 89.832C49.1333 90.1307 49.3893 90.536 49.56 91.048C49.7307 91.56 49.816 92.1147 49.816 92.712C49.8587 93.2667 49.816 93.8213 49.688 94.376C49.56 94.888 49.3467 95.2933 49.048 95.592C48.4933 96.232 47.8107 96.552 47 96.552C46.1893 96.5093 45.4213 96.488 44.696 96.488H21.72C21.2933 96.488 20.824 96.5093 20.312 96.552C19.8427 96.5947 19.416 96.552 19.032 96.424C18.264 96.2107 17.88 95.8053 17.88 95.208C17.9227 94.6107 17.944 93.992 17.944 93.352C17.944 92.2853 18.2 91.304 18.712 90.408C19.224 89.4693 19.864 88.616 20.632 87.848C21.4427 87.0373 22.296 86.2907 23.192 85.608C24.088 84.9253 24.92 84.264 25.688 83.624C26.7973 82.6427 27.992 81.6613 29.272 80.68C30.552 79.6987 31.768 78.7173 32.92 77.736C34.4133 76.4987 35.672 75.368 36.696 74.344C37.7627 73.32 38.616 72.36 39.256 71.464C39.896 70.568 40.3653 69.6933 40.664 68.84C40.9627 67.944 41.112 67.0053 41.112 66.024C41.112 63.848 40.4507 62.184 39.128 61.032C37.8053 59.8373 36.12 59.24 34.072 59.24C32.5787 59.24 31.1707 59.56 29.848 60.2C28.568 60.84 27.5013 61.7787 26.648 63.016C26.392 63.4853 26.136 63.976 25.88 64.488C25.6667 64.9573 25.4107 65.4053 25.112 65.832ZM62.8695 97C62.8695 98.1093 62.4642 99.048 61.6535 99.816C60.8855 100.627 59.9468 101.032 58.8375 101.032C57.7282 101.032 56.7682 100.627 55.9575 99.816C55.1895 99.048 54.8055 98.1093 54.8055 97C54.8055 95.8907 55.1895 94.9307 55.9575 94.12C56.7682 93.3093 57.7282 92.904 58.8375 92.904C59.9468 92.904 60.8855 93.3093 61.6535 94.12C62.4642 94.9307 62.8695 95.8907 62.8695 97Z" fill="black"/>
</g>
<defs>
<clipPath id="clip0_32_25">
<rect width="116" height="116" fill="white"/>
</clipPath>
</defs>
</svg>
