<svg width="116" height="116" viewBox="0 0 116 116" fill="none" xmlns="http://www.w3.org/2000/svg">
<g clip-path="url(#clip0_32_25)">
<path d="M4.90842 74.0025C0.616634 70.176 0.428058 63.5271 4.49607 59.4635L25.7627 38.2199L43.8716 15.3209C47.4413 10.807 54.0747 10.23 58.3702 14.0598L103.087 53.9286C106.194 56.6986 107.26 61.1035 105.763 64.9877L101.362 76.4128C101.129 77.0162 100.839 77.5956 100.495 78.1429L95.5591 85.9882L90.0211 93.552C89.6321 94.0833 89.1916 94.5749 88.7059 95.0196L81.3042 101.797L72.3147 108.454L61.0474 114.906C57.3149 117.043 52.6339 116.554 49.4236 113.692L4.90842 74.0025Z" fill="#FFF53A"/>
<path d="M31.648 57.896C31.0933 57.384 30.816 56.616 30.816 55.592C30.8587 55.1227 30.944 54.6747 31.072 54.248C31.2 53.7787 31.4347 53.3733 31.776 53.032C32.7147 52.1787 33.7173 51.688 34.784 51.56C35.8507 51.432 37.0027 51.3253 38.24 51.24C39.2213 51.1973 40.096 51.1973 40.864 51.24C41.632 51.24 42.5067 51.24 43.488 51.24C44.9813 51.24 46.6027 51.2613 48.352 51.304C50.144 51.3467 51.8293 51.4107 53.408 51.496C54.048 51.5387 54.688 51.624 55.328 51.752C55.968 51.88 56.544 52.1147 57.056 52.456C57.568 52.7547 57.9733 53.16 58.272 53.672C58.6133 54.1413 58.8053 54.7387 58.848 55.464C58.8907 56.3173 58.7627 57.128 58.464 57.896C58.208 58.664 57.8453 59.4107 57.376 60.136C56.9067 60.8187 56.3733 61.48 55.776 62.12C55.2213 62.7173 54.688 63.272 54.176 63.784C53.2373 64.7653 52.1707 65.8107 50.976 66.92C49.7813 68.0293 48.7147 69.0747 47.776 70.056C49.44 70.2693 51.04 70.6533 52.576 71.208C54.1547 71.7627 55.5413 72.5307 56.736 73.512C57.9307 74.4933 58.8693 75.7307 59.552 77.224C60.2773 78.6747 60.64 80.424 60.64 82.472C60.64 84.52 60.2347 86.4187 59.424 88.168C58.656 89.9173 57.568 91.4533 56.16 92.776C54.752 94.056 53.088 95.0587 51.168 95.784C49.248 96.5093 47.136 96.872 44.832 96.872C43.8507 96.872 42.784 96.7867 41.632 96.616C40.5227 96.4453 39.4133 96.1893 38.304 95.848C37.1947 95.5067 36.128 95.08 35.104 94.568C34.1227 94.0133 33.2693 93.352 32.544 92.584C32.032 92.072 31.584 91.4747 31.2 90.792C30.8587 90.0667 30.6453 89.3413 30.56 88.616C30.5173 87.848 30.6667 87.1653 31.008 86.568C31.3493 85.928 31.9467 85.4587 32.8 85.16C33.44 84.9467 34.0587 84.8613 34.656 84.904C35.2533 84.9467 35.8293 85.096 36.384 85.352C36.9387 85.5653 37.472 85.8213 37.984 86.12C38.5387 86.4187 39.072 86.7173 39.584 87.016C41.1627 87.9973 42.8053 88.5733 44.512 88.744C46.2613 88.9147 47.968 88.5093 49.632 87.528C50.5707 86.9733 51.2533 86.2907 51.68 85.48C52.1067 84.6267 52.2773 83.7733 52.192 82.92C52.1493 82.0667 51.872 81.256 51.36 80.488C50.8907 79.72 50.2293 79.08 49.376 78.568C48.5653 78.0987 47.6693 77.7787 46.688 77.608C45.7067 77.4373 44.7253 77.2667 43.744 77.096C42.7627 76.9253 41.824 76.6907 40.928 76.392C40.032 76.0933 39.264 75.5813 38.624 74.856C37.8987 74.0453 37.664 73.1707 37.92 72.232C38.176 71.2933 38.6453 70.376 39.328 69.48C40.0533 68.584 40.8427 67.7307 41.696 66.92C42.592 66.1093 43.296 65.4267 43.808 64.872C44.1067 64.5733 44.448 64.2107 44.832 63.784C45.2587 63.3573 45.6427 62.9307 45.984 62.504C46.368 62.0773 46.688 61.672 46.944 61.288C47.2427 60.8613 47.4347 60.4773 47.52 60.136C47.648 59.7947 47.584 59.56 47.328 59.432C47.072 59.2613 46.752 59.176 46.368 59.176C45.984 59.1333 45.5573 59.1333 45.088 59.176C44.6613 59.176 44.32 59.176 44.064 59.176H39.776C39.1787 59.176 38.5173 59.1973 37.792 59.24C37.0667 59.24 36.32 59.2187 35.552 59.176C34.8267 59.0907 34.1013 58.9627 33.376 58.792C32.6933 58.6213 32.1173 58.3227 31.648 57.896ZM73.6195 97C73.6195 98.1093 73.2142 99.048 72.4035 99.816C71.6355 100.627 70.6968 101.032 69.5875 101.032C68.4782 101.032 67.5182 100.627 66.7075 99.816C65.9395 99.048 65.5555 98.1093 65.5555 97C65.5555 95.8907 65.9395 94.9307 66.7075 94.12C67.5182 93.3093 68.4782 92.904 69.5875 92.904C70.6968 92.904 71.6355 93.3093 72.4035 94.12C73.2142 94.9307 73.6195 95.8907 73.6195 97Z" fill="black"/>
</g>
<defs>
<clipPath id="clip0_32_25">
<rect width="116" height="116" fill="white"/>
</clipPath>
</defs>
</svg>
