<svg width="104" height="110" viewBox="0 0 104 110" fill="none" xmlns="http://www.w3.org/2000/svg">
<g clip-path="url(#clip0_32_25)">
<path d="M40.8575 16.2565C43.6281 12.3492 48.7803 10.9552 53.1431 12.9326L74.3437 22.5415L93.6032 33.5956C98.2656 36.2716 99.978 42.1549 97.4802 46.9151L70.1633 98.9729C67.8229 103.433 62.5308 105.456 57.812 103.695L55.7785 102.936L46.3546 100.062L37.9436 96.8466C37.3407 96.6161 36.7615 96.3278 36.2141 95.9857L28.0385 90.8756L18.9181 86.0633C18.2807 85.727 17.6816 85.3228 17.1312 84.8577L8.56659 77.622C4.59833 74.2694 3.85797 68.4367 6.86279 64.199L40.8575 16.2565Z" fill="#B2A8F3"/>
<path d="M34.44 37.328C34.7387 37.7973 34.9307 38.3947 35.016 39.12C35.2293 40.6133 35.3147 42.1493 35.272 43.728C35.272 45.264 35.2933 46.7787 35.336 48.272C35.336 50.0213 35.336 51.7493 35.336 53.456C35.3787 55.1627 35.4 56.8907 35.4 58.64V64.08H38.152C38.6213 64.08 39.112 64.144 39.624 64.272C40.136 64.3573 40.6053 64.528 41.032 64.784C41.4587 65.04 41.8213 65.36 42.12 65.744C42.4187 66.128 42.5893 66.5973 42.632 67.152C42.632 68.5173 42.2053 69.456 41.352 69.968C40.4987 70.4373 39.4747 70.7147 38.28 70.8C38.1947 70.8 38.0027 70.8213 37.704 70.864C37.448 70.864 37.1493 70.864 36.808 70.864C36.4667 70.864 36.1467 70.864 35.848 70.864C35.592 70.864 35.4427 70.8213 35.4 70.736V75.088C35.4 75.5573 35.4 76.0907 35.4 76.688C35.4 77.2853 35.3573 77.8827 35.272 78.48C35.1867 79.0347 35.016 79.568 34.76 80.08C34.5467 80.592 34.2053 80.9973 33.736 81.296C33.5227 81.424 33.2453 81.5307 32.904 81.616C32.6053 81.6587 32.264 81.7013 31.88 81.744C31.496 81.7867 31.112 81.808 30.728 81.808C30.3867 81.7653 30.088 81.7013 29.832 81.616C29.064 81.36 28.5733 80.8267 28.36 80.016C28.1467 79.1627 27.9973 78.3733 27.912 77.648C27.912 77.52 27.912 77.1147 27.912 76.432C27.912 75.7067 27.912 74.96 27.912 74.192C27.912 73.3813 27.8907 72.656 27.848 72.016C27.8053 71.376 27.7413 71.056 27.656 71.056H16.392C15.1547 71.056 13.8533 71.0347 12.488 70.992C11.1227 70.9493 9.94933 70.5653 8.968 69.84C8.2 69.2853 7.752 68.6667 7.624 67.984C7.496 67.2587 7.53867 66.5547 7.752 65.872C8.008 65.1467 8.37067 64.4427 8.84 63.76C9.30933 63.0773 9.75733 62.4587 10.184 61.904C11.8053 59.728 13.3627 57.5093 14.856 55.248C16.392 52.9867 17.928 50.7467 19.464 48.528C20.3173 47.376 21.192 46.2667 22.088 45.2C23.0267 44.1333 23.9013 43.024 24.712 41.872C25.3093 40.976 25.9493 40.0587 26.632 39.12C27.3573 38.1813 28.2533 37.456 29.32 36.944C30.344 36.4747 31.3253 36.24 32.264 36.24C33.2027 36.24 33.928 36.6027 34.44 37.328ZM28.104 48.848L17.48 63.824H28.104V48.848ZM55.6195 82C55.6195 83.1093 55.2142 84.048 54.4035 84.816C53.6355 85.6267 52.6968 86.032 51.5875 86.032C50.4782 86.032 49.5182 85.6267 48.7075 84.816C47.9395 84.048 47.5555 83.1093 47.5555 82C47.5555 80.8907 47.9395 79.9307 48.7075 79.12C49.5182 78.3093 50.4782 77.904 51.5875 77.904C52.6968 77.904 53.6355 78.3093 54.4035 79.12C55.2142 79.9307 55.6195 80.8907 55.6195 82Z" fill="black"/>
</g>
<defs>
<clipPath id="clip0_32_25">
<rect width="104" height="110" fill="white"/>
</clipPath>
</defs>
</svg>
