<svg width="458" height="458" viewBox="0 0 458 458" fill="none" xmlns="http://www.w3.org/2000/svg">
<path d="M269.533 147.742C308.39 154.685 340.23 148.85 370.98 185.032C400.072 219.208 395.959 250.929 372.345 279.206C310.652 353.072 233.644 267.142 146.67 257.222C70.8984 248.538 37.0339 125.492 97.0044 78.9226C116.332 63.9185 155.72 48.9877 181.78 66.5291C218.283 91.1145 216.176 138.197 269.533 147.742Z" fill="#A3F4D3"/>
<path opacity="0.9" d="M269.533 147.742C308.39 154.685 340.23 148.85 370.98 185.032C400.072 219.208 395.959 250.929 372.345 279.206C310.652 353.072 233.644 267.142 146.67 257.222C70.8984 248.538 37.0339 125.492 97.0044 78.9226C116.332 63.9185 155.72 48.9877 181.78 66.5291C218.283 91.1145 216.176 138.197 269.533 147.742Z" fill="white"/>
<path d="M229 391.645C327.088 391.645 406.603 387.003 406.603 381.276C406.603 375.549 327.088 370.907 229 370.907C130.912 370.907 51.3968 375.549 51.3968 381.276C51.3968 387.003 130.912 391.645 229 391.645Z" fill="#F5F5F5"/>
<path d="M359.068 359.559L358.384 364.476L359.291 364.602L359.975 359.685L359.068 359.559Z" fill="#A3F4D3"/>
<path d="M362.725 333.181L359.923 353.323L360.831 353.449L363.633 333.308L362.725 333.181Z" fill="#A3F4D3"/>
<path d="M361.82 323.22H306.677L312.356 364.147C312.98 368.652 315.213 372.779 318.642 375.766C322.072 378.753 326.467 380.397 331.015 380.396H337.482C342.03 380.397 346.425 378.753 349.854 375.766C353.284 372.779 355.517 368.652 356.141 364.147L361.82 323.22Z" fill="#A3F4D3"/>
<path d="M334.203 326.389C349.43 326.389 361.774 324.97 361.774 323.22C361.774 321.469 349.43 320.05 334.203 320.05C318.975 320.05 306.631 321.469 306.631 323.22C306.631 324.97 318.975 326.389 334.203 326.389Z" fill="#263238"/>
<path d="M342.941 306.054C326.6 302.601 332.865 269.899 343.711 245.525C354.703 220.866 361.609 215.782 369.872 216.552C378.326 217.348 368.69 245.094 364.55 262.223C360.409 279.353 361.902 310.066 342.941 306.054Z" fill="#A3F4D3"/>
<path opacity="0.4" d="M342.941 306.054C326.6 302.601 332.865 269.899 343.711 245.525C354.703 220.866 361.609 215.782 369.872 216.552C378.326 217.348 368.69 245.094 364.55 262.223C360.409 279.353 361.902 310.066 342.941 306.054Z" fill="white"/>
<path d="M341.668 324.117C341.564 324.117 341.463 324.076 341.39 324.002C341.316 323.928 341.274 323.828 341.274 323.724C341.448 294.622 348.602 251.918 361.426 230.118C361.48 230.025 361.568 229.958 361.671 229.931C361.774 229.903 361.883 229.918 361.976 229.971C362.064 230.026 362.127 230.113 362.153 230.214C362.179 230.314 362.164 230.421 362.113 230.511C349.335 252.202 342.254 294.723 342.089 323.724C342.088 323.777 342.076 323.83 342.054 323.879C342.032 323.928 342.001 323.973 341.962 324.009C341.922 324.046 341.876 324.074 341.826 324.093C341.775 324.112 341.722 324.12 341.668 324.117Z" fill="#263238"/>
<path d="M341.421 276.632C338.416 278.739 335.274 279.059 333.36 281.102C332.059 292.589 333.735 302.005 340.34 305.202C342.813 302.711 343.308 286.158 341.421 276.632Z" fill="#263238"/>
<path d="M341.265 259.32C340.706 276.943 348.474 306.686 329.091 306.64C312.383 306.64 311.788 273.334 317.449 247.238C323.183 220.857 330.978 208.033 339.222 207.098C342.584 206.723 343.674 212.118 343.738 219.867C338.297 220.316 336.868 221.599 336.868 221.599C339.177 222.009 341.462 222.547 343.711 223.211C343.5 234.67 341.567 249.674 341.265 259.32Z" fill="#A3F4D3"/>
<path d="M320.133 313.382C330.923 309.984 324.603 288.348 315.672 272.62C306.649 256.709 301.675 253.723 296.152 254.785C290.628 255.848 298.808 273.948 302.711 285.233C306.613 296.518 307.602 317.321 320.133 313.382Z" fill="#A3F4D3"/>
<path opacity="0.4" d="M320.133 313.382C330.923 309.984 324.603 288.348 315.672 272.62C306.649 256.709 301.675 253.723 296.152 254.785C290.628 255.848 298.808 273.948 302.711 285.233C306.613 296.518 307.602 317.321 320.133 313.382Z" fill="white"/>
<path d="M322.121 325.611C322.023 325.609 321.929 325.572 321.856 325.506C321.784 325.44 321.738 325.351 321.727 325.253C319.73 305.724 312.2 277.548 302.188 263.808C302.157 263.766 302.134 263.717 302.122 263.666C302.109 263.615 302.107 263.561 302.116 263.509C302.124 263.457 302.143 263.407 302.171 263.363C302.2 263.318 302.237 263.279 302.28 263.249C302.322 263.218 302.369 263.195 302.42 263.183C302.47 263.171 302.523 263.169 302.574 263.177C302.626 263.186 302.675 263.205 302.719 263.233C302.763 263.261 302.8 263.298 302.83 263.341C312.906 277.227 320.508 305.578 322.514 325.208C322.522 325.259 322.519 325.312 322.505 325.362C322.492 325.412 322.468 325.459 322.435 325.499C322.402 325.54 322.362 325.573 322.315 325.597C322.269 325.621 322.218 325.635 322.166 325.638L322.121 325.611Z" fill="#263238"/>
<path d="M331.482 324.594C331.389 324.595 331.299 324.564 331.227 324.505C331.154 324.447 331.105 324.364 331.088 324.273C325.299 295.758 323.522 252.505 331.638 228.524C331.673 228.425 331.746 228.344 331.84 228.298C331.934 228.252 332.042 228.244 332.142 228.276C332.191 228.293 332.237 228.319 332.276 228.353C332.316 228.388 332.348 228.43 332.371 228.476C332.394 228.523 332.407 228.574 332.41 228.626C332.413 228.679 332.406 228.731 332.389 228.78C324.319 252.596 326.096 295.694 331.867 324.117C331.877 324.169 331.878 324.221 331.868 324.273C331.858 324.324 331.838 324.373 331.809 324.416C331.78 324.46 331.743 324.497 331.699 324.526C331.656 324.555 331.607 324.575 331.555 324.585L331.482 324.594Z" fill="#263238"/>
<path d="M353.741 249.015C353.672 249.013 353.604 248.995 353.543 248.961C353.483 248.928 353.431 248.88 353.393 248.822C353.341 248.73 353.327 248.622 353.352 248.52C353.378 248.418 353.441 248.329 353.53 248.273C357.561 245.873 363.368 245.671 363.606 245.662C363.702 245.677 363.788 245.725 363.851 245.798C363.914 245.871 363.949 245.964 363.949 246.061C363.949 246.157 363.914 246.25 363.851 246.323C363.788 246.396 363.702 246.444 363.606 246.459C363.551 246.459 357.762 246.66 353.915 248.96C353.862 248.99 353.802 249.009 353.741 249.015Z" fill="#263238"/>
<path d="M347.64 271.631C347.557 271.629 347.476 271.602 347.409 271.553C347.342 271.504 347.291 271.435 347.265 271.356C346.328 268.65 345.713 265.843 345.433 262.993C345.43 262.941 345.438 262.889 345.456 262.841C345.473 262.792 345.5 262.747 345.535 262.709C345.57 262.67 345.612 262.639 345.659 262.617C345.706 262.595 345.757 262.583 345.808 262.581C345.86 262.577 345.913 262.584 345.962 262.601C346.011 262.618 346.056 262.645 346.095 262.68C346.134 262.715 346.165 262.758 346.186 262.805C346.208 262.853 346.219 262.904 346.221 262.956C346.521 265.731 347.136 268.463 348.053 271.099C348.085 271.199 348.077 271.307 348.031 271.401C347.985 271.495 347.904 271.568 347.805 271.603L347.64 271.631Z" fill="#263238"/>
<path d="M102.995 135.128H100.073V379.022H102.995V135.128Z" fill="#A3F4D3"/>
<path d="M100.165 217.156C99.6479 217.154 99.153 216.947 98.7876 216.582C98.4223 216.217 98.2159 215.722 98.2135 215.205C98.2135 214.688 98.4191 214.191 98.785 213.825C99.1509 213.46 99.6471 213.254 100.165 213.254C100.422 213.253 100.676 213.302 100.914 213.4C101.152 213.497 101.368 213.641 101.55 213.822C101.732 214.003 101.877 214.219 101.975 214.456C102.074 214.694 102.125 214.948 102.125 215.205C102.122 215.723 101.915 216.22 101.547 216.585C101.18 216.951 100.683 217.156 100.165 217.156Z" fill="#A3F4D3"/>
<path d="M112.769 380.396H90.281C90.281 379.668 90.5705 378.969 91.0858 378.453C91.6012 377.938 92.3001 377.648 93.029 377.648H110.012C110.74 377.648 111.439 377.938 111.955 378.453C112.47 378.969 112.76 379.668 112.76 380.396H112.769Z" fill="#A3F4D3"/>
<path d="M122.515 189.859H80.5439C80.0169 189.853 79.4975 189.733 79.0211 189.508C78.5447 189.282 78.1225 188.957 77.7834 188.553C77.4443 188.15 77.1962 187.678 77.0561 187.17C76.916 186.662 76.8871 186.129 76.9715 185.609L84.8674 139.992C85.0191 139.151 85.4602 138.389 86.1142 137.839C86.7683 137.289 87.5942 136.984 88.449 136.979H114.61C115.463 136.986 116.287 137.292 116.939 137.842C117.591 138.392 118.031 139.153 118.182 139.992L126.087 185.609C126.172 186.129 126.143 186.662 126.003 187.17C125.863 187.678 125.615 188.15 125.275 188.553C124.936 188.957 124.514 189.282 124.038 189.508C123.561 189.733 123.042 189.853 122.515 189.859Z" fill="#A3F4D3"/>
<path opacity="0.6" d="M122.515 189.859H80.5439C80.0169 189.853 79.4975 189.733 79.0211 189.508C78.5447 189.282 78.1225 188.957 77.7834 188.553C77.4443 188.15 77.1962 187.678 77.0561 187.17C76.916 186.662 76.8871 186.129 76.9715 185.609L84.8674 139.992C85.0191 139.151 85.4602 138.389 86.1142 137.839C86.7683 137.289 87.5942 136.984 88.449 136.979H114.61C115.463 136.986 116.287 137.292 116.939 137.842C117.591 138.392 118.031 139.153 118.182 139.992L126.087 185.609C126.172 186.129 126.143 186.662 126.003 187.17C125.863 187.678 125.615 188.15 125.275 188.553C124.936 188.957 124.514 189.282 124.038 189.508C123.561 189.733 123.042 189.853 122.515 189.859Z" fill="white"/>
<path d="M235.522 60.1079L236.832 59.1003C237.396 58.67 238.101 58.4678 238.807 58.534C239.513 58.6002 240.168 58.9299 240.642 59.4576L242.905 61.9674C243.285 62.3927 243.528 62.9228 243.601 63.4883C243.675 64.0539 243.576 64.6284 243.317 65.1368L242.74 66.3459C242.346 67.1112 241.771 67.769 241.066 68.2622C240.36 68.7554 239.545 69.0692 238.691 69.1763L235.027 69.6435C234.072 69.7653 233.102 69.6704 232.189 69.3659C231.275 69.0615 230.442 68.5552 229.751 67.8848L228.89 67.0604C230.548 63.0941 235.522 60.1079 235.522 60.1079Z" fill="#FFC3BD"/>
<path d="M192.488 119.236L192.552 117.981L192.626 116.836C192.69 116.085 192.772 115.334 192.855 114.592C193.02 113.108 193.249 111.642 193.496 110.167C194.006 107.228 194.678 104.32 195.511 101.456C196.344 98.5506 197.373 95.7046 198.589 92.9374C199.811 90.0976 201.272 87.3672 202.958 84.7758C203.516 83.9274 204.144 83.1277 204.836 82.385C205.422 81.7347 205.999 81.1851 206.576 80.6446C207.712 79.5912 208.848 78.6294 209.975 77.7043C212.237 75.8723 214.555 74.1777 216.863 72.5289C221.483 69.2724 226.264 66.2518 231.189 63.4788C231.863 63.1015 232.651 62.9821 233.406 63.1431C234.161 63.3041 234.831 63.7343 235.292 64.3535C235.753 64.9727 235.973 65.7386 235.911 66.5081C235.849 67.2775 235.509 67.9981 234.954 68.5351C230.988 72.3823 226.902 76.1471 222.954 79.9118C220.976 81.7438 219.034 83.6949 217.174 85.5727C216.258 86.4887 215.342 87.4597 214.555 88.3848C214.17 88.8428 213.785 89.3008 213.474 89.713C213.238 89.9985 213.03 90.3051 212.851 90.629C210.583 95.0962 208.86 99.8201 207.721 104.699C207.117 107.181 206.604 109.709 206.192 112.256C205.981 113.529 205.807 114.802 205.642 116.076L205.422 117.981L205.321 118.897L205.248 119.73V120.051C205.089 121.705 204.289 123.232 203.019 124.304C201.75 125.377 200.111 125.91 198.453 125.791C196.795 125.671 195.25 124.908 194.147 123.664C193.045 122.421 192.472 120.795 192.552 119.135L192.488 119.236Z" fill="#FFC3BD"/>
<path d="M249.289 88.852C264.935 102.052 244.297 114.317 258.852 128.451C273.408 142.585 284.308 152.77 272.373 166.987C262.764 178.428 234.414 184.217 213.446 165.631C192.479 147.045 225.061 133.773 210.011 122.671C194.961 111.569 214.042 86.8643 219.538 84.6476C219.116 72.6296 244.132 70.9992 249.289 88.852Z" fill="#263238"/>
<path d="M286.397 163.863C286.33 163.876 286.262 163.876 286.195 163.863C276.595 159.283 274.992 152.074 273.444 145.085C271.97 138.444 270.458 131.574 262.315 126.362C250.324 118.686 252.789 111.651 254.987 105.441C257.048 99.5509 258.834 94.4488 248.648 89.4016C248.538 89.3465 248.454 89.2501 248.415 89.1335C248.375 89.0169 248.383 88.8893 248.438 88.7787C248.496 88.6696 248.594 88.587 248.712 88.5478C248.829 88.5087 248.957 88.5159 249.07 88.568C259.988 93.9999 257.991 99.7066 255.875 105.752C253.759 111.798 251.479 118.292 262.846 125.574C271.31 130.997 272.876 138.05 274.388 144.884C275.954 151.964 277.438 158.624 286.626 163.011C286.737 163.065 286.823 163.16 286.864 163.277C286.906 163.394 286.899 163.522 286.845 163.634C286.801 163.712 286.735 163.775 286.655 163.816C286.576 163.857 286.486 163.873 286.397 163.863Z" fill="#263238"/>
<path d="M177.411 161.756C177.411 161.756 164.395 201.85 156.92 230.557C156.004 234.086 155.554 237.72 155.583 241.366C155.867 270.898 156.499 329.687 156.499 329.687L163.524 330.649C163.524 330.649 180.782 266.529 176.504 242.456C200.87 199.047 208.161 176.678 208.161 176.678L177.411 161.756Z" fill="#263238"/>
<path opacity="0.2" d="M188.888 195.383L195.63 205.908C192.864 211.691 189.523 218.307 185.609 225.757C186.113 217.022 185.31 208.26 183.227 199.761L188.888 195.383Z" fill="black"/>
<path d="M181.826 185.948C178.657 191.911 180.067 198.68 183.191 204.662C189.163 216.084 202.949 235.119 209.691 252.798C215.416 267.82 275.176 295.19 281.826 300.704L286.708 295.868C286.708 295.868 246.404 249.546 229.412 246.624C224.475 188.797 207.355 173.426 207.355 173.426C195.364 171.237 187.148 175.945 181.826 185.948Z" fill="#263238"/>
<path d="M290.07 294.815C287.935 294.283 286.067 292.451 282.513 289.319C282.372 289.189 282.202 289.096 282.017 289.048C281.833 288.999 281.639 288.996 281.453 289.04C281.267 289.083 281.095 289.171 280.95 289.296C280.806 289.422 280.695 289.58 280.626 289.758C279.649 292.415 278.422 294.973 276.962 297.398C276.793 297.641 276.722 297.939 276.763 298.233C276.803 298.526 276.953 298.794 277.182 298.982C285.581 305.889 284.51 307.318 284.876 310.24C285.362 313.831 283.759 320.481 286.342 319.84C290.006 318.924 292.177 314.27 291.92 310.524C291.7 307.327 292.003 303.489 292.973 301.098C293.816 299.074 293.12 295.584 290.07 294.815Z" fill="#A3F4D3"/>
<path d="M166.254 333.671C165.338 331.519 165.338 329.769 167.958 321.965C168.015 321.803 168.036 321.63 168.019 321.458C168.003 321.287 167.949 321.122 167.862 320.973C167.774 320.825 167.656 320.698 167.514 320.6C167.373 320.502 167.211 320.437 167.042 320.408C164.449 320.041 158.935 319.345 156.05 319.62C155.893 319.632 155.74 319.676 155.6 319.749C155.46 319.822 155.336 319.921 155.235 320.043C155.135 320.164 155.059 320.304 155.013 320.455C154.968 320.605 154.952 320.764 154.969 320.921C155.546 326.792 152.395 336.813 145.442 341.476C142.475 343.463 144.481 345.14 147.082 344.737C151.332 344.141 154.172 341.879 157.424 340.157C159.494 339.048 161.738 339.405 164.156 338.618C164.653 338.478 165.111 338.228 165.498 337.887C165.885 337.546 166.19 337.122 166.392 336.648C166.593 336.173 166.685 335.659 166.661 335.144C166.638 334.629 166.498 334.125 166.254 333.671Z" fill="#A3F4D3"/>
<path d="M191.233 121.333C189.832 124.585 181.221 129.513 185.362 136.795C182.971 143.592 180.782 150.371 177.411 161.756L209.819 177.484C212.915 167.701 218.246 157.442 232.508 139.012C233.287 138.002 233.845 136.839 234.145 135.599C234.445 134.359 234.482 133.07 234.252 131.815C234.022 130.56 233.532 129.368 232.811 128.315C232.091 127.262 231.158 126.372 230.072 125.703C228.844 124.942 227.525 124.164 226.151 123.422C221.425 120.694 216.509 118.309 211.44 116.286C209.782 115.654 208.042 115.059 206.366 114.518C203.447 113.578 200.284 113.754 197.488 115.013C194.692 116.272 192.463 118.525 191.233 121.333Z" fill="#A3F4D3"/>
<path d="M211.44 116.25C207.611 114.619 204.35 108.354 205.889 103.233C200.613 103.572 194.394 106.897 192.223 111.734C191.362 116.68 191.307 126.518 191.307 126.518L211.44 116.25Z" fill="#A3F4D3"/>
<path d="M304.57 129.834L305.898 128.854C306.466 128.429 306.854 127.805 306.983 127.107C307.112 126.41 306.973 125.689 306.594 125.089L304.762 122.231C304.458 121.747 304.014 121.367 303.489 121.142C302.964 120.916 302.382 120.855 301.822 120.967L300.494 121.223C299.649 121.393 298.859 121.766 298.192 122.31C297.525 122.855 297 123.554 296.665 124.347L295.218 127.727C294.84 128.612 294.666 129.57 294.709 130.531C294.752 131.492 295.01 132.431 295.465 133.278L296.033 134.331C300.338 133.8 304.57 129.834 304.57 129.834Z" fill="#FFC3BD"/>
<path d="M229 127.681L246.148 129.513C248.996 129.797 251.845 130.109 254.666 130.356L258.871 130.686C260.236 130.786 261.738 130.869 262.672 130.86C265.209 130.75 268.168 130.493 270.962 130.191L279.572 129.275C285.343 128.661 291.16 128.048 296.976 127.608C297.752 127.548 298.523 127.774 299.143 128.244C299.763 128.714 300.189 129.396 300.34 130.159C300.491 130.922 300.357 131.714 299.964 132.385C299.57 133.056 298.944 133.56 298.204 133.8C292.58 135.632 286.928 137.189 281.212 138.609C278.354 139.324 275.478 139.983 272.565 140.606C269.652 141.229 266.776 141.806 263.506 142.191C261.518 142.374 260.107 142.383 258.559 142.411C257.011 142.438 255.518 142.411 253.979 142.411C250.984 142.346 248.007 142.236 245.048 142.044C239.113 141.678 233.278 141.128 227.379 140.304C225.846 139.939 224.501 139.024 223.601 137.731C222.7 136.439 222.307 134.86 222.496 133.296C222.685 131.732 223.443 130.292 224.626 129.252C225.809 128.211 227.333 127.642 228.908 127.654L229 127.681Z" fill="#FFC3BD"/>
<path d="M213.291 169.323C214.683 170.239 211.367 176.083 212.631 178.483C213.895 180.883 214.463 182.147 213.309 182.476C212.155 182.806 188.797 178.034 176 168.352C175.766 168.165 175.58 167.924 175.461 167.649C175.341 167.375 175.29 167.075 175.313 166.776C175.698 161.701 178.061 154.822 179.527 154.722C180.992 154.621 208.134 165.988 213.291 169.323Z" fill="#A3F4D3"/>
<path opacity="0.4" d="M213.291 169.323C214.683 170.239 211.367 176.083 212.631 178.483C213.895 180.883 214.463 182.147 213.309 182.476C212.155 182.806 188.797 178.034 176 168.352C175.766 168.165 175.58 167.924 175.461 167.649C175.341 167.375 175.29 167.075 175.313 166.776C175.698 161.701 178.061 154.822 179.527 154.722C180.992 154.621 208.134 165.988 213.291 169.323Z" fill="white"/>
<path d="M232.737 106.109C229.513 110.387 224.374 118.613 226.151 123.385C226.151 123.385 214.573 119.868 203.251 126.133C203.847 116.735 211.404 116.213 211.404 116.213C217.294 117.504 219.061 113.529 219.922 109.398L232.737 106.109Z" fill="#FFC3BD"/>
<path opacity="0.2" d="M227.525 107.465L219.968 109.435C219.781 110.4 219.508 111.348 219.153 112.265C221.315 112.952 225.153 112.082 226.399 110.076C226.93 109.281 227.312 108.397 227.525 107.465Z" fill="black"/>
<path d="M241.357 100.815C235.769 107.621 233.644 111.422 227.379 111.715C216.661 112.21 212.723 103.471 215.388 97.1601C218.576 89.7039 226.38 79.4722 235.238 81.5881C244.096 83.7041 246.935 94.0091 241.357 100.815Z" fill="#FFC3BD"/>
<path d="M226.344 79.3622C226.829 84.6476 236.475 92.0214 239.543 93.7618C235.476 95.7037 233.662 104.378 241.036 105.111C248.41 105.844 254.941 75.9272 226.344 79.3622Z" fill="#263238"/>
<path d="M218.448 96.3632C218.448 96.3632 221.342 97.0136 228.725 100.375C226.893 101.951 224.484 102.83 220.71 101.081C216.936 99.331 218.448 96.3632 218.448 96.3632Z" fill="#263238"/>
<path d="M223.229 100.329C221.819 99.5982 220.232 99.2807 218.649 99.4135C219.164 100.157 219.883 100.736 220.719 101.081C222.126 101.821 223.716 102.139 225.299 101.997C224.789 101.248 224.069 100.668 223.229 100.329Z" fill="#ED847E"/>
<path d="M218.805 96.4548C218.766 96.7448 218.809 97.0398 218.929 97.3068C219.049 97.5737 219.241 97.802 219.483 97.9662C221.678 98.9576 223.943 99.7843 226.261 100.439C226.61 100.574 226.986 100.626 227.358 100.589C227.73 100.553 228.089 100.429 228.405 100.229C225.297 98.7472 222.089 97.4861 218.805 96.4548Z" fill="white"/>
<path d="M224.631 90.684C223.16 91.6294 221.566 92.3691 219.895 92.8824C220.142 94.1556 221.672 94.7693 221.672 94.7693L224.631 90.684Z" fill="#ED847E"/>
<path d="M239.131 107.575C238.445 107.975 237.682 108.224 236.893 108.308C236.104 108.392 235.305 108.307 234.551 108.061C232.646 107.364 233.113 105.056 234.835 103.618C236.383 102.317 239.232 101.126 240.569 102.619C241.906 104.113 240.99 106.549 239.131 107.575Z" fill="#FFC3BD"/>
<path d="M232.792 94.0732C232.77 94.0212 232.758 93.9651 232.758 93.9083C232.758 93.8516 232.77 93.7954 232.792 93.7434C233.02 93.2611 233.127 92.7308 233.105 92.1979C233.082 91.6651 232.931 91.1456 232.664 90.684C232.604 90.5913 232.584 90.479 232.606 90.3712C232.628 90.2633 232.692 90.1685 232.783 90.1069C232.828 90.0746 232.878 90.0517 232.932 90.0397C232.986 90.0276 233.041 90.0268 233.095 90.0371C233.149 90.0474 233.201 90.0686 233.246 90.0995C233.292 90.1305 233.331 90.1704 233.36 90.2168C233.701 90.7908 233.898 91.4382 233.937 92.1045C233.975 92.7708 233.853 93.4365 233.58 94.0457C233.536 94.1472 233.453 94.2272 233.35 94.2684C233.247 94.3095 233.133 94.3085 233.03 94.2656C232.979 94.252 232.932 94.2279 232.891 94.1947C232.85 94.1616 232.816 94.1202 232.792 94.0732Z" fill="#263238"/>
<path d="M229.348 94.348C229.291 94.2926 229.258 94.2169 229.256 94.1373C229.267 93.7683 229.19 93.4021 229.031 93.0691C228.871 92.7361 228.635 92.446 228.34 92.2229C228.278 92.1786 228.235 92.1116 228.222 92.0363C228.208 91.961 228.224 91.8833 228.267 91.8198C228.288 91.7872 228.314 91.7591 228.346 91.7371C228.378 91.7152 228.413 91.6999 228.451 91.6922C228.489 91.6845 228.528 91.6845 228.565 91.6923C228.603 91.7001 228.639 91.7154 228.67 91.7374C229.039 92.0168 229.335 92.3805 229.535 92.7981C229.734 93.2157 229.83 93.6749 229.815 94.1373C229.813 94.2159 229.78 94.2904 229.724 94.3452C229.667 94.3999 229.592 94.4305 229.513 94.4304C229.45 94.422 229.392 94.393 229.348 94.348Z" fill="#263238"/>
<path d="M223.55 89.2092C223.51 89.2126 223.47 89.2078 223.432 89.1952C223.395 89.1826 223.36 89.1625 223.33 89.136C223.058 88.8915 222.732 88.7144 222.379 88.6189C222.025 88.5234 221.655 88.5123 221.296 88.5864C221.26 88.5976 221.222 88.6015 221.185 88.5979C221.147 88.5943 221.111 88.5832 221.077 88.5653C221.044 88.5473 221.015 88.523 220.991 88.4936C220.967 88.4641 220.95 88.4303 220.939 88.394C220.916 88.3199 220.924 88.2397 220.96 88.1711C220.996 88.1024 221.058 88.0508 221.132 88.0276C221.583 87.9229 222.052 87.929 222.501 88.0455C222.949 88.1619 223.362 88.3852 223.706 88.6963C223.76 88.7512 223.79 88.8252 223.79 88.9024C223.79 88.9795 223.76 89.0536 223.706 89.1085C223.664 89.1563 223.61 89.1912 223.55 89.2092Z" fill="#263238"/>
<path d="M223.422 84.7941C223.371 84.7764 223.325 84.7486 223.285 84.7123C223.246 84.6761 223.214 84.6323 223.193 84.5834C223.149 84.4811 223.146 84.3658 223.185 84.2616C223.225 84.1574 223.303 84.0725 223.403 84.0247C224.003 83.7326 224.664 83.5893 225.33 83.6068C225.996 83.6244 226.649 83.8023 227.232 84.1254C227.326 84.1841 227.394 84.2776 227.42 84.3857C227.445 84.4938 227.427 84.6076 227.37 84.7025C227.309 84.7975 227.214 84.8651 227.104 84.8907C226.995 84.9164 226.88 84.8982 226.783 84.8399C226.319 84.5895 225.801 84.4547 225.273 84.4467C224.745 84.4387 224.223 84.5579 223.751 84.7941C223.699 84.8168 223.643 84.8285 223.586 84.8285C223.53 84.8285 223.474 84.8168 223.422 84.7941Z" fill="#263238"/>
<path opacity="0.2" d="M198.259 136.099C200.167 140.833 203.596 144.797 208.005 147.366C200.128 145.846 198.003 139.608 198.259 136.099Z" fill="black"/>
<path d="M226.151 123.385C230.401 126.216 242.08 127.269 245.964 127.544C246.094 127.547 246.22 127.585 246.329 127.655C246.438 127.725 246.526 127.823 246.582 127.94C246.639 128.056 246.663 128.186 246.651 128.315C246.639 128.444 246.591 128.567 246.514 128.671C244.755 130.503 239.012 138.618 238.783 142.685C238.759 143.094 238.604 143.483 238.339 143.796C238.075 144.108 237.716 144.326 237.317 144.417C226.032 146.881 220.884 145.543 218.768 142.63C216.552 139.58 226.151 123.385 226.151 123.385Z" fill="#A3F4D3"/>
</svg>
