<svg width="78" height="76" viewBox="0 0 78 76" fill="none" xmlns="http://www.w3.org/2000/svg">
<rect x="77.1242" y="31.0876" width="50" height="50" rx="20" transform="rotate(128.444 77.1242 31.0876)" fill="#FDEC68"/>
<g clip-path="url(#clip0_3_9)">
<path d="M55.33 63.7041H53.25C53.5234 63.1898 53.6676 62.6166 53.67 62.0341V45.9241C54.1023 45.054 54.3282 44.0958 54.33 43.1241V36.7041C54.33 36.0862 54.0845 35.4935 53.6476 35.0566C53.2106 34.6196 52.618 34.3741 52 34.3741H45V33.3741C44.9974 30.8103 43.9777 28.3523 42.1648 26.5393C40.3519 24.7264 37.8938 23.7068 35.33 23.7041H24.67C22.1062 23.7068 19.6481 24.7264 17.8352 26.5393C16.0223 28.3523 15.0026 30.8103 15 33.3741V34.3741H8C7.38205 34.3741 6.7894 34.6196 6.35244 35.0566C5.91548 35.4935 5.67 36.0862 5.67 36.7041V43.1241C5.6703 44.0992 5.89619 45.0609 6.33 45.9341V62.0341C6.33244 62.6166 6.47659 63.1898 6.75 63.7041H4.67C4.40479 63.7041 4.15043 63.8095 3.9629 63.997C3.77536 64.1846 3.67 64.4389 3.67 64.7041C3.67 64.9694 3.77536 65.2237 3.9629 65.4113C4.15043 65.5988 4.40479 65.7041 4.67 65.7041H23.87L23.75 67.4041C23.7406 67.5505 23.7635 67.6971 23.817 67.8337C23.8706 67.9702 23.9536 68.0933 24.06 68.1941L29.3 73.2741C29.4869 73.4574 29.7382 73.56 30 73.56C30.2618 73.56 30.5131 73.4574 30.7 73.2741L35.94 68.1941C36.0464 68.0933 36.1294 67.9702 36.183 67.8337C36.2365 67.6971 36.2594 67.5505 36.25 67.4041L36.13 65.7041H55.33C55.5952 65.7041 55.8496 65.5988 56.0371 65.4113C56.2246 65.2237 56.33 64.9694 56.33 64.7041C56.33 64.4389 56.2246 64.1846 56.0371 63.997C55.8496 63.8095 55.5952 63.7041 55.33 63.7041ZM17 33.3741C17.0026 31.3407 17.8116 29.3914 19.2494 27.9536C20.6872 26.5157 22.6366 25.7068 24.67 25.7041H35.33C37.3634 25.7068 39.3128 26.5157 40.7506 27.9536C42.1884 29.3914 42.9974 31.3407 43 33.3741V34.3741H41V33.3741C41 31.8704 40.4026 30.4282 39.3393 29.3649C38.276 28.3015 36.8338 27.7041 35.33 27.7041H24.67C23.1662 27.7041 21.724 28.3015 20.6607 29.3649C19.5974 30.4282 19 31.8704 19 33.3741V34.3741H17V33.3741ZM39 33.3741V34.3741H37.08C36.966 34.0681 36.8003 33.784 36.59 33.5341C36.3093 33.203 35.96 32.9368 35.5664 32.7538C35.1728 32.5708 34.7441 32.4754 34.31 32.4741H25.69C25.2559 32.4754 24.8272 32.5708 24.4336 32.7538C24.04 32.9368 23.6907 33.203 23.41 33.5341C23.1998 33.784 23.034 34.0681 22.92 34.3741H21V33.3741C21 32.4008 21.3867 31.4673 22.0749 30.7791C22.7632 30.0908 23.6967 29.7041 24.67 29.7041H35.33C35.812 29.7041 36.2892 29.7991 36.7344 29.9835C37.1797 30.1679 37.5843 30.4383 37.9251 30.7791C38.2659 31.1199 38.5362 31.5244 38.7206 31.9697C38.9051 32.415 39 32.8922 39 33.3741ZM24 63.7041H10C9.78069 63.7041 9.56353 63.661 9.36092 63.577C9.15831 63.4931 8.97421 63.3701 8.81913 63.215C8.66406 63.0599 8.54105 62.8758 8.45712 62.6732C8.3732 62.4706 8.33 62.2535 8.33 62.0341V48.2641C9.39998 49.0313 10.6834 49.444 12 49.4441H13V50.7041C12.974 51.2015 13.0495 51.699 13.222 52.1663C13.3944 52.6336 13.6602 53.0609 14.0031 53.4221C14.346 53.7834 14.7588 54.0711 15.2164 54.2677C15.6741 54.4643 16.1669 54.5657 16.665 54.5657C17.1631 54.5657 17.6559 54.4643 18.1136 54.2677C18.5712 54.0711 18.984 53.7834 19.3269 53.4221C19.6698 53.0609 19.9356 52.6336 20.108 52.1663C20.2805 51.699 20.356 51.2015 20.33 50.7041V49.4441H25L24 63.7041ZM15 50.7041V47.7041H18.33V50.7041C18.3478 50.9336 18.318 51.1643 18.2424 51.3818C18.1668 51.5992 18.047 51.7986 17.8907 51.9676C17.7343 52.1365 17.5447 52.2713 17.3338 52.3635C17.1229 52.4557 16.8952 52.5033 16.665 52.5033C16.4348 52.5033 16.2071 52.4557 15.9962 52.3635C15.7853 52.2713 15.5957 52.1365 15.4393 51.9676C15.283 51.7986 15.1632 51.5992 15.0876 51.3818C15.012 51.1643 14.9822 50.9336 15 50.7041ZM25.1 47.4441H20.33V47.3741C20.3313 47.1553 20.2894 46.9384 20.2065 46.7358C20.1237 46.5333 20.0016 46.3491 19.8473 46.1939C19.6931 46.0387 19.5096 45.9155 19.3076 45.8315C19.1055 45.7474 18.8888 45.7041 18.67 45.7041H14.67C14.2271 45.7041 13.8023 45.8801 13.4891 46.1933C13.1759 46.5065 13 46.9312 13 47.3741V47.4441H12C10.8533 47.4442 9.75351 46.9893 8.94176 46.1795C8.13001 45.3696 7.67265 44.2708 7.67 43.1241V36.7041C7.67 36.6166 7.70477 36.5327 7.76666 36.4708C7.82854 36.4089 7.91248 36.3741 8 36.3741H22.8L23.5 40.5241C23.5769 41.0073 23.8053 41.4536 24.1521 41.7987C24.499 42.1437 24.9464 42.3697 25.43 42.4441L25.1 47.4441ZM25.78 67.1241L26 63.7941L33.7 59.3541L34 63.5441L26.58 67.8341L25.78 67.1241ZM32.84 46.5241L33.12 50.7141L26.63 54.4641L26.93 49.9241L32.84 46.5241ZM27.1 47.5241L27.44 42.5241H32.56L32.69 44.3441L27.1 47.5241ZM33.27 52.9341L33.55 57.1341L26.16 61.3941L26.47 56.8642L33.27 52.9341ZM30 71.1241L28.05 69.2441L34.13 65.7341L34.22 67.0341L30 71.1241ZM34.2 40.4341H25.8C25.7205 40.4351 25.6433 40.4072 25.5827 40.3558C25.5221 40.3044 25.482 40.2327 25.47 40.1541L24.71 35.5941C24.6858 35.4513 24.6929 35.3048 24.7309 35.1649C24.7689 35.0251 24.8368 34.8952 24.93 34.7841C25.0239 34.6744 25.1404 34.5863 25.2716 34.5258C25.4028 34.4654 25.5456 34.4341 25.69 34.4341H34.31C34.4544 34.4341 34.5972 34.4654 34.7284 34.5258C34.8596 34.5863 34.9761 34.6744 35.07 34.7841C35.1632 34.8952 35.2311 35.0251 35.2691 35.1649C35.3071 35.3048 35.3142 35.4513 35.29 35.5941L34.53 40.1541C34.5274 40.2399 34.4915 40.3213 34.4299 40.3811C34.3683 40.4408 34.2858 40.4742 34.2 40.4741V40.4341ZM34.57 42.4341C35.0522 42.3603 35.4986 42.1358 35.8453 41.7927C36.192 41.4496 36.4212 41.0055 36.5 40.5241L37.2 36.3741H52C52.0875 36.3741 52.1715 36.4089 52.2333 36.4708C52.2952 36.5327 52.33 36.6166 52.33 36.7041V43.1241C52.3274 44.2708 51.87 45.3696 51.0582 46.1795C50.2465 46.9893 49.1467 47.4442 48 47.4441H47V47.3741C47 46.9312 46.8241 46.5065 46.5109 46.1933C46.1977 45.8801 45.7729 45.7041 45.33 45.7041H41.33C41.1112 45.7041 40.8945 45.7474 40.6924 45.8315C40.4904 45.9155 40.3069 46.0387 40.1527 46.1939C39.9984 46.3491 39.8763 46.5333 39.7935 46.7358C39.7107 46.9384 39.6687 47.1553 39.67 47.3741V47.4441H34.9L34.57 42.4341ZM45 47.7041V50.7041C45.0178 50.9336 44.988 51.1643 44.9124 51.3818C44.8368 51.5992 44.717 51.7986 44.5607 51.9676C44.4043 52.1365 44.2147 52.2713 44.0038 52.3635C43.7929 52.4557 43.5652 52.5033 43.335 52.5033C43.1048 52.5033 42.8771 52.4557 42.6662 52.3635C42.4553 52.2713 42.2657 52.1365 42.1093 51.9676C41.953 51.7986 41.8332 51.5992 41.7576 51.3818C41.682 51.1643 41.6522 50.9336 41.67 50.7041V47.7041H45ZM36 63.7041L35 49.4441H39.63V50.7041C39.604 51.2015 39.6795 51.699 39.852 52.1663C40.0244 52.6336 40.2902 53.0609 40.6331 53.4221C40.976 53.7834 41.3888 54.0711 41.8464 54.2677C42.3041 54.4643 42.7969 54.5657 43.295 54.5657C43.7931 54.5657 44.2859 54.4643 44.7436 54.2677C45.2012 54.0711 45.614 53.7834 45.9569 53.4221C46.2998 53.0609 46.5656 52.6336 46.738 52.1663C46.9105 51.699 46.986 51.2015 46.96 50.7041V49.4441H47.96C49.2766 49.444 50.56 49.0313 51.63 48.2641V62.0341C51.6301 62.4702 51.4597 62.889 51.1551 63.2011C50.8505 63.5132 50.4359 63.6937 50 63.7041H36Z" fill="#3D3D63"/>
</g>
<defs>
<clipPath id="clip0_3_9">
<rect width="60" height="60" fill="white" transform="translate(0 15.1241)"/>
</clipPath>
</defs>
</svg>
