<svg width="390" height="575" viewBox="0 0 390 575" fill="none" xmlns="http://www.w3.org/2000/svg">
<rect width="390" height="575" fill="white"/>
<g clip-path="url(#clip0_8_3)">
<path d="M105.293 187.628C102.092 187.628 99.2713 186.952 96.8321 185.601C94.3929 184.25 92.5127 182.377 91.1914 179.982C89.8702 177.525 89.2096 174.7 89.2096 171.507C89.2096 168.804 89.6669 166.348 90.5816 164.137C91.5471 161.926 92.8176 160.176 94.3929 158.886C96.019 157.596 97.7976 156.951 99.7286 156.951C101.507 156.951 103.006 157.504 104.226 158.61C105.445 159.654 106.208 161.128 106.513 163.031C103.87 163.031 101.761 163.891 100.186 165.611C98.6107 167.269 97.823 169.541 97.823 172.428C97.823 175.069 98.4836 177.187 99.8048 178.784C101.126 180.381 102.879 181.179 105.064 181.179C107.758 181.179 109.968 180.105 111.696 177.955C113.475 175.744 114.364 172.981 114.364 169.664C114.364 166.778 113.703 164.045 112.382 161.465C111.061 158.886 109.079 155.754 106.436 152.069C103.692 148.261 101.609 145.007 100.186 142.304C98.8139 139.541 98.1279 136.531 98.1279 133.276C98.1279 130.083 98.8647 127.227 100.338 124.709C101.812 122.13 103.845 120.103 106.436 118.629C109.028 117.155 111.95 116.418 115.202 116.418C119.318 116.418 122.596 117.585 125.035 119.919C127.525 122.253 128.77 125.385 128.77 129.315C128.77 131.895 128.237 133.983 127.17 135.579C126.102 137.176 124.705 137.975 122.977 137.975C121.046 137.975 119.496 137.023 118.327 135.119C119.293 134.259 120.055 133.123 120.614 131.71C121.173 130.298 121.453 128.824 121.453 127.288C121.453 125.323 120.97 123.757 120.004 122.59C119.039 121.423 117.718 120.84 116.041 120.84C114.008 120.84 112.331 121.73 111.01 123.511C109.739 125.231 109.104 127.442 109.104 130.144C109.104 132.601 109.689 134.904 110.857 137.053C112.026 139.141 113.856 141.844 116.346 145.16C118.378 147.801 120.004 150.073 121.224 151.977C122.494 153.881 123.561 156.092 124.425 158.61C125.34 161.066 125.797 163.738 125.797 166.624C125.797 170.555 124.883 174.117 123.053 177.31C121.275 180.504 118.81 183.022 115.66 184.864C112.56 186.707 109.104 187.628 105.293 187.628ZM141.981 209C139.542 209 137.509 208.232 135.883 206.697C134.257 205.162 133.444 202.951 133.444 200.064C133.444 196.564 134.613 193.739 136.95 191.589C139.288 189.501 142.26 187.751 145.868 186.338L146.783 181.364C145.309 183.329 143.81 184.68 142.286 185.417C140.761 186.154 139.211 186.522 137.636 186.522C135.197 186.522 133.215 185.601 131.691 183.759C130.217 181.916 129.48 179.153 129.48 175.468C129.48 173.933 129.683 171.936 130.09 169.48L135.273 139.909H146.25L140.761 171.23C140.609 171.967 140.533 172.735 140.533 173.533C140.533 176.236 141.295 177.587 142.819 177.587C144.141 177.587 145.309 176.911 146.326 175.56C147.342 174.147 148.155 172.305 148.765 170.033L154.101 139.909H165.077L157.531 182.653C159.97 181.671 161.926 180.197 163.4 178.231C164.874 176.266 166.119 173.349 167.135 169.48H170.337C168.964 174.946 167.11 178.968 164.772 181.548C162.435 184.066 159.792 185.785 156.845 186.707L155.701 193.339C154.685 199.296 152.932 203.381 150.442 205.591C147.952 207.864 145.132 209 141.981 209ZM140.228 201.815C141.092 201.815 141.93 201.108 142.743 199.696C143.556 198.283 144.191 196.256 144.649 193.616L145.106 190.944C140.126 193.155 137.636 195.765 137.636 198.775C137.636 199.573 137.865 200.279 138.322 200.893C138.779 201.507 139.415 201.815 140.228 201.815ZM194.677 186.522C191.577 186.522 189.291 185.54 187.817 183.575C186.394 181.548 185.683 179.061 185.683 176.113C185.683 174.823 185.81 173.38 186.064 171.783C186.318 170.125 186.572 168.528 186.826 166.993C187.131 165.457 187.334 164.475 187.436 164.045C187.842 161.895 188.224 159.776 188.579 157.688C188.935 155.6 189.113 153.911 189.113 152.622C189.113 149.49 188.198 147.924 186.369 147.924C185.047 147.924 183.879 148.722 182.862 150.319C181.846 151.854 181.033 153.881 180.423 156.399L175.24 185.97H164.264L172.343 139.909H183.32L182.481 144.699C185.022 141.26 187.995 139.541 191.4 139.541C193.991 139.541 196.049 140.4 197.574 142.12C199.098 143.839 199.86 146.45 199.86 149.95C199.86 151.731 199.683 153.727 199.327 155.938C198.971 158.088 198.463 160.728 197.802 163.861C197.396 165.764 197.015 167.638 196.659 169.48C196.354 171.261 196.202 172.673 196.202 173.718C196.202 174.946 196.43 175.898 196.888 176.573C197.345 177.249 198.133 177.587 199.251 177.587C200.775 177.587 201.995 176.942 202.909 175.652C203.824 174.301 204.739 172.244 205.654 169.48H208.855C206.975 176.236 204.79 180.78 202.3 183.114C199.86 185.386 197.32 186.522 194.677 186.522ZM216.545 186.522C212.784 186.522 209.862 185.356 207.779 183.022C205.695 180.627 204.654 176.911 204.654 171.875C204.654 167.638 205.34 162.97 206.712 157.873C208.135 152.775 210.371 148.384 213.42 144.699C216.519 140.953 220.432 139.08 225.158 139.08C228.207 139.08 230.367 139.878 231.637 141.475C232.958 143.072 233.619 145.099 233.619 147.555C233.619 149.705 233.238 151.363 232.476 152.53C231.714 153.696 230.748 154.28 229.579 154.28C228.715 154.28 227.826 153.911 226.911 153.175C227.521 151.148 227.826 149.336 227.826 147.739C227.826 146.573 227.648 145.651 227.293 144.976C226.937 144.3 226.403 143.962 225.692 143.962C224.167 143.962 222.643 145.467 221.118 148.476C219.594 151.486 218.349 155.14 217.383 159.439C216.418 163.738 215.935 167.607 215.935 171.046C215.935 174.055 216.367 176.113 217.231 177.218C218.095 178.262 219.492 178.784 221.423 178.784C224.167 178.784 226.505 178.016 228.436 176.481C230.418 174.946 232.577 172.612 234.915 169.48H237.507C231.866 180.842 224.879 186.522 216.545 186.522ZM240.082 139.909H251.059L250.068 145.621C251.795 143.778 253.345 142.366 254.717 141.383C256.14 140.4 257.665 139.909 259.291 139.909C260.917 139.909 262.187 140.585 263.102 141.936C264.067 143.287 264.55 144.914 264.55 146.818C264.55 148.599 264.067 150.165 263.102 151.516C262.137 152.867 260.79 153.543 259.062 153.543C257.944 153.543 257.182 153.236 256.775 152.622C256.42 151.946 256.14 150.994 255.937 149.766C255.784 148.968 255.632 148.384 255.48 148.016C255.327 147.647 255.048 147.463 254.641 147.463C253.574 147.463 252.659 147.739 251.897 148.292C251.185 148.784 250.246 149.674 249.077 150.964L242.979 185.97H232.002L240.082 139.909ZM274.687 186.338C270.926 186.338 267.953 185.171 265.768 182.838C263.583 180.504 262.49 176.819 262.49 171.783C262.49 167.545 263.176 162.909 264.549 157.873C265.921 152.775 268.156 148.384 271.256 144.699C274.356 140.953 278.32 139.08 283.147 139.08C289.144 139.08 292.371 143.225 292.828 151.516C293.946 151.209 294.937 150.472 295.801 149.305C296.664 148.077 297.478 146.695 298.24 145.16H300.679C299.307 148.476 298.087 151.087 297.02 152.99C295.953 154.833 294.556 156.337 292.828 157.504C292.523 163.277 291.532 168.344 289.855 172.704C288.229 177.065 286.095 180.442 283.452 182.838C280.81 185.171 277.888 186.338 274.687 186.338ZM277.735 178.047C279.616 178.047 281.369 176.205 282.995 172.52C284.621 168.835 285.739 164.29 286.349 158.886C285.129 158.333 284.519 156.951 284.519 154.741C284.519 152.345 285.231 150.749 286.654 149.95C286.552 147.985 286.273 146.634 285.815 145.897C285.409 145.099 284.723 144.699 283.757 144.699C282.08 144.699 280.48 146.173 278.955 149.121C277.431 152.008 276.186 155.539 275.22 159.715C274.305 163.83 273.848 167.453 273.848 170.585C273.848 173.533 274.127 175.529 274.687 176.573C275.245 177.556 276.262 178.047 277.735 178.047Z" fill="url(#paint0_linear_8_3)"/>
</g>
<g clip-path="url(#clip1_8_3)">
<path d="M117.256 401.464C117.256 401.933 117 402.328 116.488 402.648C115.997 402.968 115.539 403.128 115.112 403.128C114.301 403.128 113.651 403.032 113.16 402.84C112.691 402.627 112.253 402.243 111.848 401.688C111.293 402.179 110.536 402.552 109.576 402.808C108.616 403.043 107.731 403.16 106.92 403.16C105.597 403.16 104.509 402.808 103.656 402.104C102.803 401.379 102.376 400.323 102.376 398.936C102.376 398.339 102.536 397.795 102.856 397.304C103.176 396.792 103.613 396.344 104.168 395.96C104.787 395.555 105.491 395.245 106.28 395.032C107.069 394.797 107.891 394.68 108.744 394.68C109.192 394.68 109.725 394.765 110.344 394.936C110.963 395.107 111.443 395.288 111.784 395.48V394.968C111.784 393.816 111.507 393.027 110.952 392.6C110.397 392.152 109.501 391.928 108.264 391.928C107.901 391.928 107.539 392.003 107.176 392.152C106.835 392.301 106.44 392.504 105.992 392.76C105.395 393.08 104.829 393.24 104.296 393.24C104.104 393.24 103.923 393.112 103.752 392.856C103.581 392.579 103.496 392.333 103.496 392.12C103.496 391.501 103.784 390.968 104.36 390.52C104.957 390.072 105.661 389.741 106.472 389.528C107.283 389.293 108.008 389.176 108.648 389.176C109.288 389.176 110.024 389.304 110.856 389.56C111.688 389.795 112.371 390.125 112.904 390.552C113.544 391.107 114.035 391.757 114.376 392.504C114.739 393.229 114.92 394.029 114.92 394.904C114.92 395.181 114.899 395.597 114.856 396.152C114.813 396.749 114.792 397.261 114.792 397.688C114.792 397.88 114.771 398.168 114.728 398.552C114.685 399.021 114.664 399.395 114.664 399.672C114.664 399.928 114.76 400.152 114.952 400.344C115.144 400.515 115.368 400.6 115.624 400.6L116.52 400.568C116.755 400.568 116.936 400.653 117.064 400.824C117.192 400.995 117.256 401.208 117.256 401.464ZM106.952 400.632C107.869 400.632 108.637 400.536 109.256 400.344C109.875 400.152 110.621 399.8 111.496 399.288C111.581 398.925 111.635 398.445 111.656 397.848C110.483 397.293 109.512 397.016 108.744 397.016C107.869 397.016 107.091 397.176 106.408 397.496C105.725 397.816 105.384 398.381 105.384 399.192C105.384 399.597 105.555 399.939 105.896 400.216C106.237 400.493 106.589 400.632 106.952 400.632ZM120.152 397.24C120.152 396.045 120.162 395.139 120.184 394.52L120.216 391.48C120.216 390.243 120.184 388.888 120.12 387.416C120.098 386.968 120.024 386.349 119.896 385.56C119.725 384.365 119.64 383.469 119.64 382.872C119.64 381.891 120.13 381.4 121.112 381.4C121.73 381.4 122.168 381.571 122.424 381.912C122.701 382.232 122.893 382.744 123 383.448C123.213 384.92 123.32 386.648 123.32 388.632C123.32 389.229 123.298 390.125 123.256 391.32C123.661 390.68 124.184 390.179 124.824 389.816C125.485 389.453 126.136 389.272 126.776 389.272C128.632 389.272 130.232 390.04 131.576 391.576C131.938 392.109 132.258 392.749 132.536 393.496C132.834 394.221 132.984 394.851 132.984 395.384C132.984 396.323 132.877 397.187 132.664 397.976C132.472 398.765 132.12 399.533 131.608 400.28C131.096 401.027 130.445 401.635 129.656 402.104C128.888 402.573 127.992 402.808 126.968 402.808C126.072 402.808 125.261 402.627 124.536 402.264C123.832 401.901 123.266 401.421 122.84 400.824C122.733 401.357 122.498 401.891 122.136 402.424C121.773 402.936 121.357 403.192 120.888 403.192C120.504 403.192 120.184 403.096 119.928 402.904C119.672 402.691 119.544 402.381 119.544 401.976C119.544 401.677 119.608 401.304 119.736 400.856C119.864 400.237 119.96 399.672 120.024 399.16C120.109 398.627 120.152 397.987 120.152 397.24ZM126.168 400.152C127.213 400.152 128.088 399.789 128.792 399.064C129.496 398.317 129.848 397.315 129.848 396.056C129.848 394.904 129.538 393.912 128.92 393.08C128.706 392.803 128.397 392.579 127.992 392.408C127.608 392.237 127.224 392.152 126.84 392.152C125.944 392.152 125.186 392.419 124.568 392.952C123.949 393.464 123.597 394.179 123.512 395.096C123.426 396.333 123.384 397.4 123.384 398.296C123.64 398.787 124.024 399.224 124.536 399.608C125.069 399.971 125.613 400.152 126.168 400.152ZM148.617 392.728C148.787 393.027 148.926 393.464 149.033 394.04C149.139 394.595 149.193 395.096 149.193 395.544C149.193 396.12 149.129 396.76 149.001 397.464C148.873 398.168 148.755 398.712 148.649 399.096C147.177 401.784 145.001 403.128 142.121 403.128C141.054 403.128 139.966 402.776 138.857 402.072C137.747 401.368 136.979 400.557 136.553 399.64C135.977 397.827 135.689 396.664 135.689 396.152C135.689 395.299 135.87 394.392 136.233 393.432C136.617 392.472 137.097 391.64 137.673 390.936C138.057 390.445 138.718 390.029 139.657 389.688C140.595 389.325 141.449 389.144 142.217 389.144C143.71 389.144 144.969 389.432 145.993 390.008C147.038 390.563 147.913 391.469 148.617 392.728ZM145.833 397.88C145.939 397.667 145.993 396.952 145.993 395.736C145.993 395.117 145.875 394.509 145.641 393.912C145.427 393.315 145.107 392.803 144.681 392.376C144.638 392.333 144.521 392.269 144.329 392.184C144.137 392.077 143.87 391.981 143.529 391.896C143.209 391.789 142.835 391.736 142.409 391.736C141.214 391.736 140.339 392.216 139.785 393.176C139.23 394.136 138.953 395.224 138.953 396.44C138.953 396.632 139.017 397.027 139.145 397.624C139.273 398.221 139.369 398.605 139.433 398.776C139.603 399.075 139.945 399.427 140.457 399.832C140.99 400.216 141.566 400.408 142.185 400.408C143.145 400.408 143.902 400.184 144.457 399.736C145.033 399.267 145.491 398.648 145.833 397.88ZM151.907 392.216C151.736 392.216 151.587 392.152 151.459 392.024C151.331 391.875 151.267 391.704 151.267 391.512C151.267 390.893 151.469 390.424 151.875 390.104C152.28 389.763 152.781 389.592 153.379 389.592C154.211 389.592 154.925 389.816 155.523 390.264C156.141 390.691 156.451 391.309 156.451 392.12C156.451 392.333 156.408 393.144 156.323 394.552C156.237 396.173 156.195 397.251 156.195 397.784C156.195 398.531 156.333 399.139 156.611 399.608C156.909 400.056 157.368 400.28 157.987 400.28C159.181 400.28 160.099 399.619 160.739 398.296C161.4 396.952 161.837 395.309 162.051 393.368C162.136 392.515 162.264 391.619 162.435 390.68C162.52 390.168 162.637 389.795 162.787 389.56C162.936 389.325 163.224 389.208 163.651 389.208C163.928 389.208 164.248 389.272 164.611 389.4C164.995 389.528 165.24 389.699 165.347 389.912C165.475 390.232 165.539 390.584 165.539 390.968C165.539 391.501 165.464 392.195 165.315 393.048C165.144 393.901 165.027 394.829 164.963 395.832C164.92 396.728 165.059 397.667 165.379 398.648C165.699 399.629 166.157 400.269 166.755 400.568C167.437 400.909 167.779 401.219 167.779 401.496C167.779 401.944 167.619 402.296 167.299 402.552C166.979 402.808 166.669 402.936 166.371 402.936C165.581 402.936 164.867 402.648 164.227 402.072C163.608 401.496 163.16 400.781 162.883 399.928C162.435 400.611 161.997 401.176 161.571 401.624C161.165 402.051 160.643 402.413 160.003 402.712C159.363 402.989 158.573 403.128 157.635 403.128C156.525 403.128 155.512 402.733 154.595 401.944C153.699 401.155 153.251 399.8 153.251 397.88C153.251 397.347 153.261 396.781 153.283 396.184C153.325 395.587 153.347 395.16 153.347 394.904C153.411 394.136 153.443 393.432 153.443 392.792C153.443 392.6 153.368 392.44 153.219 392.312C153.091 392.184 152.941 392.12 152.771 392.12C152.643 392.12 152.493 392.141 152.323 392.184C152.173 392.205 152.035 392.216 151.907 392.216ZM170.04 391.864C169.741 391.821 169.496 391.704 169.304 391.512C169.133 391.299 169.048 391.043 169.048 390.744C169.048 390.36 169.197 390.04 169.496 389.784C169.56 389.72 169.666 389.667 169.816 389.624C169.965 389.56 170.082 389.507 170.168 389.464C170.637 389.315 170.936 389.197 171.064 389.112C171.554 388.813 171.885 388.323 172.056 387.64C172.226 386.829 172.333 386.275 172.376 385.976C172.418 385.507 172.568 385.155 172.824 384.92C173.101 384.664 173.442 384.536 173.848 384.536C174.381 384.536 174.754 384.675 174.968 384.952C175.181 385.229 175.288 385.741 175.288 386.488C175.288 387.469 175.053 388.397 174.584 389.272C174.882 389.272 175.373 389.251 176.056 389.208C177.08 389.165 177.794 389.144 178.2 389.144C178.562 389.144 178.872 389.24 179.128 389.432C179.405 389.603 179.544 389.859 179.544 390.2C179.544 391.011 179.17 391.491 178.424 391.64C177.741 391.832 176.504 391.949 174.712 391.992C174.562 394.083 174.488 395.736 174.488 396.952C174.488 397.699 174.52 398.232 174.584 398.552C174.712 399.213 174.925 399.704 175.224 400.024C175.544 400.323 176.013 400.472 176.632 400.472C176.93 400.472 177.378 400.397 177.976 400.248C178.338 400.141 178.626 400.088 178.84 400.088C179.117 400.088 179.33 400.184 179.48 400.376C179.629 400.568 179.704 400.824 179.704 401.144C179.704 401.72 179.33 402.2 178.584 402.584C177.837 402.947 176.952 403.128 175.928 403.128C175.288 403.128 174.658 402.979 174.04 402.68C173.421 402.36 172.898 401.976 172.472 401.528C172.386 401.485 172.258 401.251 172.088 400.824C171.938 400.397 171.789 399.928 171.64 399.416C171.576 399.16 171.544 398.541 171.544 397.56C171.544 396.621 171.608 395 171.736 392.696L171.768 391.992C171.618 391.992 171.341 391.981 170.936 391.96C170.53 391.917 170.232 391.885 170.04 391.864ZM189.26 391.928C188.961 391.885 188.716 391.757 188.524 391.544C188.353 391.331 188.268 391.075 188.268 390.776C188.268 390.627 188.3 390.467 188.364 390.296C188.449 390.125 188.567 389.976 188.716 389.848C188.993 389.613 189.367 389.389 189.836 389.176C190.327 388.984 190.679 388.749 190.892 388.472C191.105 388.195 191.212 387.672 191.212 386.904C191.212 386.584 191.191 386.307 191.148 386.072C191.127 385.837 191.116 385.656 191.116 385.528C191.116 385.059 191.287 384.707 191.628 384.472C191.969 384.237 192.364 384.12 192.812 384.12C193.367 384.12 193.74 384.259 193.932 384.536C194.145 384.813 194.252 385.325 194.252 386.072C194.252 386.797 194.22 387.427 194.156 387.96C194.092 388.472 193.953 388.931 193.74 389.336C194.039 389.336 194.529 389.315 195.212 389.272C196.151 389.229 196.801 389.208 197.164 389.208C197.527 389.208 197.847 389.304 198.124 389.496C198.401 389.667 198.54 389.912 198.54 390.232C198.54 390.68 198.444 391.011 198.252 391.224C198.06 391.437 197.783 391.576 197.42 391.64C196.545 391.875 195.308 392.013 193.708 392.056C193.665 392.888 193.644 393.795 193.644 394.776C193.644 396.419 193.74 397.677 193.932 398.552C194.06 399.235 194.273 399.736 194.572 400.056C194.892 400.355 195.361 400.504 195.98 400.504C196.3 400.504 196.556 400.461 196.748 400.376C196.961 400.291 197.079 400.237 197.1 400.216C197.356 400.067 197.591 399.992 197.804 399.992C198.103 399.992 198.316 400.088 198.444 400.28C198.593 400.472 198.668 400.728 198.668 401.048C198.668 401.645 198.348 402.147 197.708 402.552C197.068 402.936 196.247 403.128 195.244 403.128C194.113 403.128 193.153 402.797 192.364 402.136C191.596 401.453 191.137 400.557 190.988 399.448C190.775 398.445 190.668 397.037 190.668 395.224C190.668 394.435 190.711 393.379 190.796 392.056L189.26 391.928ZM205.099 382.712C205.099 383.267 205.089 383.917 205.067 384.664C205.046 385.389 205.025 385.944 205.003 386.328C204.939 387.416 204.907 388.504 204.907 389.592C204.907 390.403 204.939 391.245 205.003 392.12C205.665 391.16 206.379 390.456 207.147 390.008C207.915 389.56 208.843 389.336 209.931 389.336C210.721 389.336 211.457 389.688 212.139 390.392C212.822 391.096 213.259 391.917 213.451 392.856C213.515 393.688 213.547 394.701 213.547 395.896C213.547 396.664 213.59 397.667 213.675 398.904C213.718 399.373 213.835 399.811 214.027 400.216C214.241 400.621 214.539 400.824 214.923 400.824C215.115 400.824 215.265 400.813 215.371 400.792C215.499 400.771 215.617 400.76 215.723 400.76C216.022 400.76 216.225 400.835 216.331 400.984C216.459 401.133 216.523 401.347 216.523 401.624C216.523 402.136 216.267 402.52 215.755 402.776C215.243 403.032 214.774 403.16 214.347 403.16C212.811 403.16 211.755 402.52 211.179 401.24C210.859 400.515 210.657 399.576 210.571 398.424C210.486 397.251 210.443 395.885 210.443 394.328C210.443 392.792 209.921 392.024 208.875 392.024C208.299 392.024 207.713 392.333 207.115 392.952C206.539 393.549 206.059 394.349 205.675 395.352C205.291 396.333 205.099 397.357 205.099 398.424L205.131 401.752C205.131 402.221 204.95 402.573 204.587 402.808C204.225 403.021 203.883 403.128 203.563 403.128C203.094 403.128 202.667 402.989 202.283 402.712C201.899 402.413 201.707 402.083 201.707 401.72C201.857 400.12 201.931 397.443 201.931 393.688C201.931 393.005 201.878 390.477 201.771 386.104L201.675 383.16C201.675 382.691 201.889 382.285 202.315 381.944C202.742 381.581 203.222 381.4 203.755 381.4C204.225 381.4 204.566 381.507 204.779 381.72C204.993 381.933 205.099 382.264 205.099 382.712ZM218.19 396.216C218.19 395.405 218.339 394.595 218.638 393.784C218.937 392.952 219.331 392.195 219.822 391.512C220.313 390.829 221.091 390.275 222.158 389.848C223.225 389.4 224.174 389.176 225.006 389.176C225.859 389.176 226.723 389.293 227.598 389.528C228.494 389.763 229.113 390.125 229.454 390.616C230.243 391.725 230.638 392.813 230.638 393.88C230.638 394.456 230.51 394.947 230.254 395.352C230.019 395.757 229.678 396.195 229.23 396.664C228.867 397.048 228.291 397.304 227.502 397.432C226.734 397.56 225.966 397.624 225.198 397.624C224.707 397.624 224.11 397.581 223.406 397.496C222.702 397.389 222.019 397.261 221.358 397.112C221.401 397.539 221.507 397.955 221.678 398.36C221.849 398.765 222.051 399.075 222.286 399.288C222.713 399.693 223.15 399.949 223.598 400.056C224.067 400.163 224.665 400.216 225.39 400.216C226.158 400.216 226.873 400.088 227.534 399.832C228.067 399.64 228.505 399.544 228.846 399.544C229.251 399.544 229.561 399.672 229.774 399.928C229.987 400.163 230.094 400.472 230.094 400.856C230.094 401.389 229.785 401.827 229.166 402.168C228.547 402.509 227.833 402.765 227.022 402.936C226.233 403.085 225.593 403.16 225.102 403.16C224.099 403.16 223.129 402.979 222.19 402.616C221.251 402.253 220.473 401.741 219.854 401.08C219.342 400.483 218.937 399.768 218.638 398.936C218.339 398.083 218.19 397.176 218.19 396.216ZM225.166 391.896C224.697 391.896 224.227 391.992 223.758 392.184C223.289 392.355 222.905 392.6 222.606 392.92C222.222 393.325 221.955 393.656 221.806 393.912C221.678 394.147 221.593 394.477 221.55 394.904C222.083 395.075 223.193 395.16 224.878 395.16C225.795 395.16 226.499 395.021 226.99 394.744C227.502 394.467 227.758 394.104 227.758 393.656C227.758 393.208 227.481 392.803 226.926 392.44C226.371 392.077 225.785 391.896 225.166 391.896ZM253.044 403.128C252.318 403.128 251.764 403.021 251.38 402.808C250.996 402.573 250.58 402.147 250.132 401.528C249.577 402.019 248.745 402.413 247.635 402.712C246.548 403.011 245.609 403.16 244.82 403.16C243.518 403.16 242.462 402.808 241.652 402.104C240.862 401.379 240.468 400.323 240.468 398.936C240.468 398.339 240.628 397.795 240.948 397.304C241.289 396.792 241.726 396.344 242.26 395.96C242.857 395.555 243.561 395.235 244.372 395C245.204 394.765 245.961 394.648 246.644 394.648C247.796 394.648 248.82 394.755 249.716 394.968V394.936C249.716 393.784 249.428 392.995 248.852 392.568C248.297 392.12 247.401 391.896 246.164 391.896C245.374 391.896 244.692 392.248 244.116 392.952C243.902 393.229 243.454 393.368 242.772 393.368C242.43 393.368 242.174 393.229 242.004 392.952C241.854 392.653 241.78 392.355 241.78 392.056C241.78 391.437 242.036 390.904 242.548 390.456C243.081 390.008 243.721 389.677 244.468 389.464C245.214 389.229 245.908 389.112 246.548 389.112C247.166 389.112 247.902 389.24 248.756 389.496C249.609 389.752 250.302 390.093 250.836 390.52C251.476 391.075 251.966 391.725 252.308 392.472C252.67 393.197 252.852 393.997 252.852 394.872C252.852 395.149 252.83 395.565 252.788 396.12C252.745 396.76 252.724 397.283 252.724 397.688C252.724 397.88 252.702 398.125 252.66 398.424C252.617 398.808 252.596 399.128 252.596 399.384C252.596 399.661 252.681 399.928 252.852 400.184C253.022 400.44 253.257 400.653 253.556 400.824C253.833 400.973 254.014 401.133 254.1 401.304C254.185 401.475 254.228 401.667 254.228 401.88C254.228 402.093 254.089 402.36 253.812 402.68C253.556 402.979 253.3 403.128 253.044 403.128ZM246.644 397.016C245.812 397.016 245.076 397.176 244.436 397.496C243.796 397.816 243.476 398.381 243.476 399.192C243.476 399.597 243.614 399.939 243.891 400.216C244.19 400.493 244.51 400.632 244.852 400.632C245.769 400.632 246.537 400.536 247.156 400.344C247.774 400.152 248.521 399.8 249.396 399.288C249.502 398.947 249.566 398.467 249.588 397.848C249.588 397.613 249.598 397.432 249.62 397.304C248.468 397.112 247.476 397.016 246.644 397.016ZM256.282 392.088C256.068 391.789 255.919 391.533 255.834 391.32C255.748 391.107 255.706 390.84 255.706 390.52C255.706 390.179 255.844 389.891 256.122 389.656C256.42 389.421 256.794 389.304 257.242 389.304C257.69 389.304 258.138 389.475 258.586 389.816C259.034 390.136 259.396 390.552 259.674 391.064C260.122 390.424 260.73 389.965 261.498 389.688C262.266 389.411 263.098 389.272 263.994 389.272C264.975 389.272 265.882 389.571 266.714 390.168C267.567 390.765 268.239 391.533 268.73 392.472C269.22 393.411 269.466 394.349 269.466 395.288C269.466 396.205 269.37 397.027 269.178 397.752C268.986 398.456 268.644 399.171 268.154 399.896C267.599 400.664 266.852 401.293 265.914 401.784C264.996 402.275 263.898 402.52 262.618 402.52C262.276 402.52 261.86 402.435 261.37 402.264C260.879 402.072 260.474 401.869 260.154 401.656C260.004 403.107 259.93 404.365 259.93 405.432C259.93 406.072 259.962 406.68 260.026 407.256C260.068 407.939 260.09 408.429 260.09 408.728C260.09 409.197 259.93 409.539 259.61 409.752C259.29 409.987 258.938 410.104 258.554 410.104C257.786 410.104 257.274 409.891 257.018 409.464C256.783 409.059 256.666 408.472 256.666 407.704C256.751 405.869 256.858 404.173 256.986 402.616C257.135 400.376 257.21 397.624 257.21 394.36C257.21 394.104 257.103 393.731 256.89 393.24C256.698 392.749 256.495 392.365 256.282 392.088ZM260.282 398.488C260.388 398.893 260.687 399.235 261.178 399.512C261.69 399.768 262.148 399.896 262.554 399.896C263.77 399.896 264.676 399.565 265.274 398.904C265.722 398.435 266.01 397.976 266.138 397.528C266.287 397.08 266.362 396.365 266.362 395.384C266.362 394.616 266.212 393.976 265.914 393.464C265.615 392.931 265.252 392.547 264.826 392.312C264.399 392.056 263.994 391.928 263.61 391.928C262.735 391.928 262.02 392.195 261.466 392.728C260.932 393.24 260.591 393.944 260.442 394.84C260.335 395.544 260.282 396.76 260.282 398.488ZM273.151 391.864C272.959 391.864 272.777 391.885 272.607 391.928C272.436 391.949 272.265 391.96 272.095 391.96C271.86 391.96 271.636 391.853 271.423 391.64C271.231 391.427 271.135 391.235 271.135 391.064C271.135 390.509 271.412 390.083 271.967 389.784C272.521 389.464 273.087 389.304 273.663 389.304C274.153 389.304 274.655 389.475 275.167 389.816C275.7 390.136 276.095 390.552 276.351 391.064C276.905 390.403 277.588 389.923 278.399 389.624C279.209 389.325 280.052 389.176 280.927 389.176C281.908 389.176 282.815 389.485 283.647 390.104C284.5 390.723 285.172 391.512 285.663 392.472C286.153 393.411 286.399 394.349 286.399 395.288C286.399 396.205 286.303 397.027 286.111 397.752C285.919 398.456 285.577 399.171 285.087 399.896C284.532 400.664 283.785 401.293 282.847 401.784C281.929 402.275 280.831 402.52 279.551 402.52C279.209 402.52 278.793 402.435 278.303 402.264C277.812 402.072 277.407 401.869 277.087 401.656C276.937 403.107 276.863 404.365 276.863 405.432C276.863 406.072 276.895 406.68 276.959 407.256C277.001 407.939 277.023 408.429 277.023 408.728C277.023 409.197 276.863 409.539 276.543 409.752C276.223 409.987 275.871 410.104 275.487 410.104C274.719 410.104 274.207 409.891 273.951 409.464C273.716 409.059 273.599 408.472 273.599 407.704C273.684 405.869 273.791 404.173 273.919 402.616C274.047 400.696 274.111 397.731 274.111 393.72C274.111 393.336 274.036 392.931 273.887 392.504C273.737 392.077 273.492 391.864 273.151 391.864ZM277.215 398.488C277.321 398.893 277.62 399.235 278.111 399.512C278.623 399.768 279.081 399.896 279.487 399.896C280.703 399.896 281.609 399.565 282.207 398.904C282.655 398.435 282.943 397.976 283.071 397.528C283.22 397.08 283.295 396.365 283.295 395.384C283.295 394.616 283.145 393.976 282.847 393.464C282.548 392.931 282.185 392.547 281.759 392.312C281.332 392.056 280.927 391.928 280.543 391.928C279.668 391.928 278.953 392.195 278.399 392.728C277.865 393.24 277.524 393.944 277.375 394.84C277.268 395.544 277.215 396.76 277.215 398.488Z" fill="black"/>
</g>
<g clip-path="url(#clip2_8_3)">
<path d="M98.2805 513.188C98.2749 513.628 98.0471 513.845 97.5972 513.84C97.4472 513.838 97.3226 513.801 97.2235 513.73C97.1244 513.659 97.0158 513.552 96.8976 513.411C96.6018 513.077 96.344 512.908 96.124 512.906C95.834 512.902 95.5479 512.983 95.2658 513.15C94.9936 513.316 94.7706 513.553 94.5966 513.861C94.4227 514.169 94.3333 514.513 94.3284 514.893C94.3231 515.313 94.3986 515.664 94.555 515.946C94.7214 516.228 94.9783 516.471 95.3257 516.676C95.4548 516.747 95.6041 516.804 95.7736 516.846C95.953 516.889 96.1078 516.911 96.2378 516.912C96.5277 516.916 96.8942 516.806 97.3371 516.581C97.4981 516.504 97.6338 516.445 97.7443 516.407C97.8548 516.368 97.9701 516.35 98.0901 516.351C98.2001 516.352 98.3244 516.404 98.4631 516.506C98.6018 516.608 98.6702 516.734 98.6683 516.884C98.6645 517.183 98.5212 517.437 98.2386 517.643C97.956 517.839 97.6091 517.99 97.1977 518.095C96.7965 518.19 96.4109 518.235 96.0409 518.23C95.4509 518.222 94.9027 518.08 94.3962 517.804C93.8997 517.528 93.5045 517.153 93.2105 516.679C92.9167 516.195 92.7736 515.653 92.7812 515.053C92.7894 514.413 92.9419 513.83 93.2387 513.304C93.5354 512.778 93.9307 512.368 94.4245 512.074C94.9183 511.78 95.4551 511.637 96.0351 511.644C96.3651 511.649 96.7043 511.713 97.0527 511.837C97.4012 511.962 97.6939 512.141 97.9309 512.374C98.168 512.607 98.2845 512.878 98.2805 513.188ZM101.632 515.916C101.627 516.296 101.679 516.592 101.786 516.803C101.903 517.005 102.052 517.107 102.232 517.109C102.332 517.11 102.427 517.107 102.517 517.098C102.607 517.079 102.698 517.07 102.788 517.071C102.888 517.072 102.972 517.124 103.041 517.224C103.119 517.325 103.158 517.436 103.156 517.556C103.153 517.796 103.036 517.984 102.804 518.121C102.582 518.249 102.282 518.31 101.902 518.305C101.632 518.302 101.358 518.218 101.08 518.054C100.812 517.881 100.59 517.618 100.415 517.266C100.239 516.904 100.155 516.457 100.162 515.928C100.176 514.788 100.209 513.823 100.259 513.034C100.321 512.094 100.361 510.91 100.379 509.48C100.385 509.03 100.414 508.715 100.466 508.536C100.528 508.397 100.625 508.293 100.755 508.224C100.896 508.146 101.042 508.108 101.192 508.11C101.342 508.112 101.472 508.139 101.581 508.19C101.7 508.242 101.779 508.323 101.818 508.433C101.856 508.554 101.88 508.674 101.888 508.794C101.907 508.904 101.915 509.064 101.912 509.274C101.907 509.684 101.887 510.079 101.852 510.459C101.826 510.918 101.812 511.253 101.809 511.463C101.707 513.222 101.648 514.706 101.632 515.916ZM105.058 508.655C105.408 508.689 105.712 508.788 105.97 508.951C106.228 509.105 106.355 509.336 106.351 509.646C106.348 509.876 106.235 510.06 106.014 510.197C105.802 510.324 105.546 510.386 105.246 510.382C104.956 510.378 104.757 510.301 104.649 510.149C104.541 509.998 104.488 509.842 104.49 509.682C104.494 509.382 104.527 509.133 104.59 508.934C104.662 508.734 104.819 508.641 105.058 508.655ZM106.173 515.314L106.168 515.749C106.163 516.139 106.168 516.509 106.184 516.86C106.209 517.2 106.24 517.545 106.275 517.896C106.264 517.996 106.188 518.1 106.046 518.208C105.905 518.306 105.779 518.355 105.669 518.353C105.479 518.351 105.285 518.313 105.086 518.241C104.897 518.158 104.783 518.062 104.744 517.951C104.689 517.631 104.662 517.345 104.665 517.095C104.676 516.275 104.663 515.355 104.626 514.334C104.597 513.434 104.585 512.804 104.59 512.444C104.592 512.264 104.684 512.11 104.866 511.982C105.047 511.855 105.238 511.792 105.438 511.795C105.728 511.798 105.927 511.866 106.036 511.997C106.154 512.129 106.211 512.335 106.208 512.615L106.173 515.314ZM113.456 513.382C113.454 513.592 113.407 513.752 113.315 513.861C113.234 513.97 113.098 514.023 112.908 514.02C112.768 514.019 112.649 513.982 112.55 513.911C112.461 513.84 112.342 513.718 112.194 513.546C112.076 513.415 111.937 513.308 111.778 513.226C111.629 513.144 111.495 513.102 111.375 513.101C110.765 513.093 110.323 513.217 110.05 513.474C109.878 513.652 109.735 513.89 109.621 514.188C109.507 514.477 109.448 514.776 109.444 515.086C109.439 515.536 109.499 515.897 109.626 516.169C109.752 516.44 109.979 516.673 110.307 516.867C110.426 516.939 110.595 517.001 110.814 517.054C111.034 517.097 111.214 517.119 111.354 517.121C111.543 517.123 111.744 517.076 111.955 516.978C112.167 516.871 112.349 516.733 112.501 516.565C112.694 516.348 112.925 516.241 113.195 516.244C113.305 516.246 113.429 516.302 113.568 516.414C113.716 516.526 113.79 516.657 113.788 516.807C113.784 517.107 113.635 517.385 113.342 517.641C113.059 517.888 112.711 518.083 112.299 518.228C111.888 518.363 111.507 518.428 111.157 518.423C110.567 518.416 110.019 518.274 109.512 517.997C109.016 517.721 108.62 517.346 108.326 516.872C108.033 516.388 107.89 515.846 107.897 515.246C107.904 514.726 108.005 514.223 108.202 513.735C108.408 513.248 108.678 512.851 109.012 512.545C109.285 512.299 109.622 512.118 110.024 512.003C110.425 511.888 110.846 511.834 111.286 511.839C111.596 511.843 111.915 511.907 112.244 512.032C112.572 512.156 112.835 512.319 113.032 512.522C113.319 512.816 113.46 513.102 113.456 513.382ZM116.193 518.488C115.993 518.485 115.823 518.448 115.684 518.376C115.545 518.304 115.461 518.228 115.432 518.148C115.327 517.747 115.279 517.221 115.287 516.571C115.302 515.371 115.335 514.396 115.385 513.647C115.436 512.758 115.467 511.903 115.477 511.083C115.48 510.843 115.455 510.493 115.401 510.032C115.392 509.952 115.379 509.807 115.361 509.596C115.344 509.386 115.336 509.191 115.339 509.011C115.342 508.791 115.419 508.617 115.57 508.489C115.732 508.361 115.938 508.299 116.188 508.302C116.388 508.304 116.547 508.371 116.665 508.503C116.794 508.625 116.857 508.79 116.854 509C116.85 509.32 116.854 509.77 116.867 510.351C116.88 510.891 116.885 511.296 116.881 511.566C116.877 511.866 116.862 512.266 116.836 512.765C116.812 513.065 116.799 513.285 116.797 513.425C116.792 513.865 116.792 514.23 116.798 514.52C117.173 514.155 117.664 513.726 118.27 513.234C118.876 512.742 119.346 512.398 119.678 512.202C120.031 511.996 120.262 511.894 120.372 511.896C120.582 511.898 120.762 511.946 120.911 512.038C121.059 512.129 121.133 512.26 121.131 512.43C121.128 512.6 121.102 512.735 121.05 512.834C120.999 512.934 120.908 513.033 120.777 513.131L118.824 514.516C119.042 514.629 119.225 514.771 119.373 514.943C119.531 515.115 119.688 515.327 119.845 515.579C120.178 516.144 120.443 516.557 120.639 516.819C120.846 517.082 121.034 517.215 121.204 517.217L121.58 517.207C121.649 517.207 121.709 517.248 121.758 517.329C121.817 517.41 121.845 517.525 121.844 517.675C121.841 517.905 121.723 518.088 121.491 518.225C121.27 518.363 121.019 518.429 120.739 518.426C120.349 518.421 120.006 518.266 119.71 517.963C119.414 517.649 119.134 517.23 118.871 516.707C118.49 515.962 118.111 515.517 117.733 515.372L116.763 516.14L116.802 517.775C116.799 518.035 116.726 518.22 116.585 518.328C116.453 518.436 116.323 518.489 116.193 518.488ZM132.275 518.678C131.525 518.669 131.024 518.372 130.771 517.789C130.645 517.497 130.564 517.121 130.53 516.661C130.496 516.19 130.483 515.64 130.491 515.01L130.497 514.545C130.507 513.825 130.271 513.462 129.791 513.456C129.511 513.453 129.229 513.594 128.946 513.88C128.662 514.157 128.422 514.529 128.226 514.996C128.041 515.454 127.944 515.933 127.938 516.433C127.934 516.763 127.945 517.063 127.972 517.333C127.987 517.673 127.994 517.934 127.992 518.114C127.987 518.454 127.75 518.621 127.28 518.615C127.05 518.612 126.846 518.559 126.667 518.457C126.498 518.355 126.415 518.223 126.417 518.063C126.464 517.554 126.492 516.924 126.501 516.174L126.512 514.194C126.516 513.874 126.506 512.689 126.482 510.639L126.455 509.258C126.458 509.038 126.56 508.85 126.762 508.692C126.964 508.525 127.19 508.443 127.44 508.446C127.66 508.449 127.82 508.501 127.918 508.602C128.017 508.703 128.065 508.859 128.062 509.069C128.059 509.329 128.05 509.634 128.036 509.983C128.021 510.323 128.008 510.583 127.996 510.763C127.959 511.273 127.938 511.782 127.931 512.292C127.925 512.792 127.91 513.187 127.886 513.477C128.191 513.041 128.536 512.72 128.918 512.515C129.311 512.3 129.767 512.196 130.287 512.202C130.667 512.207 131.015 512.382 131.331 512.726C131.657 513.06 131.852 513.443 131.916 513.873C131.933 514.094 131.939 514.419 131.934 514.849L131.905 515.943C131.902 516.113 131.909 516.379 131.924 516.739C131.932 516.909 131.985 517.09 132.083 517.281C132.19 517.472 132.313 517.614 132.452 517.706C132.581 517.787 132.665 517.868 132.704 517.949C132.743 518.029 132.762 518.12 132.761 518.22C132.759 518.32 132.713 518.424 132.622 518.533C132.53 518.632 132.415 518.68 132.275 518.678ZM133.71 515.216C133.718 514.607 133.859 514.103 134.135 513.707C134.41 513.3 134.79 512.92 135.274 512.566C135.416 512.468 135.652 512.386 135.982 512.32C136.313 512.245 136.604 512.208 136.854 512.211C137.154 512.215 137.468 512.284 137.796 512.418C138.135 512.543 138.408 512.686 138.616 512.849C138.982 513.124 139.233 513.442 139.369 513.804C139.504 514.155 139.569 514.576 139.563 515.066C139.56 515.276 139.437 515.48 139.195 515.677C138.962 515.864 138.711 515.955 138.441 515.952L137.871 515.93C137.581 515.926 137.166 515.931 136.626 515.944L136.311 515.955C136.091 515.972 135.926 515.98 135.816 515.978C135.656 515.976 135.436 515.954 135.156 515.91C135.19 516.38 135.361 516.753 135.667 517.027C135.974 517.291 136.307 517.425 136.667 517.429C137.297 517.438 137.739 517.318 137.992 517.071C138.204 516.924 138.345 516.831 138.415 516.792C138.486 516.753 138.596 516.734 138.746 516.736C138.906 516.738 139.045 516.815 139.163 516.966C139.281 517.118 139.339 517.269 139.338 517.419C139.335 517.589 139.228 517.762 139.016 517.94C138.814 518.107 138.536 518.283 138.184 518.469C137.993 518.547 137.732 518.613 137.401 518.669C137.071 518.725 136.795 518.751 136.575 518.748C136.225 518.744 135.837 518.639 135.409 518.433C134.982 518.218 134.665 517.984 134.458 517.731C134.251 517.479 134.071 517.121 133.917 516.659C133.773 516.197 133.704 515.716 133.71 515.216ZM136.7 514.85C137.41 514.859 137.93 514.84 138.261 514.795C138.245 514.504 138.158 514.268 138 514.086C137.842 513.894 137.625 513.731 137.346 513.598C137.257 513.557 137.177 513.526 137.107 513.505C137.038 513.484 136.958 513.473 136.868 513.472C136.408 513.466 136.016 513.586 135.693 513.832C135.38 514.078 135.191 514.395 135.126 514.785C135.625 514.821 136.15 514.843 136.7 514.85ZM143.027 518.171C143.005 518.341 142.933 518.49 142.812 518.618C142.69 518.747 142.534 518.81 142.344 518.807C142.044 518.803 141.825 518.746 141.686 518.634C141.548 518.512 141.481 518.296 141.485 517.986C141.49 517.566 141.521 517.106 141.577 516.607C141.625 516.028 141.65 515.583 141.654 515.273C141.656 515.113 141.649 514.913 141.632 514.673C141.615 514.452 141.607 514.287 141.608 514.177C141.58 514.007 141.512 513.871 141.404 513.77C141.305 513.668 141.146 513.581 140.927 513.509C140.837 513.467 140.763 513.402 140.704 513.311C140.646 513.21 140.617 513.12 140.618 513.04C140.621 512.81 140.713 512.636 140.894 512.518C141.076 512.4 141.297 512.343 141.557 512.347C141.847 512.35 142.095 512.453 142.303 512.656C142.51 512.859 142.667 513.111 142.773 513.412C143.007 513.085 143.291 512.824 143.623 512.628C143.966 512.432 144.297 512.337 144.617 512.341C145.027 512.346 145.371 512.42 145.649 512.564C145.938 512.698 146.08 512.929 146.075 513.259C146.073 513.449 145.985 513.648 145.813 513.856C145.65 514.054 145.484 514.152 145.314 514.15C145.184 514.148 145.03 514.086 144.851 513.964C144.782 513.913 144.702 513.872 144.613 513.841C144.533 513.8 144.449 513.779 144.359 513.778C144.199 513.775 144.048 513.799 143.908 513.847C143.767 513.895 143.671 513.954 143.62 514.023C143.457 514.271 143.334 514.494 143.252 514.693C143.179 514.893 143.142 515.107 143.139 515.337C143.136 515.507 143.13 515.642 143.118 515.742L143.092 516.597L143.1 517.167C143.095 517.587 143.071 517.921 143.027 518.171ZM146.82 515.429C146.824 515.069 146.894 514.735 147.027 514.427C147.162 514.108 147.356 513.781 147.61 513.444C147.864 513.107 148.213 512.847 148.655 512.662C149.098 512.468 149.579 512.374 150.099 512.381C150.499 512.386 150.883 512.476 151.251 512.651C151.628 512.815 151.966 513.02 152.263 513.264C152.302 513.334 152.37 513.465 152.468 513.656C152.565 513.837 152.633 514.003 152.671 514.154C152.72 514.304 152.743 514.46 152.74 514.62C152.732 515.29 152.481 515.737 151.988 515.96C151.496 516.174 150.874 516.276 150.124 516.266C149.374 516.257 148.765 516.199 148.296 516.093C148.314 516.283 148.361 516.474 148.439 516.665C148.517 516.856 148.61 517.002 148.718 517.104C148.916 517.296 149.109 517.424 149.299 517.486C149.498 517.539 149.763 517.567 150.093 517.571C150.592 517.578 150.984 517.488 151.266 517.301C151.528 517.134 151.729 517.052 151.869 517.054C152.059 517.056 152.203 517.118 152.302 517.239C152.401 517.351 152.449 517.496 152.446 517.676C152.442 518.056 152.193 518.363 151.7 518.597C151.217 518.831 150.67 518.944 150.06 518.936C149.58 518.93 149.106 518.839 148.638 518.663C148.171 518.487 147.799 518.242 147.523 517.928C147.337 517.606 147.172 517.214 147.028 516.752C146.884 516.29 146.814 515.849 146.82 515.429ZM150.143 513.611C149.923 513.609 149.693 513.646 149.452 513.723C149.221 513.79 149.039 513.897 148.908 514.046C148.745 514.214 148.623 514.367 148.542 514.506C148.47 514.645 148.423 514.82 148.4 515.029C148.51 515.031 148.615 515.037 148.715 515.048C148.815 515.06 148.909 515.071 148.999 515.082C149.439 515.128 149.768 515.152 149.988 515.155C150.428 515.16 150.764 515.1 150.996 514.972C151.237 514.846 151.36 514.672 151.363 514.452C151.365 514.242 151.233 514.05 150.965 513.877C150.707 513.704 150.433 513.615 150.143 513.611ZM157.567 513.766C157.428 513.745 157.313 513.683 157.225 513.582C157.146 513.481 157.107 513.36 157.109 513.221C157.11 513.151 157.126 513.076 157.157 512.996C157.198 512.917 157.254 512.847 157.325 512.788C157.456 512.66 157.807 512.599 158.377 512.607C158.462 512.218 158.507 511.823 158.512 511.423C158.514 511.273 158.511 511.143 158.502 511.033C158.494 510.923 158.49 510.838 158.491 510.778C158.493 510.558 158.575 510.394 158.737 510.286C158.908 510.178 159.099 510.126 159.309 510.128C159.569 510.132 159.743 510.199 159.831 510.33C159.93 510.461 159.977 510.702 159.972 511.052C159.966 511.572 159.914 512.081 159.818 512.58C159.978 512.582 160.198 512.575 160.478 512.559C160.858 512.543 161.133 512.537 161.303 512.539C161.473 512.541 161.618 512.588 161.736 512.68C161.865 512.761 161.929 512.877 161.927 513.027C161.922 513.417 161.744 513.645 161.393 513.71C161.022 513.796 160.447 513.843 159.666 513.853C159.631 514.243 159.611 514.668 159.605 515.128C159.596 515.848 159.633 516.438 159.717 516.899C159.773 517.22 159.87 517.456 160.008 517.608C160.157 517.75 160.376 517.823 160.666 517.826C160.836 517.829 161.011 517.786 161.192 517.698C161.313 517.63 161.424 517.596 161.524 517.597C161.664 517.599 161.763 517.645 161.822 517.736C161.891 517.827 161.924 517.947 161.922 518.097C161.919 518.377 161.766 518.61 161.463 518.797C161.161 518.973 160.775 519.058 160.305 519.052C160.015 519.048 159.721 518.974 159.423 518.831C159.134 518.687 158.892 518.509 158.694 518.296C158.665 518.266 158.611 518.15 158.534 517.949C158.456 517.748 158.389 517.532 158.332 517.301C158.238 516.83 158.197 516.17 158.207 515.32C158.212 514.95 158.239 514.455 158.286 513.836L157.567 513.766ZM169.141 514.289C169.219 514.43 169.282 514.636 169.328 514.907C169.375 515.168 169.397 515.403 169.394 515.613C169.389 516.003 169.297 516.557 169.118 517.274C168.412 518.525 167.384 519.142 166.034 519.125C165.534 519.119 165.026 518.947 164.511 518.611C163.995 518.274 163.64 517.889 163.445 517.457C163.186 516.593 163.058 516.047 163.061 515.817C163.066 515.417 163.157 514.993 163.332 514.545C163.518 514.098 163.748 513.71 164.022 513.384C164.195 513.156 164.503 512.965 164.945 512.811C165.387 512.646 165.788 512.566 166.148 512.571C166.848 512.58 167.441 512.723 167.928 512.999C168.414 513.265 168.819 513.695 169.141 514.289ZM167.805 516.688C167.857 516.558 167.886 516.224 167.893 515.684C167.897 515.394 167.846 515.108 167.739 514.827C167.643 514.545 167.496 514.303 167.298 514.101C167.279 514.081 167.224 514.05 167.135 514.009C167.045 513.958 166.921 513.911 166.761 513.869C166.612 513.817 166.437 513.79 166.237 513.787C165.677 513.78 165.265 514 164.999 514.446C164.733 514.893 164.597 515.401 164.589 515.971C164.588 516.071 164.611 516.262 164.657 516.542C164.713 516.823 164.761 516.999 164.8 517.069C164.829 517.14 164.903 517.241 165.021 517.372C165.15 517.494 165.303 517.606 165.482 517.708C165.671 517.8 165.865 517.848 166.065 517.85C166.515 517.856 166.877 517.756 167.149 517.549C167.422 517.333 167.641 517.045 167.805 516.688ZM175.894 516.866C175.889 517.246 175.94 517.542 176.047 517.753C176.165 517.955 176.313 518.056 176.493 518.059C176.593 518.06 176.689 518.056 176.779 518.047C176.869 518.029 176.959 518.02 177.049 518.021C177.149 518.022 177.233 518.073 177.302 518.174C177.381 518.275 177.419 518.386 177.418 518.506C177.415 518.746 177.297 518.934 177.066 519.071C176.844 519.198 176.543 519.26 176.163 519.255C175.893 519.251 175.619 519.168 175.341 519.004C175.073 518.831 174.852 518.568 174.676 518.216C174.501 517.853 174.417 517.407 174.423 516.877C174.438 515.737 174.47 514.773 174.52 513.983C174.582 513.044 174.623 511.859 174.641 510.429C174.647 509.98 174.676 509.665 174.728 509.486C174.79 509.346 174.886 509.243 175.017 509.174C175.158 509.096 175.303 509.058 175.453 509.06C175.603 509.062 175.733 509.088 175.842 509.14C175.962 509.191 176.041 509.272 176.079 509.383C176.118 509.503 176.141 509.624 176.15 509.744C176.168 509.854 176.176 510.014 176.174 510.224C176.168 510.634 176.148 511.029 176.113 511.408C176.088 511.868 176.073 512.203 176.071 512.413C175.968 514.172 175.909 515.656 175.894 516.866ZM184.131 519.357C183.791 519.352 183.531 519.299 183.353 519.197C183.174 519.084 182.982 518.882 182.775 518.589C182.512 518.816 182.12 518.996 181.598 519.129C181.087 519.263 180.646 519.327 180.276 519.322C179.666 519.314 179.173 519.143 178.797 518.808C178.432 518.464 178.253 517.966 178.261 517.316C178.265 517.036 178.343 516.782 178.496 516.554C178.659 516.316 178.867 516.109 179.119 515.932C179.401 515.746 179.733 515.6 180.115 515.495C180.506 515.39 180.862 515.339 181.182 515.344C181.722 515.35 182.201 515.407 182.62 515.512L182.62 515.497C182.627 514.957 182.496 514.585 182.229 514.382C181.972 514.169 181.553 514.058 180.973 514.051C180.603 514.046 180.281 514.207 180.007 514.533C179.905 514.662 179.694 514.724 179.374 514.72C179.214 514.718 179.095 514.652 179.017 514.521C178.949 514.38 178.916 514.239 178.917 514.099C178.921 513.809 179.044 513.561 179.287 513.354C179.54 513.147 179.842 512.996 180.193 512.901C180.544 512.795 180.87 512.744 181.17 512.748C181.46 512.752 181.804 512.816 182.202 512.941C182.601 513.066 182.924 513.231 183.171 513.434C183.468 513.698 183.694 514.006 183.849 514.358C184.015 514.7 184.095 515.076 184.09 515.486C184.088 515.616 184.076 515.811 184.053 516.07C184.029 516.37 184.016 516.615 184.013 516.805C184.012 516.895 184.001 517.01 183.979 517.149C183.956 517.329 183.945 517.479 183.943 517.599C183.941 517.729 183.98 517.854 184.058 517.976C184.137 518.097 184.245 518.198 184.384 518.28C184.513 518.351 184.597 518.427 184.636 518.508C184.675 518.588 184.694 518.679 184.693 518.779C184.692 518.879 184.625 519.003 184.493 519.151C184.371 519.29 184.251 519.358 184.131 519.357ZM181.167 516.453C180.777 516.448 180.432 516.519 180.13 516.665C179.828 516.811 179.674 517.074 179.67 517.454C179.667 517.644 179.73 517.805 179.858 517.937C179.997 518.069 180.146 518.135 180.306 518.138C180.736 518.143 181.096 518.103 181.387 518.016C181.679 517.93 182.031 517.77 182.444 517.535C182.496 517.375 182.529 517.151 182.542 516.861C182.544 516.751 182.55 516.666 182.561 516.606C182.022 516.509 181.557 516.458 181.167 516.453ZM185.737 515.927C185.742 515.567 185.811 515.233 185.945 514.924C186.079 514.606 186.273 514.279 186.528 513.942C186.782 513.605 187.13 513.344 187.573 513.16C188.015 512.966 188.497 512.872 189.017 512.878C189.417 512.884 189.8 512.974 190.168 513.148C190.546 513.313 190.884 513.517 191.18 513.761C191.22 513.832 191.288 513.963 191.385 514.154C191.483 514.335 191.551 514.501 191.589 514.652C191.637 514.802 191.66 514.957 191.658 515.117C191.65 515.787 191.399 516.234 190.906 516.458C190.413 516.672 189.792 516.774 189.042 516.764C188.292 516.755 187.683 516.697 187.214 516.591C187.232 516.781 187.279 516.972 187.357 517.163C187.434 517.354 187.527 517.5 187.636 517.601C187.834 517.794 188.027 517.921 188.216 517.984C188.416 518.036 188.68 518.065 189.01 518.069C189.51 518.075 189.901 517.985 190.184 517.799C190.446 517.632 190.647 517.55 190.787 517.552C190.977 517.554 191.121 517.616 191.22 517.737C191.318 517.848 191.366 517.994 191.364 518.174C191.359 518.554 191.11 518.861 190.617 519.094C190.134 519.328 189.588 519.441 188.978 519.434C188.498 519.427 188.024 519.336 187.556 519.16C187.088 518.984 186.716 518.74 186.44 518.426C186.255 518.104 186.09 517.711 185.945 517.25C185.801 516.788 185.732 516.347 185.737 515.927ZM189.061 514.109C188.841 514.106 188.61 514.143 188.369 514.22C188.139 514.287 187.957 514.395 187.825 514.543C187.663 514.711 187.541 514.865 187.459 515.004C187.388 515.143 187.34 515.317 187.318 515.527C187.428 515.528 187.533 515.535 187.632 515.546C187.732 515.557 187.827 515.569 187.917 515.58C188.356 515.625 188.686 515.649 188.906 515.652C189.346 515.658 189.682 515.597 189.914 515.47C190.155 515.343 190.277 515.17 190.28 514.95C190.283 514.74 190.15 514.548 189.883 514.375C189.625 514.201 189.351 514.113 189.061 514.109ZM195.142 518.837C195.12 519.007 195.048 519.156 194.927 519.285C194.805 519.413 194.649 519.476 194.459 519.474C194.159 519.47 193.94 519.412 193.801 519.3C193.663 519.178 193.596 518.963 193.599 518.653C193.605 518.233 193.636 517.773 193.692 517.274C193.74 516.694 193.765 516.249 193.769 515.94C193.771 515.78 193.764 515.579 193.747 515.339C193.73 515.119 193.722 514.954 193.723 514.844C193.695 514.673 193.627 514.538 193.518 514.436C193.42 514.335 193.261 514.248 193.042 514.175C192.952 514.134 192.878 514.068 192.819 513.977C192.76 513.876 192.732 513.786 192.733 513.706C192.736 513.476 192.828 513.302 193.009 513.185C193.191 513.067 193.412 513.01 193.672 513.013C193.962 513.017 194.21 513.12 194.418 513.323C194.625 513.525 194.782 513.777 194.888 514.079C195.122 513.752 195.406 513.49 195.738 513.294C196.081 513.099 196.412 513.003 196.732 513.007C197.142 513.012 197.486 513.087 197.764 513.23C198.052 513.364 198.195 513.596 198.19 513.926C198.188 514.116 198.1 514.315 197.928 514.523C197.765 514.721 197.599 514.818 197.429 514.816C197.299 514.815 197.145 514.753 196.966 514.63C196.897 514.579 196.817 514.538 196.728 514.507C196.648 514.466 196.564 514.445 196.474 514.444C196.314 514.442 196.163 514.465 196.023 514.513C195.882 514.561 195.786 514.62 195.735 514.69C195.572 514.937 195.449 515.161 195.367 515.36C195.294 515.559 195.256 515.774 195.253 516.004C195.251 516.173 195.245 516.308 195.233 516.408L195.207 517.263L195.215 517.833C195.21 518.253 195.185 518.588 195.142 518.837ZM205.865 518.419C205.915 518.44 205.995 518.466 206.104 518.497C206.214 518.529 206.294 518.56 206.343 518.591C206.393 518.621 206.417 518.666 206.416 518.726C206.423 518.967 206.331 519.165 206.139 519.323C205.957 519.471 205.741 519.543 205.491 519.54C205.101 519.535 204.797 519.426 204.58 519.213C204.363 519 204.207 518.678 204.112 518.247C204.075 518.076 204.058 517.841 204.061 517.541C204.064 517.371 204.077 517.096 204.102 516.717C204.127 516.317 204.141 515.997 204.144 515.757C204.149 515.407 204.053 515.101 203.856 514.838C203.669 514.566 203.401 514.428 203.051 514.423C202.841 514.42 202.62 514.483 202.389 514.61C202.157 514.727 201.995 514.875 201.903 515.053C201.749 515.342 201.64 515.655 201.576 515.994C201.458 516.593 201.395 517.217 201.387 517.867C201.383 518.177 201.385 518.417 201.393 518.587C201.392 518.627 201.391 518.707 201.39 518.827C201.398 518.937 201.387 519.042 201.356 519.142C201.335 519.232 201.294 519.316 201.233 519.395C201.182 519.445 201.101 519.484 200.991 519.512C200.89 519.551 200.795 519.57 200.705 519.569C200.565 519.567 200.391 519.504 200.183 519.382C199.974 519.259 199.856 519.123 199.828 518.972L199.816 518.717C199.817 518.627 199.829 518.522 199.85 518.402C199.979 517.704 200.047 517.095 200.053 516.575C200.056 516.345 200.054 516.165 200.045 516.035L200.039 515.33C200.042 515.09 199.985 514.859 199.868 514.637C199.751 514.406 199.613 514.289 199.453 514.287C199.403 514.286 199.332 514.306 199.242 514.344C199.152 514.373 199.076 514.387 199.016 514.386C198.916 514.385 198.807 514.334 198.688 514.232C198.58 514.131 198.526 514.025 198.527 513.915C198.53 513.705 198.602 513.536 198.744 513.408C198.895 513.29 199.042 513.197 199.182 513.129C199.333 513.06 199.504 513.028 199.694 513.03C199.854 513.032 199.984 513.049 200.083 513.08C200.183 513.111 200.317 513.178 200.486 513.28C200.575 513.331 200.679 513.443 200.796 513.614C200.914 513.786 201.011 514.027 201.087 514.338C201.353 513.861 201.678 513.53 202.06 513.345C202.452 513.15 202.949 513.057 203.549 513.064C203.779 513.067 204.023 513.145 204.281 513.299C204.549 513.452 204.777 513.63 204.964 513.832C205.141 514.055 205.288 514.332 205.403 514.663C205.519 514.985 205.576 515.275 205.572 515.535C205.57 515.685 205.557 515.93 205.533 516.27C205.499 516.54 205.481 516.824 205.477 517.124C205.468 517.824 205.597 518.256 205.865 518.419ZM217.694 519.006C217.692 519.226 217.569 519.409 217.327 519.556C217.095 519.703 216.88 519.775 216.68 519.773C216.3 519.768 215.995 519.719 215.766 519.626C215.548 519.523 215.345 519.341 215.158 519.078C214.895 519.305 214.538 519.475 214.087 519.59C213.635 519.694 213.22 519.744 212.84 519.739C212.22 519.731 211.712 519.559 211.316 519.224C210.92 518.879 210.727 518.382 210.735 517.732C210.739 517.452 210.817 517.198 210.97 516.97C211.123 516.731 211.331 516.524 211.593 516.347C211.885 516.161 212.217 516.02 212.588 515.925C212.96 515.82 213.345 515.77 213.745 515.775C213.955 515.778 214.205 515.821 214.494 515.905C214.783 515.988 215.007 516.076 215.166 516.168L215.169 515.928C215.175 515.388 215.05 515.017 214.793 514.813C214.536 514.6 214.117 514.49 213.537 514.482C213.367 514.48 213.197 514.513 213.026 514.581C212.865 514.649 212.679 514.741 212.467 514.859C212.185 515.005 211.919 515.077 211.669 515.073C211.579 515.072 211.495 515.011 211.417 514.89C211.338 514.759 211.3 514.644 211.301 514.544C211.305 514.254 211.443 514.005 211.716 513.799C211.998 513.592 212.33 513.442 212.711 513.347C213.093 513.241 213.433 513.191 213.733 513.195C214.033 513.198 214.378 513.263 214.766 513.388C215.155 513.503 215.473 513.662 215.72 513.865C216.017 514.129 216.243 514.437 216.398 514.789C216.564 515.131 216.644 515.507 216.639 515.917C216.637 516.047 216.625 516.242 216.601 516.502C216.578 516.781 216.565 517.021 216.562 517.221C216.561 517.311 216.549 517.446 216.527 517.626C216.504 517.845 216.492 518.02 216.49 518.15C216.489 518.27 216.532 518.376 216.621 518.467C216.71 518.548 216.815 518.589 216.935 518.591L217.355 518.581C217.465 518.583 217.549 518.624 217.608 518.705C217.667 518.785 217.696 518.886 217.694 519.006ZM212.87 518.554C213.3 518.559 213.66 518.519 213.951 518.433C214.243 518.347 214.595 518.186 215.008 517.951C215.05 517.782 215.078 517.557 215.091 517.277C214.545 517.01 214.091 516.874 213.731 516.87C213.321 516.865 212.956 516.935 212.634 517.081C212.312 517.227 212.148 517.49 212.144 517.87C212.141 518.06 212.219 518.221 212.377 518.353C212.536 518.485 212.7 518.552 212.87 518.554ZM219.077 517.043C219.084 516.483 219.094 516.058 219.108 515.769L219.141 514.344C219.149 513.764 219.142 513.129 219.121 512.438C219.113 512.228 219.082 511.938 219.027 511.567C218.954 511.006 218.919 510.586 218.923 510.306C218.929 509.846 219.162 509.619 219.622 509.625C219.912 509.628 220.116 509.711 220.234 509.872C220.362 510.024 220.449 510.265 220.494 510.596C220.586 511.287 220.625 512.098 220.613 513.028C220.61 513.308 220.594 513.727 220.567 514.287C220.761 513.99 221.009 513.758 221.311 513.592C221.623 513.425 221.929 513.344 222.229 513.348C223.099 513.359 223.845 513.729 224.465 514.457C224.632 514.709 224.778 515.011 224.904 515.363C225.04 515.704 225.106 516 225.103 516.25C225.097 516.69 225.042 517.095 224.937 517.463C224.842 517.832 224.673 518.19 224.428 518.537C224.184 518.884 223.875 519.165 223.502 519.38C223.14 519.595 222.718 519.7 222.238 519.694C221.818 519.688 221.439 519.599 221.102 519.424C220.774 519.25 220.512 519.022 220.315 518.739C220.262 518.989 220.149 519.237 219.976 519.485C219.803 519.723 219.606 519.84 219.386 519.837C219.206 519.835 219.057 519.788 218.938 519.697C218.819 519.595 218.761 519.449 218.764 519.259C218.765 519.119 218.798 518.945 218.86 518.736C218.924 518.446 218.972 518.182 219.005 517.942C219.049 517.693 219.072 517.393 219.077 517.043ZM221.879 518.444C222.369 518.45 222.781 518.286 223.116 517.95C223.45 517.604 223.621 517.136 223.629 516.546C223.636 516.006 223.496 515.54 223.212 515.146C223.113 515.015 222.97 514.908 222.781 514.825C222.602 514.743 222.422 514.701 222.242 514.699C221.822 514.693 221.466 514.814 221.172 515.06C220.879 515.296 220.71 515.629 220.665 516.058C220.617 516.638 220.591 517.138 220.585 517.558C220.702 517.789 220.88 517.996 221.118 518.179C221.365 518.353 221.619 518.441 221.879 518.444ZM232.446 515.099C232.524 515.24 232.586 515.446 232.633 515.716C232.68 515.977 232.702 516.212 232.699 516.422C232.695 516.692 232.662 516.992 232.597 517.321C232.533 517.65 232.475 517.905 232.423 518.084C231.717 519.335 230.689 519.952 229.339 519.935C228.839 519.928 228.331 519.757 227.815 519.42C227.299 519.084 226.944 518.699 226.75 518.266C226.491 517.413 226.363 516.866 226.366 516.626C226.371 516.226 226.461 515.803 226.637 515.355C226.823 514.907 227.053 514.52 227.327 514.193C227.51 513.966 227.822 513.775 228.264 513.62C228.707 513.456 229.108 513.376 229.468 513.381C230.167 513.39 230.756 513.532 231.232 513.808C231.719 514.075 232.123 514.505 232.446 515.099ZM231.11 517.497C231.161 517.398 231.191 517.063 231.198 516.493C231.202 516.203 231.15 515.918 231.044 515.636C230.947 515.355 230.801 515.113 230.603 514.91C230.583 514.89 230.529 514.859 230.439 514.818C230.35 514.767 230.225 514.721 230.066 514.679C229.917 514.627 229.742 514.599 229.542 514.597C228.982 514.59 228.569 514.809 228.303 515.256C228.038 515.703 227.901 516.211 227.894 516.781C227.893 516.871 227.92 517.056 227.977 517.337C228.033 517.618 228.076 517.798 228.105 517.879C228.183 518.02 228.341 518.187 228.579 518.38C228.826 518.563 229.095 518.656 229.385 518.66C229.835 518.666 230.191 518.565 230.454 518.359C230.727 518.142 230.945 517.855 231.11 517.497ZM233.991 514.879C233.911 514.878 233.841 514.847 233.782 514.786C233.723 514.715 233.694 514.635 233.695 514.545C233.699 514.255 233.797 514.036 233.989 513.889C234.181 513.731 234.417 513.654 234.697 513.658C235.087 513.663 235.42 513.772 235.698 513.986C235.985 514.189 236.126 514.481 236.121 514.861C236.12 514.961 236.095 515.341 236.047 516C235.997 516.76 235.971 517.264 235.967 517.514C235.963 517.864 236.024 518.15 236.151 518.372C236.289 518.583 236.502 518.691 236.792 518.695C237.352 518.702 237.786 518.398 238.094 517.781C238.412 517.155 238.627 516.388 238.739 515.48C238.784 515.08 238.849 514.661 238.935 514.222C238.978 513.982 239.035 513.808 239.106 513.699C239.178 513.59 239.314 513.537 239.514 513.539C239.644 513.541 239.793 513.573 239.962 513.635C240.142 513.697 240.256 513.779 240.304 513.879C240.362 514.03 240.39 514.196 240.388 514.376C240.385 514.625 240.346 514.95 240.27 515.349C240.185 515.748 240.125 516.182 240.089 516.652C240.063 517.072 240.123 517.512 240.267 517.974C240.411 518.436 240.622 518.739 240.9 518.882C241.218 519.047 241.376 519.194 241.375 519.324C241.372 519.534 241.295 519.698 241.143 519.816C240.992 519.934 240.846 519.992 240.706 519.99C240.336 519.985 240.003 519.846 239.706 519.572C239.42 519.299 239.214 518.961 239.089 518.559C238.875 518.877 238.667 519.139 238.464 519.346C238.272 519.544 238.024 519.711 237.723 519.847C237.421 519.973 237.05 520.033 236.61 520.028C236.09 520.021 235.618 519.83 235.193 519.454C234.777 519.079 234.575 518.442 234.587 517.542C234.59 517.292 234.599 517.027 234.612 516.747C234.636 516.467 234.648 516.267 234.65 516.147C234.684 515.788 234.704 515.458 234.707 515.158C234.709 515.068 234.675 514.993 234.605 514.932C234.546 514.871 234.476 514.84 234.396 514.839C234.337 514.838 234.266 514.847 234.186 514.866C234.116 514.875 234.051 514.88 233.991 514.879ZM242.522 514.853C242.382 514.831 242.268 514.77 242.179 514.668C242.101 514.567 242.062 514.447 242.064 514.307C242.065 514.237 242.081 514.162 242.112 514.083C242.153 514.003 242.209 513.934 242.279 513.875C242.411 513.766 242.587 513.664 242.808 513.566C243.04 513.479 243.206 513.371 243.308 513.243C243.409 513.114 243.462 512.87 243.467 512.51C243.469 512.36 243.461 512.23 243.442 512.119C243.433 512.009 243.429 511.924 243.43 511.864C243.433 511.644 243.515 511.48 243.677 511.372C243.838 511.264 244.024 511.212 244.234 511.214C244.494 511.218 244.668 511.285 244.756 511.416C244.854 511.547 244.901 511.788 244.897 512.138C244.893 512.478 244.874 512.773 244.841 513.022C244.807 513.262 244.74 513.476 244.637 513.665C244.777 513.667 245.007 513.66 245.328 513.644C245.768 513.629 246.073 513.623 246.243 513.625C246.413 513.627 246.562 513.674 246.691 513.766C246.82 513.848 246.884 513.964 246.882 514.114C246.879 514.324 246.832 514.478 246.741 514.577C246.65 514.676 246.519 514.739 246.348 514.767C245.937 514.872 245.356 514.929 244.606 514.939C244.581 515.329 244.566 515.754 244.56 516.214C244.55 516.984 244.587 517.574 244.672 517.986C244.728 518.306 244.825 518.543 244.963 518.694C245.111 518.836 245.33 518.909 245.62 518.913C245.77 518.915 245.891 518.896 245.981 518.857C246.082 518.819 246.137 518.794 246.147 518.785C246.268 518.716 246.378 518.682 246.478 518.684C246.618 518.686 246.718 518.732 246.777 518.823C246.845 518.913 246.879 519.034 246.877 519.184C246.873 519.464 246.72 519.697 246.418 519.883C246.116 520.059 245.73 520.144 245.26 520.138C244.73 520.132 244.282 519.971 243.916 519.656C243.56 519.331 243.35 518.909 243.287 518.388C243.193 517.917 243.151 517.256 243.162 516.406C243.167 516.036 243.193 515.541 243.241 514.922L242.522 514.853ZM251.5 514.968C251.36 514.946 251.246 514.884 251.157 514.783C251.079 514.682 251.04 514.562 251.042 514.422C251.043 514.352 251.059 514.277 251.09 514.197C251.131 514.118 251.187 514.049 251.257 513.989C251.389 513.861 251.74 513.801 252.31 513.808C252.395 513.419 252.44 513.025 252.445 512.625C252.447 512.475 252.444 512.345 252.435 512.234C252.426 512.124 252.423 512.039 252.423 511.979C252.426 511.759 252.508 511.595 252.67 511.487C252.841 511.38 253.032 511.327 253.242 511.33C253.502 511.333 253.676 511.4 253.764 511.531C253.862 511.663 253.909 511.903 253.905 512.253C253.898 512.773 253.847 513.283 253.75 513.781C253.91 513.783 254.13 513.776 254.411 513.76C254.791 513.745 255.066 513.738 255.236 513.74C255.406 513.743 255.55 513.789 255.669 513.881C255.798 513.963 255.862 514.078 255.86 514.228C255.855 514.618 255.677 514.846 255.326 514.912C254.955 514.997 254.379 515.044 253.599 515.055C253.564 515.444 253.544 515.869 253.538 516.329C253.529 517.049 253.566 517.639 253.65 518.1C253.706 518.421 253.803 518.657 253.941 518.809C254.089 518.951 254.308 519.024 254.598 519.028C254.768 519.03 254.944 518.987 255.125 518.899C255.246 518.831 255.356 518.797 255.456 518.799C255.596 518.8 255.696 518.847 255.755 518.937C255.823 519.028 255.857 519.149 255.855 519.299C255.851 519.579 255.698 519.812 255.396 519.998C255.094 520.174 254.708 520.259 254.238 520.253C253.948 520.249 253.654 520.176 253.355 520.032C253.067 519.888 252.824 519.71 252.627 519.497C252.598 519.467 252.544 519.351 252.467 519.15C252.389 518.949 252.322 518.733 252.265 518.503C252.171 518.031 252.129 517.371 252.14 516.521C252.145 516.151 252.171 515.656 252.219 515.037L251.5 514.968ZM263.192 520.353C262.442 520.343 261.941 520.047 261.688 519.463C261.562 519.172 261.482 518.796 261.447 518.335C261.413 517.865 261.4 517.314 261.409 516.684L261.414 516.22C261.424 515.5 261.188 515.137 260.708 515.13C260.428 515.127 260.147 515.268 259.863 515.555C259.579 515.831 259.339 516.203 259.143 516.671C258.958 517.128 258.862 517.607 258.855 518.107C258.851 518.437 258.862 518.737 258.889 519.007C258.904 519.348 258.911 519.608 258.909 519.788C258.904 520.128 258.667 520.295 258.197 520.289C257.967 520.286 257.763 520.233 257.584 520.131C257.415 520.029 257.332 519.898 257.334 519.738C257.381 519.228 257.409 518.599 257.418 517.849L257.429 515.869C257.433 515.549 257.423 514.363 257.399 512.313L257.372 510.932C257.375 510.712 257.477 510.524 257.679 510.366C257.881 510.199 258.107 510.117 258.357 510.12C258.577 510.123 258.737 510.175 258.835 510.276C258.934 510.377 258.982 510.533 258.979 510.743C258.976 511.003 258.967 511.308 258.953 511.658C258.938 511.998 258.925 512.257 258.913 512.437C258.876 512.947 258.855 513.457 258.848 513.967C258.842 514.466 258.827 514.861 258.803 515.151C259.109 514.715 259.453 514.394 259.835 514.189C260.228 513.974 260.684 513.87 261.204 513.877C261.584 513.882 261.932 514.056 262.248 514.4C262.574 514.734 262.769 515.117 262.833 515.548C262.85 515.768 262.856 516.093 262.851 516.523L262.822 517.618C262.82 517.788 262.826 518.053 262.842 518.413C262.849 518.583 262.902 518.764 263 518.955C263.107 519.146 263.23 519.288 263.369 519.38C263.498 519.461 263.582 519.543 263.621 519.623C263.66 519.704 263.679 519.794 263.678 519.894C263.676 519.994 263.63 520.098 263.539 520.207C263.447 520.306 263.332 520.354 263.192 520.353ZM264.654 517.146C264.659 516.766 264.734 516.387 264.879 516.009C265.024 515.621 265.213 515.268 265.447 514.951C265.681 514.634 266.05 514.379 266.552 514.185C267.055 513.981 267.501 513.882 267.891 513.887C268.291 513.892 268.695 513.952 269.104 514.068C269.522 514.183 269.81 514.357 269.967 514.589C270.33 515.113 270.509 515.626 270.503 516.126C270.499 516.396 270.436 516.625 270.314 516.813C270.201 517.002 270.039 517.205 269.826 517.422C269.654 517.6 269.382 517.717 269.011 517.772C268.651 517.827 268.29 517.853 267.93 517.848C267.7 517.845 267.421 517.821 267.091 517.777C266.762 517.723 266.443 517.659 266.134 517.585C266.151 517.785 266.198 517.981 266.276 518.172C266.354 518.363 266.447 518.509 266.555 518.61C266.753 518.803 266.956 518.926 267.166 518.978C267.385 519.031 267.665 519.06 268.005 519.064C268.365 519.069 268.7 519.013 269.012 518.897C269.263 518.81 269.469 518.768 269.629 518.77C269.819 518.772 269.963 518.834 270.061 518.955C270.16 519.067 270.208 519.212 270.206 519.392C270.203 519.642 270.055 519.845 269.763 520.002C269.471 520.158 269.134 520.274 268.753 520.349C268.383 520.414 268.082 520.445 267.852 520.442C267.382 520.436 266.928 520.345 266.49 520.17C266.053 519.994 265.691 519.75 265.405 519.436C265.168 519.153 264.983 518.815 264.848 518.424C264.713 518.022 264.648 517.596 264.654 517.146ZM267.95 515.163C267.73 515.16 267.509 515.202 267.288 515.29C267.067 515.367 266.885 515.479 266.744 515.628C266.561 515.815 266.434 515.969 266.363 516.088C266.301 516.197 266.259 516.351 266.237 516.551C266.486 516.634 267.005 516.681 267.795 516.691C268.225 516.697 268.556 516.636 268.787 516.509C269.029 516.382 269.151 516.213 269.154 516.003C269.157 515.794 269.029 515.602 268.771 515.429C268.513 515.255 268.24 515.167 267.95 515.163ZM280.949 520.595C280.609 520.59 280.35 520.537 280.171 520.435C279.992 520.322 279.8 520.12 279.594 519.827C279.331 520.054 278.938 520.234 278.417 520.367C277.905 520.501 277.464 520.565 277.094 520.56C276.484 520.553 275.991 520.381 275.615 520.046C275.25 519.702 275.071 519.204 275.079 518.554C275.083 518.274 275.161 518.02 275.314 517.792C275.477 517.554 275.685 517.347 275.937 517.17C276.22 516.984 276.551 516.838 276.933 516.733C277.324 516.628 277.68 516.578 278 516.582C278.54 516.589 279.019 516.645 279.438 516.75L279.438 516.735C279.445 516.195 279.315 515.823 279.047 515.62C278.79 515.407 278.371 515.296 277.791 515.289C277.421 515.284 277.099 515.445 276.825 515.772C276.723 515.9 276.513 515.963 276.193 515.958C276.033 515.956 275.914 515.89 275.835 515.759C275.767 515.618 275.734 515.478 275.736 515.338C275.739 515.048 275.863 514.799 276.105 514.592C276.358 514.385 276.66 514.234 277.011 514.139C277.362 514.033 277.688 513.982 277.988 513.986C278.278 513.99 278.622 514.054 279.021 514.18C279.419 514.305 279.742 514.469 279.989 514.672C280.286 514.936 280.512 515.244 280.668 515.596C280.833 515.938 280.914 516.314 280.908 516.724C280.907 516.854 280.894 517.049 280.871 517.308C280.847 517.608 280.834 517.853 280.831 518.043C280.83 518.133 280.819 518.248 280.797 518.388C280.775 518.567 280.763 518.717 280.761 518.837C280.76 518.967 280.798 519.093 280.876 519.214C280.955 519.335 281.064 519.436 281.203 519.518C281.332 519.589 281.416 519.666 281.455 519.746C281.494 519.827 281.513 519.917 281.511 520.017C281.51 520.117 281.443 520.241 281.311 520.389C281.19 520.528 281.069 520.596 280.949 520.595ZM277.986 517.692C277.596 517.687 277.25 517.757 276.948 517.903C276.646 518.049 276.493 518.313 276.488 518.692C276.485 518.882 276.548 519.043 276.677 519.175C276.815 519.307 276.964 519.374 277.124 519.376C277.554 519.381 277.915 519.341 278.206 519.254C278.497 519.168 278.849 519.008 279.262 518.773C279.314 518.614 279.347 518.389 279.361 518.099C279.362 517.989 279.368 517.904 279.379 517.844C278.84 517.747 278.376 517.697 277.986 517.692ZM283.044 515.341C282.954 515.34 282.869 515.349 282.789 515.368C282.708 515.377 282.628 515.381 282.548 515.38C282.438 515.378 282.334 515.327 282.235 515.226C282.147 515.125 282.103 515.034 282.104 514.954C282.107 514.694 282.24 514.496 282.501 514.359C282.763 514.212 283.029 514.141 283.299 514.144C283.529 514.147 283.763 514.23 284.001 514.393C284.249 514.546 284.432 514.744 284.549 514.985C284.813 514.679 285.135 514.458 285.517 514.323C285.899 514.187 286.295 514.123 286.705 514.128C287.165 514.134 287.588 514.284 287.974 514.579C288.37 514.874 288.681 515.248 288.905 515.701C289.129 516.144 289.239 516.585 289.233 517.025C289.227 517.455 289.178 517.84 289.083 518.179C288.989 518.507 288.825 518.84 288.59 519.177C288.326 519.534 287.972 519.824 287.529 520.049C287.096 520.273 286.58 520.382 285.98 520.374C285.82 520.372 285.625 520.329 285.396 520.247C285.168 520.154 284.979 520.056 284.83 519.954C284.751 520.633 284.709 521.223 284.703 521.723C284.699 522.023 284.71 522.308 284.737 522.578C284.752 522.899 284.76 523.129 284.758 523.269C284.755 523.489 284.678 523.648 284.527 523.746C284.375 523.854 284.21 523.907 284.03 523.904C283.67 523.9 283.431 523.797 283.313 523.595C283.206 523.404 283.154 523.128 283.159 522.768C283.21 521.909 283.27 521.114 283.339 520.385C283.411 519.486 283.459 518.097 283.483 516.217C283.485 516.037 283.453 515.846 283.385 515.645C283.318 515.445 283.204 515.343 283.044 515.341ZM284.909 518.47C284.957 518.661 285.095 518.823 285.323 518.955C285.561 519.079 285.776 519.141 285.966 519.144C286.536 519.151 286.962 519.001 287.246 518.695C287.459 518.478 287.597 518.265 287.66 518.055C287.732 517.846 287.772 517.512 287.777 517.052C287.782 516.692 287.716 516.391 287.579 516.149C287.442 515.897 287.275 515.715 287.076 515.603C286.878 515.48 286.688 515.418 286.508 515.415C286.098 515.41 285.762 515.531 285.499 515.777C285.246 516.014 285.081 516.342 285.006 516.761C284.952 517.091 284.919 517.66 284.909 518.47ZM290.983 515.443C290.893 515.441 290.808 515.45 290.727 515.469C290.647 515.478 290.567 515.482 290.487 515.481C290.377 515.48 290.273 515.428 290.174 515.327C290.085 515.226 290.042 515.136 290.043 515.056C290.046 514.796 290.179 514.597 290.44 514.461C290.702 514.314 290.968 514.242 291.238 514.246C291.468 514.249 291.702 514.332 291.94 514.495C292.188 514.648 292.371 514.845 292.487 515.087C292.751 514.78 293.074 514.559 293.456 514.424C293.838 514.289 294.234 514.224 294.644 514.229C295.104 514.235 295.527 514.386 295.913 514.681C296.309 514.976 296.619 515.35 296.844 515.803C297.068 516.245 297.177 516.687 297.172 517.127C297.166 517.557 297.116 517.941 297.022 518.28C296.928 518.609 296.764 518.942 296.529 519.279C296.265 519.635 295.911 519.926 295.468 520.15C295.035 520.375 294.519 520.483 293.919 520.476C293.759 520.473 293.564 520.431 293.335 520.348C293.106 520.255 292.918 520.158 292.769 520.056C292.69 520.735 292.648 521.324 292.641 521.824C292.637 522.124 292.649 522.409 292.675 522.68C292.691 523 292.698 523.23 292.697 523.37C292.694 523.59 292.617 523.749 292.465 523.847C292.314 523.955 292.148 524.008 291.968 524.006C291.608 524.001 291.37 523.898 291.252 523.697C291.145 523.505 291.093 523.23 291.098 522.87C291.149 522.01 291.209 521.216 291.278 520.487C291.35 519.588 291.398 518.198 291.422 516.318C291.424 516.138 291.391 515.948 291.324 515.747C291.256 515.546 291.143 515.445 290.983 515.443ZM292.848 518.572C292.895 518.762 293.033 518.924 293.262 519.057C293.5 519.18 293.714 519.243 293.904 519.245C294.474 519.253 294.901 519.103 295.185 518.797C295.398 518.579 295.536 518.366 295.598 518.157C295.671 517.948 295.71 517.613 295.716 517.153C295.721 516.793 295.655 516.492 295.518 516.251C295.381 515.999 295.213 515.817 295.015 515.704C294.816 515.582 294.627 515.519 294.447 515.517C294.037 515.512 293.701 515.632 293.437 515.879C293.184 516.116 293.02 516.444 292.945 516.863C292.891 517.192 292.858 517.762 292.848 518.572Z" fill="#7B00FF"/>
</g>
<path fill-rule="evenodd" clip-rule="evenodd" d="M183.333 304.697V274.433C194.888 279.488 203.837 284.372 214.421 289.637C205.691 294.139 194.888 299.189 183.333 304.697ZM247.728 259.381C245.735 256.94 242.338 255.039 238.721 254.41C228.091 252.533 161.772 252.527 151.147 254.41C148.247 254.915 145.664 256.137 143.446 258.036C134.098 266.103 137.027 309.365 139.28 316.372C140.228 319.406 141.453 321.593 142.995 323.029C144.983 324.928 147.704 326.235 150.829 326.821C159.582 328.504 204.675 329.446 238.536 327.074C241.656 326.568 244.417 325.219 246.595 323.24C255.238 315.205 254.649 269.514 247.728 259.381Z" fill="#FF0000"/>
<defs>
<linearGradient id="paint0_linear_8_3" x1="208.289" y1="144.843" x2="214.127" y2="203.926" gradientUnits="userSpaceOnUse">
<stop stop-color="#17BEE3"/>
<stop offset="0.379361" stop-color="#6458E5"/>
<stop offset="0.833729" stop-color="#6D1EB7"/>
</linearGradient>
<clipPath id="clip0_8_3">
<rect width="212" height="95" fill="white" transform="translate(89 114)"/>
</clipPath>
<clipPath id="clip1_8_3">
<rect width="212" height="49" fill="white" transform="translate(89 373)"/>
</clipPath>
<clipPath id="clip2_8_3">
<rect width="212" height="24" fill="white" transform="translate(88.9993 505.006)"/>
</clipPath>
</defs>
</svg>
