<svg width="89" height="33" viewBox="0 0 89 33" fill="none" xmlns="http://www.w3.org/2000/svg">
<path d="M6.84 25.576C5.496 25.576 4.312 25.3413 3.288 24.872C2.264 24.4027 1.47467 23.752 0.92 22.92C0.365333 22.0667 0.0880001 21.0853 0.0880001 19.976C0.0880001 19.0373 0.28 18.184 0.664 17.416C1.06933 16.648 1.60267 16.04 2.264 15.592C2.94667 15.144 3.69333 14.92 4.504 14.92C5.25067 14.92 5.88 15.112 6.392 15.496C6.904 15.8587 7.224 16.3707 7.352 17.032C6.24267 17.032 5.35733 17.3307 4.696 17.928C4.03467 18.504 3.704 19.2933 3.704 20.296C3.704 21.2133 3.98133 21.9493 4.536 22.504C5.09067 23.0587 5.82667 23.336 6.744 23.336C7.87467 23.336 8.80267 22.9627 9.528 22.216C10.2747 21.448 10.648 20.488 10.648 19.336C10.648 18.3333 10.3707 17.384 9.816 16.488C9.26133 15.592 8.42933 14.504 7.32 13.224C6.168 11.9013 5.29333 10.7707 4.696 9.832C4.12 8.872 3.832 7.82667 3.832 6.696C3.832 5.58667 4.14133 4.59467 4.76 3.72C5.37867 2.824 6.232 2.12 7.32 1.608C8.408 1.096 9.63467 0.839998 11 0.839998C12.728 0.839998 14.104 1.24533 15.128 2.056C16.1733 2.86667 16.696 3.95467 16.696 5.32C16.696 6.216 16.472 6.94133 16.024 7.496C15.576 8.05067 14.9893 8.328 14.264 8.328C13.4533 8.328 12.8027 7.99733 12.312 7.336C12.7173 7.03733 13.0373 6.64267 13.272 6.152C13.5067 5.66133 13.624 5.14933 13.624 4.616C13.624 3.93333 13.4213 3.38933 13.016 2.984C12.6107 2.57867 12.056 2.376 11.352 2.376C10.4987 2.376 9.79467 2.68533 9.24 3.304C8.70667 3.90133 8.44 4.66933 8.44 5.608C8.44 6.46133 8.68533 7.26133 9.176 8.008C9.66667 8.73333 10.4347 9.672 11.48 10.824C12.3333 11.7413 13.016 12.5307 13.528 13.192C14.0613 13.8533 14.5093 14.6213 14.872 15.496C15.256 16.3493 15.448 17.2773 15.448 18.28C15.448 19.6453 15.064 20.8827 14.296 21.992C13.5493 23.1013 12.5147 23.976 11.192 24.616C9.89067 25.256 8.44 25.576 6.84 25.576ZM22.242 33C21.218 33 20.3647 32.7333 19.682 32.2C18.9993 31.6667 18.658 30.8987 18.658 29.896C18.658 28.68 19.1487 27.6987 20.13 26.952C21.1113 26.2267 22.3593 25.6187 23.874 25.128L24.258 23.4C23.6393 24.0827 23.01 24.552 22.37 24.808C21.73 25.064 21.0793 25.192 20.418 25.192C19.394 25.192 18.562 24.872 17.922 24.232C17.3033 23.592 16.994 22.632 16.994 21.352C16.994 20.8187 17.0793 20.1253 17.25 19.272L19.426 9H24.034L21.73 19.88C21.666 20.136 21.634 20.4027 21.634 20.68C21.634 21.6187 21.954 22.088 22.594 22.088C23.1487 22.088 23.6393 21.8533 24.066 21.384C24.4927 20.8933 24.834 20.2533 25.09 19.464L27.33 9H31.938L28.77 23.848C29.794 23.5067 30.6153 22.9947 31.234 22.312C31.8527 21.6293 32.3753 20.616 32.802 19.272H34.146C33.57 21.1707 32.7913 22.568 31.81 23.464C30.8287 24.3387 29.7193 24.936 28.482 25.256L28.002 27.56C27.5753 29.6293 26.8393 31.048 25.794 31.816C24.7487 32.6053 23.5647 33 22.242 33ZM21.506 30.504C21.8687 30.504 22.2207 30.2587 22.562 29.768C22.9033 29.2773 23.17 28.5733 23.362 27.656L23.554 26.728C21.4633 27.496 20.418 28.4027 20.418 29.448C20.418 29.7253 20.514 29.9707 20.706 30.184C20.898 30.3973 21.1647 30.504 21.506 30.504ZM44.3645 25.192C43.0632 25.192 42.1032 24.8507 41.4845 24.168C40.8872 23.464 40.5885 22.6 40.5885 21.576C40.5885 21.128 40.6418 20.6267 40.7485 20.072C40.8552 19.496 40.9618 18.9413 41.0685 18.408C41.1965 17.8747 41.2818 17.5333 41.3245 17.384C41.4952 16.6373 41.6552 15.9013 41.8045 15.176C41.9538 14.4507 42.0285 13.864 42.0285 13.416C42.0285 12.328 41.6445 11.784 40.8765 11.784C40.3218 11.784 39.8312 12.0613 39.4045 12.616C38.9778 13.1493 38.6365 13.8533 38.3805 14.728L36.2045 25H31.5965L34.9885 9H39.5965L39.2445 10.664C40.3112 9.46933 41.5592 8.872 42.9885 8.872C44.0765 8.872 44.9405 9.17067 45.5805 9.768C46.2205 10.3653 46.5405 11.272 46.5405 12.488C46.5405 13.1067 46.4658 13.8 46.3165 14.568C46.1672 15.3147 45.9538 16.232 45.6765 17.32C45.5058 17.9813 45.3458 18.632 45.1965 19.272C45.0685 19.8907 45.0045 20.3813 45.0045 20.744C45.0045 21.1707 45.1005 21.5013 45.2925 21.736C45.4845 21.9707 45.8152 22.088 46.2845 22.088C46.9245 22.088 47.4365 21.864 47.8205 21.416C48.2045 20.9467 48.5885 20.232 48.9725 19.272H50.3165C49.5272 21.6187 48.6098 23.1973 47.5645 24.008C46.5405 24.7973 45.4738 25.192 44.3645 25.192ZM53.5448 25.192C51.9661 25.192 50.7394 24.7867 49.8648 23.976C48.9901 23.144 48.5527 21.8533 48.5527 20.104C48.5527 18.632 48.8407 17.0107 49.4168 15.24C50.0141 13.4693 50.9528 11.944 52.2328 10.664C53.5341 9.36267 55.1768 8.712 57.1608 8.712C58.4408 8.712 59.3474 8.98933 59.8808 9.544C60.4354 10.0987 60.7128 10.8027 60.7128 11.656C60.7128 12.4027 60.5528 12.9787 60.2328 13.384C59.9128 13.7893 59.5074 13.992 59.0168 13.992C58.6541 13.992 58.2808 13.864 57.8968 13.608C58.1528 12.904 58.2808 12.2747 58.2808 11.72C58.2808 11.3147 58.2061 10.9947 58.0568 10.76C57.9074 10.5253 57.6834 10.408 57.3848 10.408C56.7448 10.408 56.1048 10.9307 55.4648 11.976C54.8248 13.0213 54.3021 14.2907 53.8968 15.784C53.4914 17.2773 53.2888 18.6213 53.2888 19.816C53.2888 20.8613 53.4701 21.576 53.8328 21.96C54.1954 22.3227 54.7821 22.504 55.5928 22.504C56.7448 22.504 57.7261 22.2373 58.5368 21.704C59.3688 21.1707 60.2754 20.36 61.2568 19.272H62.3448C59.9768 23.2187 57.0434 25.192 53.5448 25.192ZM63.426 9H68.034L67.618 10.984C68.3433 10.344 68.994 9.85333 69.57 9.512C70.1673 9.17067 70.8073 9 71.49 9C72.1727 9 72.706 9.23467 73.09 9.704C73.4953 10.1733 73.698 10.7387 73.698 11.4C73.698 12.0187 73.4953 12.5627 73.09 13.032C72.6847 13.5013 72.1193 13.736 71.394 13.736C70.9247 13.736 70.6047 13.6293 70.434 13.416C70.2847 13.1813 70.1673 12.8507 70.082 12.424C70.018 12.1467 69.954 11.944 69.89 11.816C69.826 11.688 69.7087 11.624 69.538 11.624C69.09 11.624 68.706 11.72 68.386 11.912C68.0873 12.0827 67.6927 12.392 67.202 12.84L64.642 25H60.034L63.426 9ZM77.9533 25.128C76.3746 25.128 75.1266 24.7227 74.2093 23.912C73.2919 23.1013 72.8332 21.8213 72.8332 20.072C72.8332 18.6 73.1212 16.9893 73.6973 15.24C74.2733 13.4693 75.2119 11.944 76.5133 10.664C77.8146 9.36267 79.4786 8.712 81.5052 8.712C84.0226 8.712 85.3773 10.152 85.5693 13.032C86.0386 12.9253 86.4546 12.6693 86.8173 12.264C87.1799 11.8373 87.5213 11.3573 87.8413 10.824H88.8653C88.2893 11.976 87.7773 12.8827 87.3293 13.544C86.8813 14.184 86.2946 14.7067 85.5693 15.112C85.4413 17.1173 85.0253 18.8773 84.3213 20.392C83.6386 21.9067 82.7426 23.08 81.6333 23.912C80.5239 24.7227 79.2973 25.128 77.9533 25.128ZM79.2333 22.248C80.0226 22.248 80.7586 21.608 81.4413 20.328C82.1239 19.048 82.5933 17.4693 82.8493 15.592C82.3373 15.4 82.0813 14.92 82.0813 14.152C82.0813 13.32 82.3799 12.7653 82.9773 12.488C82.9346 11.8053 82.8173 11.336 82.6253 11.08C82.4546 10.8027 82.1666 10.664 81.7613 10.664C81.0573 10.664 80.3853 11.176 79.7453 12.2C79.1053 13.2027 78.5826 14.4293 78.1773 15.88C77.7933 17.3093 77.6013 18.568 77.6013 19.656C77.6013 20.68 77.7186 21.3733 77.9533 21.736C78.1879 22.0773 78.6146 22.248 79.2333 22.248Z" fill="url(#paint0_linear_1_2)"/>
<defs>
<linearGradient id="paint0_linear_1_2" x1="50.0789" y1="10.7139" x2="51.762" y2="31.3001" gradientUnits="userSpaceOnUse">
<stop stop-color="#17BEE3"/>
<stop offset="0.379361" stop-color="#6458E5"/>
<stop offset="0.833729" stop-color="#6D1EB7"/>
</linearGradient>
</defs>
</svg>
