<svg width="356" height="129" viewBox="0 0 356 129" fill="none" xmlns="http://www.w3.org/2000/svg">
<path d="M27.36 99.304C21.984 99.304 17.248 98.3653 13.152 96.488C9.056 94.6107 5.89867 92.008 3.68 88.68C1.46133 85.2667 0.352 81.3413 0.352 76.904C0.352 73.1493 1.12 69.736 2.656 66.664C4.27733 63.592 6.41067 61.16 9.056 59.368C11.7867 57.576 14.7733 56.68 18.016 56.68C21.0027 56.68 23.52 57.448 25.568 58.984C27.616 60.4347 28.896 62.4827 29.408 65.128C24.9707 65.128 21.4293 66.3227 18.784 68.712C16.1387 71.016 14.816 74.1733 14.816 78.184C14.816 81.8533 15.9253 84.7973 18.144 87.016C20.3627 89.2347 23.3067 90.344 26.976 90.344C31.4987 90.344 35.2107 88.8507 38.112 85.864C41.0987 82.792 42.592 78.952 42.592 74.344C42.592 70.3333 41.4827 66.536 39.264 62.952C37.0453 59.368 33.7173 55.016 29.28 49.896C24.672 44.6053 21.1733 40.0827 18.784 36.328C16.48 32.488 15.328 28.3067 15.328 23.784C15.328 19.3467 16.5653 15.3787 19.04 11.88C21.5147 8.296 24.928 5.48 29.28 3.432C33.632 1.384 38.5387 0.359993 44 0.359993C50.912 0.359993 56.416 1.98133 60.512 5.224C64.6933 8.46666 66.784 12.8187 66.784 18.28C66.784 21.864 65.888 24.7653 64.096 26.984C62.304 29.2027 59.9573 30.312 57.056 30.312C53.8133 30.312 51.2107 28.9893 49.248 26.344C50.8693 25.1493 52.1493 23.5707 53.088 21.608C54.0267 19.6453 54.496 17.5973 54.496 15.464C54.496 12.7333 53.6853 10.5573 52.064 8.936C50.4427 7.31466 48.224 6.504 45.408 6.504C41.9947 6.504 39.1787 7.74133 36.96 10.216C34.8267 12.6053 33.76 15.6773 33.76 19.432C33.76 22.8453 34.7413 26.0453 36.704 29.032C38.6667 31.9333 41.7387 35.688 45.92 40.296C49.3333 43.9653 52.064 47.1227 54.112 49.768C56.2453 52.4133 58.0373 55.4853 59.488 58.984C61.024 62.3973 61.792 66.1093 61.792 70.12C61.792 75.5813 60.256 80.5307 57.184 84.968C54.1973 89.4053 50.0587 92.904 44.768 95.464C39.5627 98.024 33.76 99.304 27.36 99.304ZM88.968 129C84.872 129 81.4587 127.933 78.728 125.8C75.9973 123.667 74.632 120.595 74.632 116.584C74.632 111.72 76.5947 107.795 80.52 104.808C84.4453 101.907 89.4373 99.4747 95.496 97.512L97.032 90.6C94.5573 93.3307 92.04 95.208 89.48 96.232C86.92 97.256 84.3173 97.768 81.672 97.768C77.576 97.768 74.248 96.488 71.688 93.928C69.2133 91.368 67.976 87.528 67.976 82.408C67.976 80.2747 68.3173 77.5013 69 74.088L77.704 33H96.136L86.92 76.52C86.664 77.544 86.536 78.6107 86.536 79.72C86.536 83.4747 87.816 85.352 90.376 85.352C92.5947 85.352 94.5573 84.4133 96.264 82.536C97.9707 80.5733 99.336 78.0133 100.36 74.856L109.32 33H127.752L115.08 92.392C119.176 91.0267 122.461 88.9787 124.936 86.248C127.411 83.5173 129.501 79.464 131.208 74.088H136.584C134.28 81.6827 131.165 87.272 127.24 90.856C123.315 94.3547 118.877 96.744 113.928 98.024L112.008 107.24C110.301 115.517 107.357 121.192 103.176 124.264C98.9947 127.421 94.2587 129 88.968 129ZM86.024 119.016C87.4747 119.016 88.8827 118.035 90.248 116.072C91.6133 114.109 92.68 111.293 93.448 107.624L94.216 103.912C85.8533 106.984 81.672 110.611 81.672 114.792C81.672 115.901 82.056 116.883 82.824 117.736C83.592 118.589 84.6587 119.016 86.024 119.016ZM177.458 97.768C172.253 97.768 168.413 96.4027 165.938 93.672C163.549 90.856 162.354 87.4 162.354 83.304C162.354 81.512 162.567 79.5067 162.994 77.288C163.421 74.984 163.847 72.7653 164.274 70.632C164.786 68.4987 165.127 67.1333 165.298 66.536C165.981 63.5493 166.621 60.6053 167.218 57.704C167.815 54.8027 168.114 52.456 168.114 50.664C168.114 46.312 166.578 44.136 163.506 44.136C161.287 44.136 159.325 45.2453 157.618 47.464C155.911 49.5973 154.546 52.4133 153.522 55.912L144.818 97H126.386L139.954 33H158.386L156.978 39.656C161.245 34.8773 166.237 32.488 171.954 32.488C176.306 32.488 179.762 33.6827 182.322 36.072C184.882 38.4613 186.162 42.088 186.162 46.952C186.162 49.4267 185.863 52.2 185.266 55.272C184.669 58.2587 183.815 61.928 182.706 66.28C182.023 68.9253 181.383 71.528 180.786 74.088C180.274 76.5627 180.018 78.5253 180.018 79.976C180.018 81.6827 180.402 83.0053 181.17 83.944C181.938 84.8827 183.261 85.352 185.138 85.352C187.698 85.352 189.746 84.456 191.282 82.664C192.818 80.7867 194.354 77.928 195.89 74.088H201.266C198.109 83.4747 194.439 89.7893 190.258 93.032C186.162 96.1893 181.895 97.768 177.458 97.768ZM214.179 97.768C207.864 97.768 202.958 96.1467 199.459 92.904C195.96 89.576 194.211 84.4133 194.211 77.416C194.211 71.528 195.363 65.0427 197.667 57.96C200.056 50.8773 203.811 44.776 208.931 39.656C214.136 34.4507 220.707 31.848 228.643 31.848C233.763 31.848 237.39 32.9573 239.523 35.176C241.742 37.3947 242.851 40.2107 242.851 43.624C242.851 46.6107 242.211 48.9147 240.931 50.536C239.651 52.1573 238.03 52.968 236.067 52.968C234.616 52.968 233.123 52.456 231.587 51.432C232.611 48.616 233.123 46.0987 233.123 43.88C233.123 42.2587 232.824 40.9787 232.227 40.04C231.63 39.1013 230.734 38.632 229.539 38.632C226.979 38.632 224.419 40.7227 221.859 44.904C219.299 49.0853 217.208 54.1627 215.587 60.136C213.966 66.1093 213.155 71.4853 213.155 76.264C213.155 80.4453 213.88 83.304 215.331 84.84C216.782 86.2907 219.128 87.016 222.371 87.016C226.979 87.016 230.904 85.9493 234.147 83.816C237.475 81.6827 241.102 78.44 245.027 74.088H249.379C239.907 89.8747 228.174 97.768 214.179 97.768ZM253.704 33H272.136L270.472 40.936C273.373 38.376 275.976 36.4133 278.28 35.048C280.669 33.6827 283.229 33 285.96 33C288.691 33 290.824 33.9387 292.36 35.816C293.981 37.6933 294.792 39.9547 294.792 42.6C294.792 45.0747 293.981 47.2507 292.36 49.128C290.739 51.0053 288.477 51.944 285.576 51.944C283.699 51.944 282.419 51.5173 281.736 50.664C281.139 49.7253 280.669 48.4027 280.328 46.696C280.072 45.5867 279.816 44.776 279.56 44.264C279.304 43.752 278.835 43.496 278.152 43.496C276.36 43.496 274.824 43.88 273.544 44.648C272.349 45.3307 270.771 46.568 268.808 48.36L258.568 97H240.136L253.704 33ZM311.813 97.512C305.498 97.512 300.506 95.8907 296.837 92.648C293.168 89.4053 291.333 84.2853 291.333 77.288C291.333 71.4 292.485 64.9573 294.789 57.96C297.093 50.8773 300.848 44.776 306.053 39.656C311.258 34.4507 317.914 31.848 326.021 31.848C336.09 31.848 341.509 37.608 342.277 49.128C344.154 48.7013 345.818 47.6773 347.269 46.056C348.72 44.3493 350.085 42.4293 351.365 40.296H355.461C353.157 44.904 351.109 48.5307 349.317 51.176C347.525 53.736 345.178 55.8267 342.277 57.448C341.765 65.4693 340.101 72.5093 337.285 78.568C334.554 84.6267 330.97 89.32 326.533 92.648C322.096 95.8907 317.189 97.512 311.813 97.512ZM316.933 85.992C320.09 85.992 323.034 83.432 325.765 78.312C328.496 73.192 330.373 66.8773 331.397 59.368C329.349 58.6 328.325 56.68 328.325 53.608C328.325 50.28 329.52 48.0613 331.909 46.952C331.738 44.2213 331.269 42.344 330.501 41.32C329.818 40.2107 328.666 39.656 327.045 39.656C324.229 39.656 321.541 41.704 318.981 45.8C316.421 49.8107 314.33 54.7173 312.709 60.52C311.173 66.2373 310.405 71.272 310.405 75.624C310.405 79.72 310.874 82.4933 311.813 83.944C312.752 85.3093 314.458 85.992 316.933 85.992Z" fill="url(#paint0_linear_1_2)"/>
<defs>
<linearGradient id="paint0_linear_1_2" x1="196.229" y1="49.1787" x2="205.006" y2="142.153" gradientUnits="userSpaceOnUse">
<stop stop-color="#17BEE3"/>
<stop offset="0.379361" stop-color="#6458E5"/>
<stop offset="0.833729" stop-color="#6D1EB7"/>
</linearGradient>
</defs>
</svg>
