<?xml version="1.0" standalone="no"?>
<svg xmlns:xlink="http://www.w3.org/1999/xlink" id="wave" style="transform:rotate(180deg); transition: 0.3s" viewBox="0 0 1440 490" version="1.1" xmlns="http://www.w3.org/2000/svg"><defs><linearGradient id="sw-gradient-0" x1="0" x2="0" y1="1" y2="0"><stop stop-color="rgba(175, 45, 255, 1)" offset="0%"/><stop stop-color="rgba(22.245, 142.208, 166.575, 1)" offset="100%"/></linearGradient></defs><path style="transform:translate(0, 0px); opacity:1" fill="url(#sw-gradient-0)" d="M0,49L48,73.5C96,98,192,147,288,147C384,147,480,98,576,89.8C672,82,768,114,864,171.5C960,229,1056,310,1152,343C1248,376,1344,359,1440,302.2C1536,245,1632,147,1728,130.7C1824,114,1920,180,2016,228.7C2112,278,2208,310,2304,343C2400,376,2496,408,2592,351.2C2688,294,2784,147,2880,98C2976,49,3072,98,3168,122.5C3264,147,3360,147,3456,147C3552,147,3648,147,3744,187.8C3840,229,3936,310,4032,310.3C4128,310,4224,229,4320,171.5C4416,114,4512,82,4608,106.2C4704,131,4800,212,4896,220.5C4992,229,5088,163,5184,114.3C5280,65,5376,33,5472,73.5C5568,114,5664,229,5760,269.5C5856,310,5952,278,6048,269.5C6144,261,6240,278,6336,253.2C6432,229,6528,163,6624,179.7C6720,196,6816,294,6864,343L6912,392L6912,490L6864,490C6816,490,6720,490,6624,490C6528,490,6432,490,6336,490C6240,490,6144,490,6048,490C5952,490,5856,490,5760,490C5664,490,5568,490,5472,490C5376,490,5280,490,5184,490C5088,490,4992,490,4896,490C4800,490,4704,490,4608,490C4512,490,4416,490,4320,490C4224,490,4128,490,4032,490C3936,490,3840,490,3744,490C3648,490,3552,490,3456,490C3360,490,3264,490,3168,490C3072,490,2976,490,2880,490C2784,490,2688,490,2592,490C2496,490,2400,490,2304,490C2208,490,2112,490,2016,490C1920,490,1824,490,1728,490C1632,490,1536,490,1440,490C1344,490,1248,490,1152,490C1056,490,960,490,864,490C768,490,672,490,576,490C480,490,384,490,288,490C192,490,96,490,48,490L0,490Z"/></svg>