<?xml version="1.0" standalone="no"?>
<svg xmlns:xlink="http://www.w3.org/1999/xlink" id="wave" style="transform:rotate(0deg); transition: 0.3s" viewBox="0 0 1440 230" version="1.1" xmlns="http://www.w3.org/2000/svg"><defs><linearGradient id="sw-gradient-0" x1="0" x2="0" y1="1" y2="0"><stop stop-color="rgba(135, 71, 224, 1)" offset="0%"/><stop stop-color="rgba(24, 216, 255, 1)" offset="100%"/></linearGradient></defs><path style="transform:translate(0, 0px); opacity:1" fill="url(#sw-gradient-0)" d="M0,0L30,7.7C60,15,120,31,180,42.2C240,54,300,61,360,76.7C420,92,480,115,540,126.5C600,138,660,138,720,122.7C780,107,840,77,900,61.3C960,46,1020,46,1080,38.3C1140,31,1200,15,1260,19.2C1320,23,1380,46,1440,69C1500,92,1560,115,1620,122.7C1680,130,1740,123,1800,111.2C1860,100,1920,84,1980,95.8C2040,107,2100,146,2160,149.5C2220,153,2280,123,2340,111.2C2400,100,2460,107,2520,103.5C2580,100,2640,84,2700,76.7C2760,69,2820,69,2880,92C2940,115,3000,161,3060,164.8C3120,169,3180,130,3240,111.2C3300,92,3360,92,3420,84.3C3480,77,3540,61,3600,80.5C3660,100,3720,153,3780,149.5C3840,146,3900,84,3960,53.7C4020,23,4080,23,4140,23C4200,23,4260,23,4290,23L4320,23L4320,230L4290,230C4260,230,4200,230,4140,230C4080,230,4020,230,3960,230C3900,230,3840,230,3780,230C3720,230,3660,230,3600,230C3540,230,3480,230,3420,230C3360,230,3300,230,3240,230C3180,230,3120,230,3060,230C3000,230,2940,230,2880,230C2820,230,2760,230,2700,230C2640,230,2580,230,2520,230C2460,230,2400,230,2340,230C2280,230,2220,230,2160,230C2100,230,2040,230,1980,230C1920,230,1860,230,1800,230C1740,230,1680,230,1620,230C1560,230,1500,230,1440,230C1380,230,1320,230,1260,230C1200,230,1140,230,1080,230C1020,230,960,230,900,230C840,230,780,230,720,230C660,230,600,230,540,230C480,230,420,230,360,230C300,230,240,230,180,230C120,230,60,230,30,230L0,230Z"/></svg>